STARTFONT 2.3
FONT -FontForge-Open Sans-Book-R-Normal-Sans--28-280-72-72-P-162-ISO10646-1
SIZE 28 72 72  4
FONTBOUNDINGBOX 50 38 -16 -8
COMMENT "Generated by fontforge, http://fontforge.sourceforge.net"
COMMENT "Digitized data copyright (c) 2010-2011, Google Corporation."
STARTPROPERTIES 41
FOUNDRY "FontForge"
FAMILY_NAME "Open Sans"
WEIGHT_NAME "Book"
SLANT "R"
SETWIDTH_NAME "Normal"
ADD_STYLE_NAME "Sans"
PIXEL_SIZE 28
POINT_SIZE 280
RESOLUTION_X 72
RESOLUTION_Y 72
SPACING "P"
AVERAGE_WIDTH 162
CHARSET_REGISTRY "ISO10646"
CHARSET_ENCODING "1"
FONTNAME_REGISTRY ""
CHARSET_COLLECTIONS "ISO8859-2 ISO8859-5 ISO8859-7 ISO8859-9 ISO8859-4 ISO10646-1"
BITS_PER_PIXEL 4
FONT_NAME "OpenSans-Regular"
FACE_NAME "Open Sans Regular"
COPYRIGHT "Digitized data copyright (c) 2010-2011, Google Corporation."
FONT_VERSION "1.10"
FONT_ASCENT 22
FONT_DESCENT 6
UNDERLINE_POSITION -3
UNDERLINE_THICKNESS 2
X_HEIGHT 14
CAP_HEIGHT 19
RAW_ASCENT 799
RAW_DESCENT 200
NORM_SPACE 7
RELATIVE_WEIGHT 40
RELATIVE_SETWIDTH 50
SUPERSCRIPT_X 0
SUPERSCRIPT_Y 13
SUPERSCRIPT_SIZE 18
SUBSCRIPT_X 0
SUBSCRIPT_Y 3
SUBSCRIPT_SIZE 18
FIGURE_WIDTH 16
AVG_LOWERCASE_WIDTH 159
AVG_UPPERCASE_WIDTH 186
ENDPROPERTIES
CHARS 938
STARTCHAR space
ENCODING 32
SWIDTH 259 0
DWIDTH 7 0
BBX 1 1 0 0
BITMAP
00
ENDCHAR
STARTCHAR exclam
ENCODING 33
SWIDTH 267 0
DWIDTH 7 0
BBX 4 20 2 0
BITMAP
AFF2
9FF1
8FF0
7FF0
7FE0
6FD0
5FC0
4FC0
4FB0
3FA0
2F90
1F90
1F80
0F70
0000
0000
3A70
CFF4
DFF5
6EC1
ENDCHAR
STARTCHAR quotedbl
ENCODING 34
SWIDTH 400 0
DWIDTH 11 0
BBX 9 7 1 13
BITMAP
2FF502FF50
1FF400FF40
0FF200EF30
0EF100DF20
0CF000CF10
0BE000BE00
0AD0009D00
ENDCHAR
STARTCHAR numbersign
ENCODING 35
SWIDTH 645 0
DWIDTH 18 0
BBX 18 20 0 0
BITMAP
0000002FC0000FC000
0000005F90003F9000
0000007F60006F6000
000000AF30009F3000
000000DF1000CF1000
000001FD0000FD0000
04FFFFFFFFFFFFFFF5
03BBBDFCBBBDFDBBB4
000009F30009F40000
00000DF1000CF10000
00001FC0001FC00000
00004F90004F900000
4FFFFFFFFFFFFFFF60
3CCCEFCCCCEFCCCC40
0000DF1000CF100000
0001FD0000FD000000
0003FA0003FA000000
0006F70006F7000000
0008F50009F5000000
000BF2000BF2000000
ENDCHAR
STARTCHAR dollar
ENCODING 36
SWIDTH 571 0
DWIDTH 16 0
BBX 14 23 1 -2
BITMAP
000000DD000000
000000DD000000
00039DFFECA610
008FFFFFEFFF80
06FF71DD014920
0CF900DD000000
0EF600DD000000
0DF900DD000000
08FF60DD000000
01CFFDED000000
0019FFFFB50000
000027FFFFD400
000000DE8EFF40
000000DD01CFD0
000000DD005FF2
000000DD003FF2
000000DD008FE0
3C7300DD38FF60
3FFFFEFFFFF700
059CDEFFB82000
000000DD000000
000000DD000000
000000DD000000
ENDCHAR
STARTCHAR percent
ENCODING 37
SWIDTH 823 0
DWIDTH 23 0
BBX 21 20 1 0
BITMAP
007DFD600000003FC00000
08FDAEF6000000BF400000
1FE101EE100005FB000000
5F80009F50000DF2000000
7F60006F70006F90000000
8F50005F8001EE10000000
8F50005F8008F700000000
7F60006F702FD100000000
5F90009F50AF607DFD6000
1EE102EE13FC07FEAEF700
07FEAEF70BF41EE101DE10
006DFD705FB04F90008F50
00000000DF307F60005F80
00000006F9008F50004F90
0000001EE1008F50004F90
0000008F70007F60005F80
000002ED10004F90008F50
000009F600000EE101DF10
00003FC0000006FEAEF800
0000BF400000006DFD7000
ENDCHAR
STARTCHAR ampersand
ENCODING 38
SWIDTH 729 0
DWIDTH 20 0
BBX 20 20 1 0
BITMAP
00005BEFEA3000000000
0009FFFEFFF500000000
004FF8002BFE00000000
008FC00002FF30000000
008FB00001FF30000000
005FE10006FE00000000
000DF9004EF700000000
0004FF88FF9000000000
00007FFFE60000000000
0004DFFF900000000000
007FFB8FF9000005FE00
06FF7007FFA0000AFA00
1EF800007FFA001EF500
4FF1000006FFA07FD000
6FE00000006FFCFF5000
6FF100000006FFFA0000
2FF700000006EFFC1000
0BFFA31136CFFBFFC100
01CFFFFFFFFE605FFC10
0006BEFEDA600004FFC1
ENDCHAR
STARTCHAR quotesingle
ENCODING 39
SWIDTH 221 0
DWIDTH 6 0
BBX 4 7 1 13
BITMAP
2FF5
1FF4
0FF2
0EF1
0CF0
0BE0
0AD0
ENDCHAR
STARTCHAR parenleft
ENCODING 40
SWIDTH 295 0
DWIDTH 8 0
BBX 7 24 1 -4
BITMAP
0002EF20
000CF800
007FD000
00EF6000
06FE1000
0CF90000
2FF40000
6FF10000
9FC00000
BFA00000
CF900000
DF800000
DF800000
CF900000
BFA00000
9FC00000
6FF10000
3FF40000
0DF80000
07FE1000
01EF6000
008FD000
000CF700
0002EE20
ENDCHAR
STARTCHAR parenright
ENCODING 41
SWIDTH 295 0
DWIDTH 8 0
BBX 7 24 1 -4
BITMAP
DF600000
3FE20000
09FB0000
02FF4000
00BFA000
005FF200
001FF600
000CFA00
0008FD00
0006FF00
0005FF20
0004FF20
0004FF20
0004FF20
0006FF00
0008FD00
000BFB00
000EF700
004FF200
00BFB000
02FF4000
09FC0000
3FE20000
CF600000
ENDCHAR
STARTCHAR asterisk
ENCODING 42
SWIDTH 551 0
DWIDTH 15 0
BBX 14 13 1 8
BITMAP
000009FE000000
000008FC000000
000006FB000000
000005F9000000
7A6203F80149C0
AFFFC9FBBFFFF1
8BCDFFFFFEDBA1
00001EFF500000
0000BF7FE20000
0006FD09FB0000
003FF702FF8000
00BFF100AFF200
001790003B3000
ENDCHAR
STARTCHAR plus
ENCODING 43
SWIDTH 571 0
DWIDTH 16 0
BBX 14 14 1 3
BITMAP
000000DC000000
000000FE000000
000000FE000000
000000FE000000
000000FE000000
000000FE000000
9FFFFFFFFFFFF8
8DDDDDFFDDDDD8
000000FE000000
000000FE000000
000000FE000000
000000FE000000
000000FE000000
000000AA000000
ENDCHAR
STARTCHAR comma
ENCODING 44
SWIDTH 245 0
DWIDTH 7 0
BBX 5 7 0 -4
BITMAP
00CFD0
00EFA0
02FF50
05FE00
08F900
0CF300
1FB000
ENDCHAR
STARTCHAR hyphen
ENCODING 45
SWIDTH 321 0
DWIDTH 9 0
BBX 7 3 1 6
BITMAP
DFFFFFD0
DFFFFFD0
11111110
ENDCHAR
STARTCHAR period
ENCODING 46
SWIDTH 266 0
DWIDTH 7 0
BBX 4 4 2 0
BITMAP
3A70
CFF4
DFF5
7EC1
ENDCHAR
STARTCHAR slash
ENCODING 47
SWIDTH 367 0
DWIDTH 10 0
BBX 10 20 0 0
BITMAP
00000007FC
0000000CF7
0000003FF1
0000009FA0
000000EF50
000005FE00
00000AF900
00001FF300
00007FC000
0000CF7000
0003FF1000
0008FB0000
000EF50000
004FE00000
00AF900000
01FF300000
06FD000000
0CF7000000
2FF2000000
8FB0000000
ENDCHAR
STARTCHAR zero
ENCODING 48
SWIDTH 571 0
DWIDTH 16 0
BBX 14 20 1 0
BITMAP
00018CEEC71000
003EFFFFFFD200
01EFC4004DFC00
08FD100001EF60
0DF70000007FC0
3FF20000003FF2
5FE00000000EF5
7FC00000000DF7
8FB00000000BF8
9FB00000000BF9
9FB00000000BF9
8FB00000000BF8
7FC00000000DF7
5FE00000000EF5
2FF20000003FF2
0DF70000007FD0
06FD100001EF70
00DFC4004DFD10
002DFFFFFFE300
00017CEEC81000
ENDCHAR
STARTCHAR one
ENCODING 49
SWIDTH 571 0
DWIDTH 16 0
BBX 8 20 2 0
BITMAP
00001AFC
0002CFFC
004EFDFC
06FFA6FC
3FF806FC
086006FC
000007FC
000007FC
000007FC
000007FC
000007FC
000007FC
000007FC
000007FC
000007FC
000007FC
000007FC
000007FC
000007FC
000007FC
ENDCHAR
STARTCHAR two
ENCODING 50
SWIDTH 571 0
DWIDTH 16 0
BBX 14 20 1 0
BITMAP
0006BDFEC71000
05EFFFFFFFD300
2FFB51015EFD10
0650000003FF60
0000000000CF90
0000000000BF90
0000000000CF80
0000000002FF40
0000000009FC00
000000004FF300
00000002EF7000
0000002DF90000
000002DFA00000
00002DFA000000
0002DF90000000
002DF900000000
02DF8000000000
2DF92222222221
9FFFFFFFFFFFF8
9FFFFFFFFFFFF8
ENDCHAR
STARTCHAR three
ENCODING 51
SWIDTH 571 0
DWIDTH 16 0
BBX 14 20 1 0
BITMAP
0028BEFEC82000
1AFFFFEFFFE500
4FE930015DFF20
0510000001EF80
0000000000AFB0
0000000000AFB0
0000000000DF80
0000000008FF20
00000014BFE400
000AFFFFE72000
000AEEFFFEA300
000000025CFF50
00000000009FE1
00000000002FF4
00000000000FF5
00000000002FF4
1000000000AFE0
BB6300014BFF60
BFFFFEEFFFE600
16ACEFEDB71000
ENDCHAR
STARTCHAR four
ENCODING 52
SWIDTH 571 0
DWIDTH 16 0
BBX 16 20 0 0
BITMAP
0000000004FF7000
000000001EFF7000
00000000BFCF7000
00000007FA9F7000
0000003FE2AF7000
000001DF50AF7000
000009F900AF7000
00005FC000AF7000
0002EE2000AF7000
000BF60000AF7000
008FA00000AF7000
04FD100000AF7000
1DF4000000AF7000
6FFFFFFFFFFFFFF7
6FFFFFFFFFFFFFF7
0111111111BF8110
0000000000AF7000
0000000000AF7000
0000000000AF7000
0000000000AF7000
ENDCHAR
STARTCHAR five
ENCODING 53
SWIDTH 571 0
DWIDTH 16 0
BBX 14 20 1 0
BITMAP
00FFFFFFFFFF00
01FFFFFFFFFF00
02FE1111111100
03FD0000000000
05FC0000000000
06FB0000000000
07F90000000000
08F80000000000
09FDDEFEC93000
08FFFEEFFFF800
003200014BFF70
0000000000AFE1
00000000002FF4
00000000000EF5
00000000000FF5
00000000003FF2
1000000001CFB0
3D8410015DFE30
3FFFFFFFFFD300
049CEFFDB61000
ENDCHAR
STARTCHAR six
ENCODING 54
SWIDTH 571 0
DWIDTH 16 0
BBX 14 20 1 0
BITMAP
0000028CEFED10
00009FFFFEEF10
000BFF93000100
008FE400000000
02FF6000000000
08FD0000000000
0DF70000000000
1FF40000000000
3FF129DEEC7100
5FF4EFDCEFFD20
5FFEA20003DFC0
6FF90000003FF4
5FF10000000CF8
4FE00000000AF9
1FF10000000AF9
0CF60000000DF6
05FE2000005FF2
00BFE51017FF90
001BFFFEFFFA00
00006BEFEA5000
ENDCHAR
STARTCHAR seven
ENCODING 55
SWIDTH 571 0
DWIDTH 16 0
BBX 14 20 1 0
BITMAP
BFFFFFFFFFFFF9
BFFFFFFFFFFFF9
11111111112EF4
00000000007FC0
0000000000EF60
0000000006FE00
000000000DF700
000000005FE100
00000000CF9000
00000004FF2000
0000000BFA0000
0000003FF30000
000000AFC00000
000002FF500000
000008FD000000
00001EF6000000
00007FE1000000
0001EF80000000
0006FF20000000
000DF900000000
ENDCHAR
STARTCHAR eight
ENCODING 56
SWIDTH 571 0
DWIDTH 16 0
BBX 14 20 1 0
BITMAP
00039DFFD93000
007FFFEEFFF700
05FF910029FF50
0BFB000000BFB0
0DF60000006FD0
0DF60000006FC0
09FB000000BF90
03FF700007FE20
006FFC43BFE300
0004DFFFFA1000
0006EFFFFD6000
01CFE614BFFB10
0BFC100004DFB0
4FE20000002FF4
8FB00000000BF8
8FB00000000CF8
5FF20000002FF4
1DFD500006DFC0
03DFFFEEFFFC20
0016BEFFDB6000
ENDCHAR
STARTCHAR nine
ENCODING 57
SWIDTH 571 0
DWIDTH 16 0
BBX 14 20 1 0
BITMAP
0003ADFEC60000
008FFFFFFFC100
07FF82015DFC00
1EF7000001DF60
5FE00000005FC0
7FB00000000EF2
8FB00000000DF5
7FD00000000EF6
3FF40000007FF7
0BFD400029FFF7
02DFFEDDFF6DF6
0017CEFD920EF5
00000000002FF2
00000000006FE0
0000000000BF90
0000000004FF30
000000003EF900
00100028EFC100
01FEDEFFFA1000
01DEFEC8300000
ENDCHAR
STARTCHAR colon
ENCODING 58
SWIDTH 266 0
DWIDTH 7 0
BBX 4 15 2 0
BITMAP
7EC1
DFF5
CFF4
3A70
0000
0000
0000
0000
0000
0000
0000
3A70
CFF4
DFF5
7EC1
ENDCHAR
STARTCHAR semicolon
ENCODING 59
SWIDTH 266 0
DWIDTH 7 0
BBX 6 19 0 -4
BITMAP
008EB0
00EFF4
00DFF3
004A60
000000
000000
000000
000000
000000
000000
000000
000000
00CFD0
00EFA0
02FF50
05FE00
08F900
0CF300
1FB000
ENDCHAR
STARTCHAR less
ENCODING 60
SWIDTH 571 0
DWIDTH 16 0
BBX 14 14 1 3
BITMAP
00000000000177
00000000006EF8
000000006DFF92
0000006DFF9200
00005DFE810000
005DFE81000000
4CFE7100000000
9FF71000000000
29EFE920000000
0017EFFB400000
000006CFFD6100
00000004BFFE92
00000000039FF8
00000000000187
ENDCHAR
STARTCHAR equal
ENCODING 61
SWIDTH 571 0
DWIDTH 16 0
BBX 14 8 1 6
BITMAP
6FFFFFFFFFFFF5
5DDDDDDDDDDDD5
00000000000000
00000000000000
00000000000000
00000000000000
5DDDDDDDDDDDD5
6FFFFFFFFFFFF5
ENDCHAR
STARTCHAR greater
ENCODING 62
SWIDTH 571 0
DWIDTH 16 0
BBX 14 14 1 3
BITMAP
77100000000000
9FE60000000000
29FFD600000000
0029FFD6000000
000029FFD50000
00000018EFD500
0000000018EFC4
00000000017FF8
000000028EFE92
000004BFFD7100
0016DFFC600000
29EFFB40000000
9FF93000000000
88100000000000
ENDCHAR
STARTCHAR question
ENCODING 63
SWIDTH 429 0
DWIDTH 12 0
BBX 12 20 0 0
BITMAP
027BEFEC8100
6FFFFFFFFE20
2E953126EFC0
010000004FF2
000000000EF4
000000000FF3
000000006FD0
00000004EF50
0000006FF600
000007FE5000
00005FE30000
0000CF400000
0000FD000000
0001FB000000
000000000000
000000000000
000298100000
0009FF700000
000AFF800000
0004ED200000
ENDCHAR
STARTCHAR at
ENCODING 64
SWIDTH 898 0
DWIDTH 25 0
BBX 23 23 1 -3
BITMAP
000000016ADEFEC940000000
0000018EFFECCCEFFD400000
00003DFD72000004AFF70000
0003EF800000000005EF6000
001DF60000000000003FE200
009F8000000000000007F900
02FD000006CEFDC92001EE00
08F70001CFEBBCFF5000AF40
0DF1000BFB1000BF40007F60
1FD0003FE10000CF30005F70
3FA0008F900000DF30006F70
4F9000AF700000EF20007F60
5F9000AF600001FF1000AF30
4FA0008F900006FF2001EE00
3FB0003FE3002DDF6009F700
0FE00009FFCCFE2DFBDFB000
0BF400007DFE9202BED81000
06FB00000000000000000000
00DF70000000000000000000
003FF7000000000000000000
0005EFC620000037C1000000
00002BFFFEDCDFFFF1000000
00000038BDEFECA610000000
ENDCHAR
STARTCHAR A
ENCODING 65
SWIDTH 632 0
DWIDTH 18 0
BBX 18 20 0 0
BITMAP
00000004FF10000000
0000000AFF70000000
0000001FEFD0000000
0000007F9EF3000000
000000DF59F9000000
000004FF14FE100000
00000AFA00EF600000
00001FF4008FC00000
00007FE0003FF30000
0000DF80000CF90000
0004FF300007FE1000
000AFC000002FF6000
001FFFFFFFFFFFC000
006FFFFFFFFFFFF200
00CFA11111112EF800
03FF3000000009FE00
09FC0000000002FF50
1EF60000000000BFB0
6FE100000000005FF2
CF9000000000000DF8
ENDCHAR
STARTCHAR B
ENCODING 66
SWIDTH 647 0
DWIDTH 18 0
BBX 15 20 2 0
BITMAP
4FFFFFFEDB720000
4FFFFFFFFFFF6000
4FF1000137DFF400
4FF10000002EFA00
4FF100000009FD00
4FF100000008FD00
4FF100000009FB00
4FF10000001EF500
4FF1000025DF9000
4FFFFFFFFFA40000
4FFFFFFFFFEA3000
4FF10000149FF600
4FF100000007FF20
4FF100000001FF70
4FF100000000EF90
4FF100000001FF70
4FF100000008FF40
4FF1000014AFFB00
4FFFFFFFFFFFB100
4FFFFFFFEDA40000
ENDCHAR
STARTCHAR C
ENCODING 67
SWIDTH 630 0
DWIDTH 18 0
BBX 16 20 1 0
BITMAP
0000005ADEFECA61
00005DFFFFFFFFF9
0007FFF9421359E3
005FFC2000000010
01EFD10000000000
07FF300000000000
0CFC000000000000
1FF7000000000000
3FF5000000000000
4FF4000000000000
4FF4000000000000
3FF4000000000000
1FF7000000000000
0DFB000000000000
09FF200000000000
02FFB00000000000
008FFA1000000000
000BFFE8421247A1
00008FFFFFFFFFF1
0000027BDFEDC950
ENDCHAR
STARTCHAR D
ENCODING 68
SWIDTH 729 0
DWIDTH 20 0
BBX 17 20 2 0
BITMAP
4FFFFFFEDB72000000
4FFFFFFFFFFF910000
4FF1000136CFFD2000
4FF100000006FFC000
4FF1000000005FF700
4FF1000000000AFE00
4FF10000000004FF40
4FF10000000000FF70
4FF10000000000DF90
4FF10000000000CFA0
4FF10000000000CFA0
4FF10000000000DF90
4FF10000000001FF70
4FF10000000005FF30
4FF1000000000CFD00
4FF1000000007FF600
4FF100000008FFB000
4FF1001248EFFC1000
4FFFFFFFFFFE800000
4FFFFFFEDA61000000
ENDCHAR
STARTCHAR E
ENCODING 69
SWIDTH 556 0
DWIDTH 16 0
BBX 12 20 2 0
BITMAP
4FFFFFFFFFFD
4FFFFFFFFFFD
4FF211111111
4FF100000000
4FF100000000
4FF100000000
4FF100000000
4FF100000000
4FF100000000
4FFFFFFFFFF5
4FFFFFFFFFF5
4FF211111110
4FF100000000
4FF100000000
4FF100000000
4FF100000000
4FF100000000
4FF211111111
4FFFFFFFFFFD
4FFFFFFFFFFD
ENDCHAR
STARTCHAR F
ENCODING 70
SWIDTH 516 0
DWIDTH 14 0
BBX 12 20 2 0
BITMAP
4FFFFFFFFFFD
4FFFFFFFFFFD
4FF211111111
4FF100000000
4FF100000000
4FF100000000
4FF100000000
4FF100000000
4FF100000000
4FFFFFFFFFF5
4FFFFFFFFFF5
4FF211111110
4FF100000000
4FF100000000
4FF100000000
4FF100000000
4FF100000000
4FF100000000
4FF100000000
4FF100000000
ENDCHAR
STARTCHAR G
ENCODING 71
SWIDTH 728 0
DWIDTH 20 0
BBX 18 20 1 0
BITMAP
00000038BEFFEC9510
00003BFFFFFFFFFFD0
0005FFFB632236AE70
004FFD300000000110
01DFD1000000000000
06FF40000000000000
0CFC00000000000000
1FF700000000000000
3FF400000000000000
4FF300000000000000
4FF30000007FFFFFF5
3FF40000007FFFFFF5
1FF700000011111FF5
0DFB00000000000FF5
08FF20000000000FF5
01FFC0000000000FF5
007FFB100000000FF5
0009FFE95211236FF5
00006EFFFFFFFFFFF5
0000016ADEFFECA730
ENDCHAR
STARTCHAR H
ENCODING 72
SWIDTH 737 0
DWIDTH 21 0
BBX 16 20 2 0
BITMAP
4FF10000000006FE
4FF10000000006FE
4FF10000000006FE
4FF10000000006FE
4FF10000000006FE
4FF10000000006FE
4FF10000000006FE
4FF10000000006FE
4FF10000000006FE
4FFFFFFFFFFFFFFE
4FFFFFFFFFFFFFFE
4FF21111111117FE
4FF10000000006FE
4FF10000000006FE
4FF10000000006FE
4FF10000000006FE
4FF10000000006FE
4FF10000000006FE
4FF10000000006FE
4FF10000000006FE
ENDCHAR
STARTCHAR I
ENCODING 73
SWIDTH 278 0
DWIDTH 8 0
BBX 4 20 2 0
BITMAP
4FF1
4FF1
4FF1
4FF1
4FF1
4FF1
4FF1
4FF1
4FF1
4FF1
4FF1
4FF1
4FF1
4FF1
4FF1
4FF1
4FF1
4FF1
4FF1
4FF1
ENDCHAR
STARTCHAR J
ENCODING 74
SWIDTH 267 0
DWIDTH 7 0
BBX 8 25 -3 -5
BITMAP
000006FE
000006FE
000006FE
000006FE
000006FE
000006FE
000006FE
000006FE
000006FE
000006FE
000006FE
000006FE
000006FE
000006FE
000006FE
000006FE
000006FE
000006FE
000006FE
000006FE
000008FD
00000CFA
13239FF5
3FFFFFA0
2DFEC600
ENDCHAR
STARTCHAR K
ENCODING 75
SWIDTH 613 0
DWIDTH 17 0
BBX 15 20 2 0
BITMAP
4FF100000005FF60
4FF10000004FF700
4FF1000003EF9000
4FF100002EFA0000
4FF10001DFB00000
4FF1001CFB100000
4FF101BFC1000000
4FF10AFD10000000
4FF19FF200000000
4FF9FFF700000000
4FFFCBFF30000000
4FFB11DFD1000000
4FF1003FFA000000
4FF10006FF600000
4FF10000AFE20000
4FF100001DFC1000
4FF1000003FF9000
4FF10000006FF500
4FF10000000AFE20
4FF100000001DFC0
ENDCHAR
STARTCHAR L
ENCODING 76
SWIDTH 519 0
DWIDTH 15 0
BBX 12 20 2 0
BITMAP
4FF100000000
4FF100000000
4FF100000000
4FF100000000
4FF100000000
4FF100000000
4FF100000000
4FF100000000
4FF100000000
4FF100000000
4FF100000000
4FF100000000
4FF100000000
4FF100000000
4FF100000000
4FF100000000
4FF100000000
4FF322222221
4FFFFFFFFFFD
4FFFFFFFFFFD
ENDCHAR
STARTCHAR M
ENCODING 77
SWIDTH 902 0
DWIDTH 25 0
BBX 21 20 2 0
BITMAP
4FFF7000000000002FFF80
4FFFC000000000008FFF80
4FDFF30000000000DFDF80
4FCBF90000000004FCAF80
4FD5FE000000000AF7BF80
4FD0EF500000001FF1BF80
4FD09FB00000007FA0CF80
4FD03FF2000000CF40CF80
4FD00CF8000003FD00CF80
4FD006FD000009F800CF80
4FD001FF40001EF200CF80
4FD000AFA0006FB000CF80
4FD0004FF100BF5000CF80
4FD0000DF602FE1000CF80
4FD00008FC08F90000CF80
4FD00002FF3EF30000CF80
4FD00000BFDFC00000CF80
4FD000005FFF600000CF80
4FD000001EFF100000CF80
4FD0000009FA000000CF80
ENDCHAR
STARTCHAR N
ENCODING 78
SWIDTH 753 0
DWIDTH 21 0
BBX 17 20 2 0
BITMAP
4FFA0000000000CF50
4FFF5000000000CF50
4FFFE100000000CF50
4FCEFA00000000CF50
4FB6FF50000000CF50
4FC0BFD1000000CF50
4FD02EF9000000CF50
4FD007FF400000CF50
4FD000CFD10000CF50
4FD0002FF80000CF50
4FD00007FF3000CF50
4FD00000CFD000CF50
4FD000003FF800CF50
4FD0000008FF30CF50
4FD0000000DFC0BF50
4FD00000004FF7AF50
4FD000000009FFCF50
4FD000000001DFFF50
4FD0000000004FFF50
4FD00000000009FF50
ENDCHAR
STARTCHAR O
ENCODING 79
SWIDTH 778 0
DWIDTH 22 0
BBX 20 20 1 0
BITMAP
0000027BDEEDA6100000
00008FFFFFFFFFE50000
000BFFD732237DFF7000
008FF800000001AFF400
02FF90000000000CFD00
09FE100000000003FF50
0DFA000000000000CFA0
1FF60000000000009FD0
3FF40000000000007FF0
4FF30000000000006FF1
4FF30000000000006FF1
3FF40000000000007FF0
1FF60000000000009FD0
0DFA000000000000CFA0
09FE100000000003FF50
02FF90000000000BFD00
008FF700000000AFF400
000BFFC621137DFF7000
00008FFFFFFFFFE50000
0000027BDFEDA6100000
ENDCHAR
STARTCHAR P
ENCODING 80
SWIDTH 602 0
DWIDTH 17 0
BBX 14 20 2 0
BITMAP
4FFFFFFEB82000
4FFFFFFFFFF800
4FF100126DFF70
4FF1000000BFF1
4FF10000003FF4
4FF10000000FF6
4FF10000001FF5
4FF10000004FF3
4FF1000001CFC0
4FF100137DFF30
4FFFFFFFFFD400
4FFFFFEDA50000
4FF10000000000
4FF10000000000
4FF10000000000
4FF10000000000
4FF10000000000
4FF10000000000
4FF10000000000
4FF10000000000
ENDCHAR
STARTCHAR Q
ENCODING 81
SWIDTH 778 0
DWIDTH 22 0
BBX 20 24 1 -4
BITMAP
0000027BDEEDA6100000
00008FFFFFFFFFE50000
000BFFD732237DFF7000
008FF800000001AFF400
02FF90000000000CFD00
09FE100000000003FF50
0DFA000000000000CFA0
1FF60000000000009FD0
3FF40000000000007FF0
4FF30000000000006FF1
4FF30000000000006FF1
3FF40000000000007FF0
1FF60000000000009FD0
0DFA000000000000CFA0
09FE100000000003FF50
02FF90000000000BFD00
008FF700000000AFF500
000BFFC621137DFF7000
00008FFFFFFFFFE60000
0000027BDFFFF9100000
00000000001CFE400000
000000000001CFF50000
0000000000001CFF5000
00000000000001CFF600
ENDCHAR
STARTCHAR R
ENCODING 82
SWIDTH 618 0
DWIDTH 17 0
BBX 15 20 2 0
BITMAP
4FFFFFFEC9300000
4FFFFFFFFFF90000
4FF200125BFF8000
4FF1000000AFF100
4FF10000003FF400
4FF10000000FF600
4FF10000000FF500
4FF10000003FF300
4FF1000000BFC000
4FF100015CFE3000
4FFFFFFFFFC30000
4FFFFFFFFA000000
4FF10007FF200000
4FF10000CFB00000
4FF100004FF60000
4FF100000AFE1000
4FF1000001EFA000
4FF10000006FF400
4FF10000000CFD00
4FF100000003FF80
ENDCHAR
STARTCHAR S
ENCODING 83
SWIDTH 548 0
DWIDTH 15 0
BBX 13 20 1 0
BITMAP
0004ADFFEC9400
01AFFFFFFFFF50
09FFA42236AE10
1FF80000000000
4FF20000000000
4FF20000000000
1FF70000000000
0AFF6000000000
01DFFD61000000
0019FFFFA30000
000028EFFFA100
00000004BFFD10
0000000006FF90
00000000009FE0
00000000005FF0
00000000007FE0
1000000001DFA0
8C8421126DFE20
8FFFFFFFFFD300
27BDEFFDB61000
ENDCHAR
STARTCHAR T
ENCODING 84
SWIDTH 553 0
DWIDTH 15 0
BBX 16 20 0 0
BITMAP
BFFFFFFFFFFFFFF4
BFFFFFFFFFFFFFF4
1111117FE1111110
0000006FE0000000
0000006FE0000000
0000006FE0000000
0000006FE0000000
0000006FE0000000
0000006FE0000000
0000006FE0000000
0000006FE0000000
0000006FE0000000
0000006FE0000000
0000006FE0000000
0000006FE0000000
0000006FE0000000
0000006FE0000000
0000006FE0000000
0000006FE0000000
0000006FE0000000
ENDCHAR
STARTCHAR U
ENCODING 85
SWIDTH 728 0
DWIDTH 20 0
BBX 16 20 2 0
BITMAP
7FD00000000007FD
7FD00000000007FD
7FD00000000007FD
7FD00000000007FD
7FD00000000007FD
7FD00000000007FD
7FD00000000007FD
7FD00000000007FD
7FD00000000007FD
7FD00000000007FD
7FD00000000007FD
7FD00000000007FD
7FD00000000007FD
6FE00000000008FC
4FF1000000000AFA
1FF7000000001FF6
09FE30000001BFE1
01DFE831126DFF40
002CFFFFFFFFE400
00005ADEFEB61000
ENDCHAR
STARTCHAR V
ENCODING 86
SWIDTH 595 0
DWIDTH 17 0
BBX 17 20 0 0
BITMAP
CFA00000000001EF70
7FE10000000005FF20
2FF5000000000BFC00
0BFB000000001FF600
06FF100000006FF100
01FF60000000CFA000
00AFC0000002FF5000
005FF2000008FE0000
000EF700000DF90000
0009FD00003FF40000
0004FF30009FD00000
0000DF8000EF800000
00008FD004FF300000
00002FF409FC000000
00000CF80EF7000000
000007FD3FF1000000
000001FF9FB0000000
000000BFFF60000000
0000006FFE10000000
0000001EFA00000000
ENDCHAR
STARTCHAR W
ENCODING 87
SWIDTH 925 0
DWIDTH 26 0
BBX 26 20 0 0
BITMAP
7FE000000008FF400000001FF6
3FF30000000CFF800000005FF2
0EF70000002FFFD00000008FD0
0AFB0000006FBFF2000000CF90
06FE000000BF7BF7000001FF50
02FF400000EF37FC000005FF10
00DF800004FE02FF100009FC00
00AFB00009FA00DF60000DF800
006FF1000DF6008FA0001FF400
002FF4003FF1004FE0005FF100
000DF8007FC0000EF4009FB000
0009FC00BF70000AF900DF7000
0005FF11FF300005FD02FF3000
0001FF45FD000001FF35FE0000
0000CF78F9000000BF69FA0000
00008FABF50000007FACF60000
00004FDEF10000002FDEF20000
00000EFFB00000000DFFD00000
00000BFF6000000008FF900000
000007FF2000000004FF500000
ENDCHAR
STARTCHAR X
ENCODING 88
SWIDTH 577 0
DWIDTH 16 0
BBX 16 20 0 0
BITMAP
2FF7000000003FF4
07FE20000000CF90
00CFB0000007FD10
003FF500002FF400
0008FD1000BF9000
0000DF9006FE1000
00004FF31EF50000
000009FCAFA00000
000001DFFE100000
0000006FF8000000
000000DFFE100000
000007FCCFA00000
00002FF33FF40000
0000BF9009FD1000
0006FE1001EF8000
001EF500005FF300
00AFB000000BFC00
05FF20000002FF70
1DF7000000008FE2
9FD0000000001DFB
ENDCHAR
STARTCHAR Y
ENCODING 89
SWIDTH 560 0
DWIDTH 16 0
BBX 16 20 0 0
BITMAP
BFC0000000002FF6
3FF5000000009FD0
0AFD00000003FF50
02FF6000000AFC00
009FD100003FF400
001EF70000BFA000
0008FE1004FF2000
0001EF800CF90000
00006FE15FE10000
00000DF9DF800000
000005FFFE100000
000000CFF6000000
0000006FF0000000
0000005FF0000000
0000005FF0000000
0000005FF0000000
0000005FF0000000
0000005FF0000000
0000005FF0000000
0000005FF0000000
ENDCHAR
STARTCHAR Z
ENCODING 90
SWIDTH 570 0
DWIDTH 16 0
BBX 14 20 1 0
BITMAP
8FFFFFFFFFFFF8
8FFFFFFFFFFFF8
11111111119FE2
0000000003FF70
000000000CFC00
000000008FF200
00000003FF7000
0000000CFC0000
0000007FF30000
000003FF700000
00000CFC000000
00007FF3000000
0002FF80000000
000CFC00000000
007FF300000000
02EF8000000000
0BFD0000000000
6FF52222222221
DFFFFFFFFFFFFD
DFFFFFFFFFFFFD
ENDCHAR
STARTCHAR bracketleft
ENCODING 91
SWIDTH 329 0
DWIDTH 9 0
BBX 7 24 2 -4
BITMAP
BFFFFF80
BFFEEE70
BF800000
BF800000
BF800000
BF800000
BF800000
BF800000
BF800000
BF800000
BF800000
BF800000
BF800000
BF800000
BF800000
BF800000
BF800000
BF800000
BF800000
BF800000
BF800000
BF800000
BFFEEE70
BFFFFF80
ENDCHAR
STARTCHAR backslash
ENCODING 92
SWIDTH 367 0
DWIDTH 10 0
BBX 10 20 0 0
BITMAP
8FB0000000
2FF2000000
0BF7000000
06FD000000
01EF300000
00AF900000
004FE00000
000DF50000
0008FB0000
0002FF2000
0000CF7000
00006FD000
00001FF300
00000AF900
000004FE00
000000EF50
0000008FB0
0000003FF1
0000000CF7
00000007FC
ENDCHAR
STARTCHAR bracketright
ENCODING 93
SWIDTH 329 0
DWIDTH 9 0
BBX 7 24 0 -4
BITMAP
4FFFFFE0
4EEEEFE0
00005FE0
00005FE0
00005FE0
00005FE0
00005FE0
00005FE0
00005FE0
00005FE0
00005FE0
00005FE0
00005FE0
00005FE0
00005FE0
00005FE0
00005FE0
00005FE0
00005FE0
00005FE0
00005FE0
00005FE0
4EEEFFE0
4FFFFFE0
ENDCHAR
STARTCHAR asciicircum
ENCODING 94
SWIDTH 541 0
DWIDTH 15 0
BBX 15 12 0 8
BITMAP
000000AF40000000
000002FFC0000000
000009FBF5000000
00002FB1ED000000
00009F408F600000
0002FC001EE10000
0009F50007F70000
002FD00001EE1000
009F6000007F9000
02FD0000000DF200
09F700000006FA00
2FE100000000DF30
ENDCHAR
STARTCHAR underscore
ENCODING 95
SWIDTH 448 0
DWIDTH 13 0
BBX 14 2 -1 -5
BITMAP
1FFFFFFFFFFFF9
1CCCCCCCCCCCC7
ENDCHAR
STARTCHAR grave
ENCODING 96
SWIDTH 577 0
DWIDTH 16 0
BBX 6 4 5 17
BITMAP
6FF700
08FE20
008FB0
0006F8
ENDCHAR
STARTCHAR a
ENCODING 97
SWIDTH 556 0
DWIDTH 16 0
BBX 13 15 1 0
BITMAP
0005ADEFDA3000
00CFFFEEFFF400
008A51003CFD00
0000000003FF20
0000000000FF40
0000000000EF40
00048BDEEFFF40
03DFFECBAAFF40
2EFC400000FF40
8FE1000000FF40
AFB0000004FF40
AFC000000BFF40
6FF80003BFFF40
0BFFFEEFF6BF40
007CFFDA307F40
ENDCHAR
STARTCHAR b
ENCODING 98
SWIDTH 612 0
DWIDTH 17 0
BBX 14 21 2 0
BITMAP
9FA00000000000
9FA00000000000
9FA00000000000
9FA00000000000
9FA00000000000
9FA00000000000
9FA05BEFDA3000
9F9AFFEEFFF700
9FFF820029FF50
9FF8000000AFD0
9FF10000003FF3
9FC00000000EF6
9FB00000000CF8
9FA00000000BF9
9FB00000000CF8
9FD00000000EF6
9FF10000003FF3
9FF8000000BFD0
9FFF82002AFF40
9F6AFFEEFFF700
9F205BEFDA3000
ENDCHAR
STARTCHAR c
ENCODING 99
SWIDTH 476 0
DWIDTH 13 0
BBX 12 15 1 0
BITMAP
00017BEFDC82
003DFFFFFFF2
01EFD6212580
09FE20000000
0EF700000000
3FF200000000
5FF000000000
6FE000000000
5FF000000000
4FF200000000
1FF600000000
0AFE10000000
02EFD5102492
003EFFFFFFF3
00017CEFEC71
ENDCHAR
STARTCHAR d
ENCODING 100
SWIDTH 612 0
DWIDTH 17 0
BBX 14 21 1 0
BITMAP
000000000008FB
000000000008FB
000000000008FB
000000000008FB
000000000008FB
000000000008FB
00029DFEC607FB
005FFFEEFFC7FB
02FFC30017FFFB
0AFD1000006FFB
1FF60000000EFB
4FF20000000AFB
5FF000000009FB
6FE000000008FB
6FF000000008FB
4FF10000000AFB
1FF50000000DFB
0BFC0000005FFB
03FFB30016EEFB
005FFFEEFFC5FB
00029DFEC602FB
ENDCHAR
STARTCHAR e
ENCODING 101
SWIDTH 561 0
DWIDTH 16 0
BBX 14 15 1 0
BITMAP
00017CEFD92000
002DFFEEFFE500
01DFC3002AFE30
08FD100000DFA0
0EF50000006FF0
3FF20000004FF3
5FFFFFFFFFFFF4
6FFDDDDDDDDDD3
5FF00000000000
4FF20000000000
0EF70000000000
09FE3000000000
01DFE720025980
002CFFFFFFFF90
00006BEFFDB710
ENDCHAR
STARTCHAR f
ENCODING 102
SWIDTH 338 0
DWIDTH 9 0
BBX 11 21 0 0
BITMAP
000018DFEC50
0000CFFEEF50
0007FE400210
000BF9000000
000DF6000000
000EF5000000
38CFFEEEE200
8DDFFDDDD200
000EF5000000
000EF5000000
000EF5000000
000EF5000000
000EF5000000
000EF5000000
000EF5000000
000EF5000000
000EF5000000
000EF5000000
000EF5000000
000EF5000000
000EF5000000
ENDCHAR
STARTCHAR g
ENCODING 103
SWIDTH 547 0
DWIDTH 15 0
BBX 15 22 0 -7
BITMAP
00017CEFFFFFFFA0
001DFFCBDFFFA950
00AFD20005FF5000
01FF400000AFA000
04FF1000007FD000
04FF0000006FC000
02FF3000009FA000
00BFC10004FF3000
002DFEB9CFF70000
0002EFEFDA300000
001CE40000000000
006F900000000000
006FC20000000000
001DFFFFFFEB6000
004BFFFFFFFFF900
07FD51000138FF30
2FE200000000DF70
6FC000000000BF60
6FD000000002FF30
2FF81000016EFB00
05FFFDBBDFFFA100
0028CEFFEB830000
ENDCHAR
STARTCHAR h
ENCODING 104
SWIDTH 613 0
DWIDTH 17 0
BBX 13 21 2 0
BITMAP
9FA00000000000
9FA00000000000
9FA00000000000
9FA00000000000
9FA00000000000
9FA00000000000
9FA04AEFEB6000
9F99FFEEFFFA00
9FEF920029FF60
9FF8000000CFB0
9FF10000007FD0
9FC00000005FE0
9FB00000005FE0
9FA00000005FE0
9FA00000005FE0
9FA00000005FE0
9FA00000005FE0
9FA00000005FE0
9FA00000005FE0
9FA00000005FE0
9FA00000005FE0
ENDCHAR
STARTCHAR i
ENCODING 105
SWIDTH 252 0
DWIDTH 7 0
BBX 3 21 2 0
BITMAP
7F80
BFD0
6E70
0000
0000
0000
9FA0
9FA0
9FA0
9FA0
9FA0
9FA0
9FA0
9FA0
9FA0
9FA0
9FA0
9FA0
9FA0
9FA0
9FA0
ENDCHAR
STARTCHAR j
ENCODING 106
SWIDTH 252 0
DWIDTH 7 0
BBX 7 28 -2 -7
BITMAP
00007F80
0000BFD0
00006E70
00000000
00000000
00000000
00009FA0
00009FA0
00009FA0
00009FA0
00009FA0
00009FA0
00009FA0
00009FA0
00009FA0
00009FA0
00009FA0
00009FA0
00009FA0
00009FA0
00009FA0
00009FA0
00009FA0
00009FA0
0000BF90
1004FF60
8FEFFD10
6EFEA200
ENDCHAR
STARTCHAR k
ENCODING 107
SWIDTH 524 0
DWIDTH 15 0
BBX 13 21 2 0
BITMAP
9FA00000000000
9FA00000000000
9FA00000000000
9FA00000000000
9FA00000000000
9FA00000000000
9FA000003EF700
9FA00003EF8000
9FA0002EF90000
9FA002DFA00000
9FA01DFA000000
9FA0CFB0000000
9F9AFF20000000
9FDFFFB0000000
9FFB5FF7000000
9FB008FF400000
9FA000BFE10000
9FA0001EFB0000
9FA00004FF8000
9FA000007FF400
9FA000000BFE10
ENDCHAR
STARTCHAR l
ENCODING 108
SWIDTH 252 0
DWIDTH 7 0
BBX 3 21 2 0
BITMAP
9FA0
9FA0
9FA0
9FA0
9FA0
9FA0
9FA0
9FA0
9FA0
9FA0
9FA0
9FA0
9FA0
9FA0
9FA0
9FA0
9FA0
9FA0
9FA0
9FA0
9FA0
ENDCHAR
STARTCHAR m
ENCODING 109
SWIDTH 930 0
DWIDTH 26 0
BBX 22 15 2 0
BITMAP
9F506CEFD93003ADFEC600
9F9BFFEFFFF47FFFEFFFA0
9FFF71015EFEFC4002AFF4
9FF7000007FFE100000DF9
9FF1000002FF80000009FB
9FC0000001FF50000008FC
9FB0000001FF30000008FC
9FA0000001FF30000008FC
9FA0000001FF30000008FC
9FA0000001FF30000008FC
9FA0000001FF30000008FC
9FA0000001FF30000008FC
9FA0000001FF30000008FC
9FA0000001FF30000008FC
9FA0000001FF30000008FC
ENDCHAR
STARTCHAR n
ENCODING 110
SWIDTH 613 0
DWIDTH 17 0
BBX 13 15 2 0
BITMAP
9F504AEFEB6000
9F78FFFEFFFB00
9FEF920029FF60
9FF8000000CFB0
9FF10000007FD0
9FC00000005FE0
9FB00000005FE0
9FA00000005FE0
9FA00000005FE0
9FA00000005FE0
9FA00000005FE0
9FA00000005FE0
9FA00000005FE0
9FA00000005FE0
9FA00000005FE0
ENDCHAR
STARTCHAR o
ENCODING 111
SWIDTH 604 0
DWIDTH 17 0
BBX 15 15 1 0
BITMAP
00006BEFEB600000
002DFFFEFFFC1000
01DFD40015EFC000
09FD1000002EF700
0EF600000008FD00
3FF200000003FF20
5FF000000001FF40
6FE000000000FF50
5FF000000001FF40
3FF200000003FF20
0EF600000008FE00
08FE1000002EF700
01DFD40005DFD100
002CFFFEFFFC2000
00006BDFEB600000
ENDCHAR
STARTCHAR p
ENCODING 112
SWIDTH 612 0
DWIDTH 17 0
BBX 14 22 2 -7
BITMAP
9F505BEFDA3000
9F79FFEEFFF700
9FEF82003BFF50
9FF7000000CFD0
9FF10000004FF3
9FC00000000EF6
9FB00000000CF8
9FA00000000BF9
9FB00000000CF8
9FD00000000EF6
9FF10000004FF3
9FF8000000CFD0
9FFF82003BFF40
9F9AFFEEFFF700
9F905BEFDA3000
9FA00000000000
9FA00000000000
9FA00000000000
9FA00000000000
9FA00000000000
9FA00000000000
9FA00000000000
ENDCHAR
STARTCHAR q
ENCODING 113
SWIDTH 612 0
DWIDTH 17 0
BBX 14 22 1 -7
BITMAP
00029DFEB602FB
004FFFEEFFB4FB
02EFC30018FEFB
0AFD1000007FFB
1FF60000000EFB
4FF20000000AFB
5FF000000009FB
6FE000000008FB
5FF000000008FB
4FF20000000AFB
1FF60000000DFB
0AFD1000005FFB
03FFB30016EEFB
005FFFEEFFB7FB
00029DFEB607FB
000000000008FB
000000000008FB
000000000008FB
000000000008FB
000000000008FB
000000000008FB
000000000008FB
ENDCHAR
STARTCHAR r
ENCODING 114
SWIDTH 408 0
DWIDTH 11 0
BBX 9 15 2 0
BITMAP
9F5029DFD0
9F63EFFFD0
9F9EE62220
9FFD200000
9FF4000000
9FD0000000
9FB0000000
9FA0000000
9FA0000000
9FA0000000
9FA0000000
9FA0000000
9FA0000000
9FA0000000
9FA0000000
ENDCHAR
STARTCHAR s
ENCODING 115
SWIDTH 477 0
DWIDTH 13 0
BBX 11 15 1 0
BITMAP
004ADFEDB620
09FFFEFFFF80
4FF610026A20
8FA000000000
7FC000000000
2EFC40000000
04EFFD720000
0017DFFFA200
000004AFFE30
00000002DFC0
000000004FF0
000000004FF0
7A410004DFA0
8FFFEEFFFD20
17BEFFEB6000
ENDCHAR
STARTCHAR t
ENCODING 116
SWIDTH 353 0
DWIDTH 10 0
BBX 10 18 0 0
BITMAP
000AD00000
000ED00000
004FD00000
3AFFFFFFF3
7CDFECCCC2
006FD00000
006FD00000
006FD00000
006FD00000
006FD00000
006FD00000
006FD00000
006FD00000
006FD00000
005FF10000
002FFA1001
0009FFFEF4
00007DFEC3
ENDCHAR
STARTCHAR u
ENCODING 117
SWIDTH 613 0
DWIDTH 17 0
BBX 13 15 2 0
BITMAP
BF800000007FC0
BF800000007FC0
BF800000007FC0
BF800000007FC0
BF800000007FC0
BF800000007FC0
BF800000007FC0
BF800000007FC0
BF800000008FC0
BF80000000AFC0
AFA0000000DFC0
8FE1000005FFC0
3FFB20017FEFC0
08FFFFEFFB5FC0
005BEFEB603FC0
ENDCHAR
STARTCHAR v
ENCODING 118
SWIDTH 500 0
DWIDTH 14 0
BBX 14 15 0 0
BITMAP
CF9000000009FD
6FE00000000EF7
1FF50000005FF1
0AFB000000AFB0
04FF100001FF50
00EF600006FE00
008FC0000BF800
002FF2002FF300
000CF8007FC000
0006FD00DF6000
0001EF33FF1000
0000AF88FA0000
00004FCCF40000
00000DFFE00000
000008FF800000
ENDCHAR
STARTCHAR w
ENCODING 119
SWIDTH 777 0
DWIDTH 22 0
BBX 22 15 0 0
BITMAP
8FC0000007FF5000001FF5
4FF100000CFF9000004FF1
1FF500002FDFE000008FC0
0BF900006F9DF40000CF80
07FD0000BF59F80001FF40
03FF1001FF15FD0005FE00
00EF5006FC01FF3008FA00
00AF900AF700BF700CF600
006FD01FF2006FC01FF200
001FF25FC0001FF25FD000
000CF59F70000CF69F9000
0008F9DF200007FACF5000
0004FDFD000002FDFF1000
0001FFF8000000DFFB0000
0000BFF30000008FF70000
ENDCHAR
STARTCHAR x
ENCODING 120
SWIDTH 523 0
DWIDTH 15 0
BBX 14 15 0 0
BITMAP
0CFB0000002EF7
02EF600000BFB0
006FE20006FE20
000BFC002EF500
0001EF70CFA000
00004FFAFD1000
000009FFF30000
000003FFC00000
00000CFFF70000
00008FD5FF3000
0004FF409FD100
001DF8001DF900
00AFC00003FF50
06FF3000007FE2
2EF70000000CFB
ENDCHAR
STARTCHAR y
ENCODING 121
SWIDTH 503 0
DWIDTH 14 0
BBX 14 22 0 -7
BITMAP
CFA000000008FD
6FF10000000DF8
1EF60000004FF2
09FC0000009FC0
03FF300000EF60
00CF800005FF10
006FE0000AFA00
001EF5001EF400
0009FA006FE000
0003FF10BF8000
0000CF61FF3000
00006FB6FC0000
00001EEBF60000
000009FFF10000
000003FFA00000
000001FF500000
000006FE000000
00000CF8000000
00005FF2000000
0005EF90000000
CEFFFC10000000
AEFD7000000000
ENDCHAR
STARTCHAR z
ENCODING 122
SWIDTH 467 0
DWIDTH 13 0
BBX 11 15 1 0
BITMAP
6FFFFFFFFFC0
4CCCCCCCEFB0
00000003FF40
0000001DF800
0000009FC000
000005FF3000
00001EF70000
0000BFB00000
0006FE200000
002EF5000000
00CFA0000000
08FD10000000
3FF400000000
CFECCCCCCCB0
DFFFFFFFFFF0
ENDCHAR
STARTCHAR braceleft
ENCODING 123
SWIDTH 378 0
DWIDTH 11 0
BBX 10 24 0 -4
BITMAP
0000005BE9
00000AFFF9
00006FF810
0000AFB000
0000CF8000
0000CF8000
0000CF8000
0000CF8000
0000CF7000
0001EF5000
003BFD0000
2FFE910000
2FFE910000
003BFD0000
0001FF5000
0000CF7000
0000CF8000
0000CF8000
0000CF8000
0000CF8000
0000BFB000
00006FF710
00000AFFF9
0000005BE9
ENDCHAR
STARTCHAR bar
ENCODING 124
SWIDTH 550 0
DWIDTH 15 0
BBX 3 28 6 -7
BITMAP
4FA0
4FA0
4FA0
4FA0
4FA0
4FA0
4FA0
4FA0
4FA0
4FA0
4FA0
4FA0
4FA0
4FA0
4FA0
4FA0
4FA0
4FA0
4FA0
4FA0
4FA0
4FA0
4FA0
4FA0
4FA0
4FA0
4FA0
4FA0
ENDCHAR
STARTCHAR braceright
ENCODING 125
SWIDTH 378 0
DWIDTH 11 0
BBX 9 24 1 -4
BITMAP
FD92000000
EFFE400000
03CFE10000
002FF40000
000EF60000
000EF60000
000EF60000
000EF60000
000DF60000
000BF90000
0005FF7100
00004BFFB0
00005BFFC0
0005FF7200
000BF90000
000DF60000
000EF60000
000EF60000
000EF60000
000EF60000
002FF40000
02BFE10000
EFFF500000
FD92000000
ENDCHAR
STARTCHAR asciitilde
ENCODING 126
SWIDTH 571 0
DWIDTH 16 0
BBX 14 4 1 8
BITMAP
04CEDB50000016
5FFEFFFD6104D8
9D4016DFFFEFF5
61000005BEEC40
ENDCHAR
STARTCHAR nonbreakingspace
ENCODING 160
SWIDTH 259 0
DWIDTH 7 0
BBX 1 1 0 0
BITMAP
00
ENDCHAR
STARTCHAR exclamdown
ENCODING 161
SWIDTH 267 0
DWIDTH 7 0
BBX 4 20 2 -5
BITMAP
6EC1
DFF5
CFF4
3A70
0000
0000
0F70
1F70
2F80
3F90
3FA0
4FA0
5FB0
6FC0
6FD0
7FD0
8FE0
9FF0
9FF1
AFF1
ENDCHAR
STARTCHAR cent
ENCODING 162
SWIDTH 571 0
DWIDTH 16 0
BBX 12 20 2 0
BITMAP
000000FD0000
000000FD0000
00017CFFEC82
004EFFFFFFF4
02EFD6212590
0AFE20000000
1FF700000000
3FF200000000
5FF000000000
6FF000000000
5FF000000000
4FF200000000
1FF600000000
0BFD10000000
03FFD5112493
005EFFFFFFF4
00028CFFEC71
000000FC0000
000000FC0000
000000FC0000
ENDCHAR
STARTCHAR sterling
ENCODING 163
SWIDTH 571 0
DWIDTH 16 0
BBX 15 20 0 0
BITMAP
0000017CEFEC8200
00001DFFFEFFFF10
0000BFE510049900
0002FF5000000000
0004FF1000000000
0005FF0000000000
0005FF0000000000
0005FF0000000000
0005FF0000000000
1FFFFFFFFFFB0000
0BBCFFBBBBB80000
0005FF0000000000
0005FF0000000000
0005FF0000000000
0006FE0000000000
0008FB0000000000
001EF50000000000
04CFA22222222220
2FFFFFFFFFFFFFE0
2FFFFFFFFFFFFFE0
ENDCHAR
STARTCHAR currency
ENCODING 164
SWIDTH 571 0
DWIDTH 16 0
BBX 14 13 1 3
BITMAP
05500000000550
1EF55BEEB55FE1
05FFFFCCFFFF50
00AFB1001AFA00
01FD000000CF10
06F60000006F60
07F50000004F70
06F60000006F60
02FC000000CF20
00AFA1001AFA00
04FFFFCCFFFE40
1EF55BEEB56FE1
06500000000660
ENDCHAR
STARTCHAR yen
ENCODING 165
SWIDTH 571 0
DWIDTH 16 0
BBX 16 20 0 0
BITMAP
5FF2000000002FF4
0CF9000000009FC0
05FF20000002FF40
00CF90000009FB00
004FF200002FF300
000CF900009FB000
0004FF1002FF3000
0000BF8009FA0000
00003FE12FF20000
00000BF89FA00000
000003FEFF200000
007FFFFFFFFFF700
005BBBCFFCBBB500
0000002FF2000000
0000002FF2000000
007FFFFFFFFFF700
005BBBCFFBBBB500
0000002FF2000000
0000002FF2000000
0000002FF2000000
ENDCHAR
STARTCHAR brokenbar
ENCODING 166
SWIDTH 550 0
DWIDTH 15 0
BBX 3 28 6 -7
BITMAP
4FA0
4FA0
4FA0
4FA0
4FA0
4FA0
4FA0
4FA0
4FA0
4FA0
4FA0
0000
0000
0000
0000
0000
0000
4FA0
4FA0
4FA0
4FA0
4FA0
4FA0
4FA0
4FA0
4FA0
4FA0
4FA0
ENDCHAR
STARTCHAR section
ENCODING 167
SWIDTH 516 0
DWIDTH 14 0
BBX 12 21 1 0
BITMAP
0029CEFECA51
04EFFDDEFFF1
0DFA10001570
0FF400000000
0DFA10000000
04FFE7100000
004FFFFB4000
02DF99EFFB20
0BF60005DFD1
0FE000001DF6
1FF1000008F8
0CFB10000AF6
03EFE8204FE1
002AFFFCFE40
000028DFFD30
00000005DFE1
000000001EF6
000000000CF7
494000017FF3
5FFFDCDFFF70
17BDEFEC9300
ENDCHAR
STARTCHAR dieresis
ENCODING 168
SWIDTH 577 0
DWIDTH 16 0
BBX 8 3 4 18
BITMAP
7E6004E8
BFA008FD
6E6004E8
ENDCHAR
STARTCHAR copyright
ENCODING 169
SWIDTH 832 0
DWIDTH 23 0
BBX 21 20 1 0
BITMAP
00000028BEFEC940000000
00001AFEB877ADFC300000
0003EE710000005DF70000
003EC20000000001AF7000
01DD10006CEED9200AF300
08F3000BFFCCEF4001DC00
0E90008FD2000400004F40
4F3001EF40000000000D90
7E0004FD00000000000AC0
9C0006FB000000000008E0
9C0006FA000000000008E0
7E0004FC00000000000AC0
4F3001FF20000000000D90
0E90009FC1000300004F40
08F3001CFFCCEF1001DC00
01DD10017CEFD8000AF400
003EC20000000001AF7000
0003EE710000005DF70000
00001AFEB877ADFC300000
00000028CEFEC940000000
ENDCHAR
STARTCHAR ordfeminine
ENCODING 170
SWIDTH 354 0
DWIDTH 10 0
BBX 8 9 1 11
BITMAP
29DEEC40
2E967DF3
000004F7
000001F8
17BDEFF8
BF9544F8
FB0005F8
DE768EF8
3CEEA3D8
ENDCHAR
STARTCHAR guillemotleft
ENCODING 171
SWIDTH 497 0
DWIDTH 14 0
BBX 12 11 1 2
BITMAP
0000991004C4
0008FD103EF5
006FE202DF70
04FE301CF900
3EF500BFB000
CFA006FF2000
3EF500BFB000
04FF301CF900
006FE202DF70
0008FD103EF5
0000991004C4
ENDCHAR
STARTCHAR logicalnot
ENCODING 172
SWIDTH 571 0
DWIDTH 16 0
BBX 14 7 1 4
BITMAP
9FFFFFFFFFFFF8
8DDDDDDDDDDEF8
000000000005F8
000000000005F8
000000000005F8
000000000005F8
000000000005F8
ENDCHAR
STARTCHAR uni00AD
ENCODING 173
SWIDTH 321 0
DWIDTH 9 0
BBX 7 3 1 6
BITMAP
DFFFFFD0
DFFFFFD0
11111110
ENDCHAR
STARTCHAR registered
ENCODING 174
SWIDTH 832 0
DWIDTH 23 0
BBX 21 20 1 0
BITMAP
00000028BEFEC940000000
00001AFEB877ADFC300000
0003EE710000005DF70000
003EC20000000001AF7000
01DD102FFFFEB4000AF300
08F3002FFBBEFF3001DC00
0E90002FD000AFA0004F40
4F30002FD0004FC0000D90
7E00002FD0006FB0000AC0
9C00002FD004EF600008E0
9C00002FFFFFF8000008E0
7E00002FFABFD000000AC0
4F30002FD00BF800000D90
0E90002FD002EF30004F40
08F3002FD0006FC001DC00
01DD102FD0000BF80AF400
003EC20000000001AF7000
0003EE710000005DF70000
00001AFEB877ADFC300000
00000028CEFEC940000000
ENDCHAR
STARTCHAR overscore
ENCODING 175
SWIDTH 500 0
DWIDTH 14 0
BBX 16 2 -1 21
BITMAP
1FFFFFFFFFFFFFF1
1BBBBBBBBBBBBBB1
ENDCHAR
STARTCHAR degree
ENCODING 176
SWIDTH 428 0
DWIDTH 12 0
BBX 10 9 1 11
BITMAP
003BEEA200
03EEAAEE30
0CE3002EC0
2F800008F2
4F500005F3
2F800008F2
0CE2002EC0
03EEAAEE30
003BEEA200
ENDCHAR
STARTCHAR plusminus
ENCODING 177
SWIDTH 571 0
DWIDTH 16 0
BBX 14 17 1 0
BITMAP
000000DC000000
000000FE000000
000000FE000000
000000FE000000
000000FE000000
000000FE000000
9FFFFFFFFFFFF8
8DDDDDFFDDDDD8
000000FE000000
000000FE000000
000000FE000000
000000FE000000
000000FE000000
000000AA000000
00000000000000
9FFFFFFFFFFFF8
8DDDDDDDDDDDD8
ENDCHAR
STARTCHAR twosuperior
ENCODING 178
SWIDTH 347 0
DWIDTH 10 0
BBX 9 12 0 8
BITMAP
018DFDA200
0DFB8AFE10
0530008F60
0000005F70
0000008F40
000003EB00
00002ED100
0002ED2000
003EC10000
03EC100000
3EFA999990
5FFFFFFFE0
ENDCHAR
STARTCHAR threesuperior
ENCODING 179
SWIDTH 347 0
DWIDTH 10 0
BBX 9 12 0 8
BITMAP
04AEFDA300
4FEA8AFF30
0610008F80
0000006F70
000014EE20
00BFFFE300
00578AFD30
0000004FB0
0000000FD0
3100005FB0
8FB98BFE30
39DEFDA300
ENDCHAR
STARTCHAR acute
ENCODING 180
SWIDTH 577 0
DWIDTH 16 0
BBX 6 4 5 17
BITMAP
005FF8
01DF90
0AF900
6F8000
ENDCHAR
STARTCHAR mu
ENCODING 181
SWIDTH 619 0
DWIDTH 17 0
BBX 13 22 2 -7
BITMAP
9FA00000005FE0
9FA00000005FE0
9FA00000005FE0
9FA00000005FE0
9FA00000005FE0
9FA00000005FE0
9FA00000005FE0
9FA00000005FE0
9FA00000006FE0
9FA00000007FE0
9FC0000000BFE0
9FF2000004FFE0
9FFC30016EFFE0
9FEFFFEFFE5FE0
9F95CFEC810FE0
9FA00000000000
9FA00000000000
9FA00000000000
9FA00000000000
9FA00000000000
9FA00000000000
9FA00000000000
ENDCHAR
STARTCHAR paragraph
ENCODING 182
SWIDTH 654 0
DWIDTH 18 0
BBX 15 26 1 -4
BITMAP
0004AEFFFFFFFF50
009FFFFFFE669F50
05FFFFFFFD004F50
0CFFFFFFFD004F50
2FFFFFFFFD004F50
5FFFFFFFFD004F50
6FFFFFFFFD004F50
7FFFFFFFFD004F50
6FFFFFFFFD004F50
5FFFFFFFFD004F50
2FFFFFFFFD004F50
0DFFFFFFFD004F50
07FFFFFFFD004F50
00BFFFFFFD004F50
0006CEFDED004F50
00000000BD004F50
00000000BD004F50
00000000BD004F50
00000000BD004F50
00000000BD004F50
00000000BD004F50
00000000BD004F50
00000000BD004F50
00000000BD004F50
00000000BD004F50
00000000BD004F50
ENDCHAR
STARTCHAR periodcentered
ENCODING 183
SWIDTH 266 0
DWIDTH 7 0
BBX 4 4 2 8
BITMAP
6EC1
DFF5
CFF4
3A70
ENDCHAR
STARTCHAR cedilla
ENCODING 184
SWIDTH 227 0
DWIDTH 6 0
BBX 6 7 0 -7
BITMAP
007F10
00DA00
04FEA2
0017FB
0000EE
488BFA
7FFD80
ENDCHAR
STARTCHAR onesuperior
ENCODING 185
SWIDTH 347 0
DWIDTH 10 0
BBX 6 12 1 8
BITMAP
003DF9
07FEF9
AFC4F9
5903F9
0004F9
0004F9
0004F9
0004F9
0004F9
0004F9
0004F9
0004F9
ENDCHAR
STARTCHAR ordmasculine
ENCODING 186
SWIDTH 375 0
DWIDTH 11 0
BBX 10 9 0 11
BITMAP
003AEFD700
03FD87AFA0
0BE10008F4
0FA00003F8
1F900001F9
0FB00003F7
0BE20008F3
03ED87AFA0
003AEFD700
ENDCHAR
STARTCHAR guillemotright
ENCODING 187
SWIDTH 497 0
DWIDTH 14 0
BBX 12 11 1 2
BITMAP
5C3002A80000
6FD202DF6000
08FC103EF500
00AFB004FE30
001CFA006FE2
0003FF400CFB
001CFA007FE2
00AFB005FE30
08FC103EF500
6FD202DF6000
5C3002A80000
ENDCHAR
STARTCHAR onequarter
ENCODING 188
SWIDTH 779 0
DWIDTH 22 0
BBX 20 20 1 0
BITMAP
003DF8000000008F7000
07FEF800000002FC0000
AFC4F80000000BF30000
6904F80000005F900000
0004F8000001EE100000
0004F8000009F5000000
0004F800003FB0000000
0004F80000CF20000000
0004F80007F80009FA00
0004F8002ED0004FFA00
0004F800AF4001DDFA00
0004F804FA000AE6FA00
0000001DE1005F55FA00
0000008F6001EA05FA00
000003FC000AE205FA00
00000BF3006F6005FA00
00006F9000CFFFFFFFF5
0001ED100079999BFD93
0009F50000000005FA00
004FB00000000005FA00
ENDCHAR
STARTCHAR onehalf
ENCODING 189
SWIDTH 779 0
DWIDTH 22 0
BBX 21 20 0 0
BITMAP
0007FF300000007F800000
01BFEF30000002ED000000
2EF79F3000000AF4000000
0A409F3000004FA0000000
0000AF300001DE10000000
0000AF300008F600000000
0000AF30003FC000000000
0000AF3000BF3000000000
0000AF3006F904AEEC6000
0000AF301ED15FE98DF900
0000AF309F50171001EE00
0000AF34FB00000000CF10
0000000DE200000001EC00
0000007F7000000009F500
000002ED000000007F8000
00000BF400000008F80000
00005F900000008F700000
0001DE10000009F6000000
0008F60000009FD9999950
003FC0000000CFFFFFFF70
ENDCHAR
STARTCHAR threequarters
ENCODING 190
SWIDTH 779 0
DWIDTH 22 0
BBX 22 20 0 0
BITMAP
04AEFD92000000004FA000
5FEA8BFE20000000DE2000
0610009F60000007F70000
0000008F6000002FC00000
000015EE100000BF300000
00CFFFD2000005F9000000
00678BFD20001EE1000000
0000006FA0009F60000000
0000002FC003FB0007FB00
3100007FA00CF2003FFB00
AFB98BFE207F8000DDFB00
39DEFD9202ED1008E5FB00
000000000AF4004F64FB00
000000004FA001DC04FB00
00000001DE2009F204FB00
00000008F7004F7004FB00
0000002FC000BFFFFFFFF7
000000BF300079999AFD94
000006F90000000004FB00
00001EE10000000004FB00
ENDCHAR
STARTCHAR questiondown
ENCODING 191
SWIDTH 429 0
DWIDTH 12 0
BBX 12 20 0 -5
BITMAP
000002DE4000
000008FFA000
000007FF9000
000001892000
000000000000
000000000000
000000BF1000
000000DF0000
000004FC0000
00003EF50000
0005EF700000
006FF6000000
05FE40000000
0DF600000000
3FF000000000
4FE000000000
2FF300000000
0CFD510249E2
03EFFFFFFFF7
0018CEFEB830
ENDCHAR
STARTCHAR Agrave
ENCODING 192
SWIDTH 632 0
DWIDTH 18 0
BBX 18 26 0 0
BITMAP
00004FF90000000000
000006FF3000000000
0000006FD100000000
00000004EB00000000
000000000000000000
000000000000000000
00000004FF10000000
0000000AFF70000000
0000001FEFD0000000
0000007F9EF3000000
000000DF59F9000000
000004FF14FE100000
00000AFA00EF600000
00001FF4008FC00000
00007FE0003FF30000
0000DF80000CF90000
0004FF300007FE1000
000AFC000002FF6000
001FFFFFFFFFFFC000
006FFFFFFFFFFFF200
00CFA11111112EF800
03FF3000000009FE00
09FC0000000002FF50
1EF60000000000BFB0
6FE100000000005FF2
CF9000000000000DF8
ENDCHAR
STARTCHAR Aacute
ENCODING 193
SWIDTH 632 0
DWIDTH 18 0
BBX 18 26 0 0
BITMAP
0000000008FF500000
000000003FF7000000
00000001CF70000000
00000009E500000000
000000000000000000
000000000000000000
00000004FF10000000
0000000AFF70000000
0000001FEFD0000000
0000007F9EF3000000
000000DF59F9000000
000004FF14FE100000
00000AFA00EF600000
00001FF4008FC00000
00007FE0003FF30000
0000DF80000CF90000
0004FF300007FE1000
000AFC000002FF6000
001FFFFFFFFFFFC000
006FFFFFFFFFFFF200
00CFA11111112EF800
03FF3000000009FE00
09FC0000000002FF50
1EF60000000000BFB0
6FE100000000005FF2
CF9000000000000DF8
ENDCHAR
STARTCHAR Acircumflex
ENCODING 194
SWIDTH 632 0
DWIDTH 18 0
BBX 18 26 0 0
BITMAP
0000000BFF40000000
0000009FFFE2000000
000009FC28FE300000
00009F80004DE20000
000000000000000000
000000000000000000
00000004FF10000000
0000000AFF70000000
0000001FEFD0000000
0000007F9EF3000000
000000DF59F9000000
000004FF14FE100000
00000AFA00EF600000
00001FF4008FC00000
00007FE0003FF30000
0000DF80000CF90000
0004FF300007FE1000
000AFC000002FF6000
001FFFFFFFFFFFC000
006FFFFFFFFFFFF200
00CFA11111112EF800
03FF3000000009FE00
09FC0000000002FF50
1EF60000000000BFB0
6FE100000000005FF2
CF9000000000000DF8
ENDCHAR
STARTCHAR Atilde
ENCODING 195
SWIDTH 632 0
DWIDTH 18 0
BBX 18 26 0 0
BITMAP
00001AFC4000AB0000
00009FEFF912E80000
0001F803DFEFF20000
0003F20018ED500000
000000000000000000
000000000000000000
00000004FF10000000
0000000AFF70000000
0000001FEFD0000000
0000007F9EF3000000
000000DF59F9000000
000004FF14FE100000
00000AFA00EF600000
00001FF4008FC00000
00007FE0003FF30000
0000DF80000CF90000
0004FF300007FE1000
000AFC000002FF6000
001FFFFFFFFFFFC000
006FFFFFFFFFFFF200
00CFA11111112EF800
03FF3000000009FE00
09FC0000000002FF50
1EF60000000000BFB0
6FE100000000005FF2
CF9000000000000DF8
ENDCHAR
STARTCHAR Adieresis
ENCODING 196
SWIDTH 632 0
DWIDTH 18 0
BBX 18 26 0 0
BITMAP
00000AE3007E500000
00000FF700CFA00000
00000AE3007E500000
000000000000000000
000000000000000000
000000000000000000
00000004FF10000000
0000000AFF70000000
0000001FEFD0000000
0000007F9EF3000000
000000DF59F9000000
000004FF14FE100000
00000AFA00EF600000
00001FF4008FC00000
00007FE0003FF30000
0000DF80000CF90000
0004FF300007FE1000
000AFC000002FF6000
001FFFFFFFFFFFC000
006FFFFFFFFFFFF200
00CFA11111112EF800
03FF3000000009FE00
09FC0000000002FF50
1EF60000000000BFB0
6FE100000000005FF2
CF9000000000000DF8
ENDCHAR
STARTCHAR Aring
ENCODING 197
SWIDTH 632 0
DWIDTH 18 0
BBX 18 25 0 0
BITMAP
0000002BED80000000
000000CD68F7000000
000002F500AC000000
000002F500AC000000
000000CD68F7000000
0000002FFF90000000
0000000AFF70000000
0000001FEFD0000000
0000007F9EF3000000
000000DF59F9000000
000004FF14FE100000
00000AFA00EF600000
00001FF4008FC00000
00007FE0003FF30000
0000DF80000CF90000
0004FF300007FE1000
000AFC000002FF6000
001FFFFFFFFFFFC000
006FFFFFFFFFFFF200
00CFA11111112EF800
03FF3000000009FE00
09FC0000000002FF50
1EF60000000000BFB0
6FE100000000005FF2
CF9000000000000DF8
ENDCHAR
STARTCHAR AE
ENCODING 198
SWIDTH 873 0
DWIDTH 24 0
BBX 23 20 0 0
BITMAP
000000000BFFFFFFFFFFFFC0
000000003FFFFFFFFFFFFFC0
00000000AFB18FD111111110
00000002FF407FC000000000
0000000AFC007FC000000000
0000002FF5007FC000000000
0000009FD0007FC000000000
000001FF70007FC000000000
000008FE10007FC000000000
00001EF800007FFFFFFFFF40
00007FF200007FFFFFFFFF40
0001EF9000007FD111111100
0007FFFFFFFFFFC000000000
000EFFFFFFFFFFC000000000
006FF51111118FC000000000
00DFB00000007FC000000000
05FF300000007FC000000000
0DFA000000007FD111111110
5FF3000000007FFFFFFFFFC0
CFA0000000007FFFFFFFFFC0
ENDCHAR
STARTCHAR Ccedilla
ENCODING 199
SWIDTH 630 0
DWIDTH 18 0
BBX 16 27 1 -7
BITMAP
0000005ADEFECA61
00005DFFFFFFFFF9
0007FFF9421359E3
005FFC2000000010
01EFD10000000000
07FF300000000000
0CFC000000000000
1FF7000000000000
3FF5000000000000
4FF4000000000000
4FF4000000000000
3FF4000000000000
1FF7000000000000
0DFB000000000000
09FF200000000000
02FFB00000000000
008FFA1000000000
000BFFE8421247A1
00008FFFFFFFFFF1
0000027BDFEDC950
000000006F200000
00000000DB000000
00000003FFA20000
0000000016FC0000
0000000000EE0000
000000488BFA0000
0000006FFD810000
ENDCHAR
STARTCHAR Egrave
ENCODING 200
SWIDTH 556 0
DWIDTH 16 0
BBX 12 26 2 0
BITMAP
006FF7000000
0008FE200000
00008FB00000
000006F80000
000000000000
000000000000
4FFFFFFFFFFD
4FFFFFFFFFFD
4FF211111111
4FF100000000
4FF100000000
4FF100000000
4FF100000000
4FF100000000
4FF100000000
4FFFFFFFFFF5
4FFFFFFFFFF5
4FF211111110
4FF100000000
4FF100000000
4FF100000000
4FF100000000
4FF100000000
4FF211111111
4FFFFFFFFFFD
4FFFFFFFFFFD
ENDCHAR
STARTCHAR Eacute
ENCODING 201
SWIDTH 556 0
DWIDTH 16 0
BBX 12 26 2 0
BITMAP
0000007FF600
000002EF7000
00000CF70000
00009F600000
000000000000
000000000000
4FFFFFFFFFFD
4FFFFFFFFFFD
4FF211111111
4FF100000000
4FF100000000
4FF100000000
4FF100000000
4FF100000000
4FF100000000
4FFFFFFFFFF5
4FFFFFFFFFF5
4FF211111110
4FF100000000
4FF100000000
4FF100000000
4FF100000000
4FF100000000
4FF211111111
4FFFFFFFFFFD
4FFFFFFFFFFD
ENDCHAR
STARTCHAR Ecircumflex
ENCODING 202
SWIDTH 556 0
DWIDTH 16 0
BBX 12 26 2 0
BITMAP
00005FFA0000
0003EFFF8000
003EF73DF800
03EC30019F80
000000000000
000000000000
4FFFFFFFFFFD
4FFFFFFFFFFD
4FF211111111
4FF100000000
4FF100000000
4FF100000000
4FF100000000
4FF100000000
4FF100000000
4FFFFFFFFFF5
4FFFFFFFFFF5
4FF211111110
4FF100000000
4FF100000000
4FF100000000
4FF100000000
4FF100000000
4FF211111111
4FFFFFFFFFFD
4FFFFFFFFFFD
ENDCHAR
STARTCHAR Edieresis
ENCODING 203
SWIDTH 556 0
DWIDTH 16 0
BBX 12 26 2 0
BITMAP
003E9001DC00
007FE004FF20
003E9001DC00
000000000000
000000000000
000000000000
4FFFFFFFFFFD
4FFFFFFFFFFD
4FF211111111
4FF100000000
4FF100000000
4FF100000000
4FF100000000
4FF100000000
4FF100000000
4FFFFFFFFFF5
4FFFFFFFFFF5
4FF211111110
4FF100000000
4FF100000000
4FF100000000
4FF100000000
4FF100000000
4FF211111111
4FFFFFFFFFFD
4FFFFFFFFFFD
ENDCHAR
STARTCHAR Igrave
ENCODING 204
SWIDTH 278 0
DWIDTH 8 0
BBX 6 26 0 0
BITMAP
BFF200
1CFB00
01CF70
001AF4
000000
000000
004FF1
004FF1
004FF1
004FF1
004FF1
004FF1
004FF1
004FF1
004FF1
004FF1
004FF1
004FF1
004FF1
004FF1
004FF1
004FF1
004FF1
004FF1
004FF1
004FF1
ENDCHAR
STARTCHAR Iacute
ENCODING 205
SWIDTH 278 0
DWIDTH 8 0
BBX 6 26 2 0
BITMAP
004FF9
01DFA0
09FA00
5F9000
000000
000000
4FF100
4FF100
4FF100
4FF100
4FF100
4FF100
4FF100
4FF100
4FF100
4FF100
4FF100
4FF100
4FF100
4FF100
4FF100
4FF100
4FF100
4FF100
4FF100
4FF100
ENDCHAR
STARTCHAR Icircumflex
ENCODING 206
SWIDTH 278 0
DWIDTH 8 0
BBX 10 26 -1 0
BITMAP
000AFF5000
008FFFE300
08FD37FE30
7F91003CE3
0000000000
0000000000
0004FF1000
0004FF1000
0004FF1000
0004FF1000
0004FF1000
0004FF1000
0004FF1000
0004FF1000
0004FF1000
0004FF1000
0004FF1000
0004FF1000
0004FF1000
0004FF1000
0004FF1000
0004FF1000
0004FF1000
0004FF1000
0004FF1000
0004FF1000
ENDCHAR
STARTCHAR Idieresis
ENCODING 207
SWIDTH 278 0
DWIDTH 8 0
BBX 8 26 0 0
BITMAP
9E4006E6
EF800AFB
9E4006E6
00000000
00000000
00000000
004FF100
004FF100
004FF100
004FF100
004FF100
004FF100
004FF100
004FF100
004FF100
004FF100
004FF100
004FF100
004FF100
004FF100
004FF100
004FF100
004FF100
004FF100
004FF100
004FF100
ENDCHAR
STARTCHAR Eth
ENCODING 208
SWIDTH 722 0
DWIDTH 20 0
BBX 19 20 0 0
BITMAP
004FFFFFFEDA61000000
004FFFFFFFFFFE700000
004FF1001247DFFB1000
004FF100000008FFA000
004FF1000000008FF400
004FF1000000000DFB00
004FF10000000007FF10
004FF10000000004FF40
004FF10000000001FF60
5FFFFFFFFF400000FF70
5FFFFFFFFF400000FF70
014FF21111000001FF50
004FF10000000004FF30
004FF10000000008FE00
004FF1000000001EFA00
004FF100000000AFF300
004FF10000001BFF8000
004FF1001259EFF90000
004FFFFFFFFFFD600000
004FFFFFFEC950000000
ENDCHAR
STARTCHAR Ntilde
ENCODING 209
SWIDTH 753 0
DWIDTH 21 0
BBX 17 26 2 0
BITMAP
00001BFC4000AB0000
0000AFEFF802E70000
0001F803DFEFE10000
0004F10018ED500000
000000000000000000
000000000000000000
4FFA0000000000CF50
4FFF5000000000CF50
4FFFE100000000CF50
4FCEFA00000000CF50
4FB6FF50000000CF50
4FC0BFD1000000CF50
4FD02EF9000000CF50
4FD007FF400000CF50
4FD000CFD10000CF50
4FD0002FF80000CF50
4FD00007FF3000CF50
4FD00000CFD000CF50
4FD000003FF800CF50
4FD0000008FF30CF50
4FD0000000DFC0BF50
4FD00000004FF7AF50
4FD000000009FFCF50
4FD000000001DFFF50
4FD0000000004FFF50
4FD00000000009FF50
ENDCHAR
STARTCHAR Ograve
ENCODING 210
SWIDTH 778 0
DWIDTH 22 0
BBX 20 26 1 0
BITMAP
000000BFF20000000000
0000001CFB0000000000
00000001CF6000000000
000000001AF300000000
00000000000000000000
00000000000000000000
0000027BDEEDA6100000
00008FFFFFFFFFE50000
000BFFD732237DFF7000
008FF800000001AFF400
02FF90000000000CFD00
09FE100000000003FF50
0DFA000000000000CFA0
1FF60000000000009FD0
3FF40000000000007FF0
4FF30000000000006FF1
4FF30000000000006FF1
3FF40000000000007FF0
1FF60000000000009FD0
0DFA000000000000CFA0
09FE100000000003FF50
02FF90000000000BFD00
008FF700000000AFF400
000BFFC621137DFF7000
00008FFFFFFFFFE50000
0000027BDFEDA6100000
ENDCHAR
STARTCHAR Oacute
ENCODING 211
SWIDTH 778 0
DWIDTH 22 0
BBX 20 26 1 0
BITMAP
0000000000AFE3000000
0000000005FF50000000
000000002EF500000000
00000000CE4000000000
00000000000000000000
00000000000000000000
0000027BDEEDA6100000
00008FFFFFFFFFE50000
000BFFD732237DFF7000
008FF800000001AFF400
02FF90000000000CFD00
09FE100000000003FF50
0DFA000000000000CFA0
1FF60000000000009FD0
3FF40000000000007FF0
4FF30000000000006FF1
4FF30000000000006FF1
3FF40000000000007FF0
1FF60000000000009FD0
0DFA000000000000CFA0
09FE100000000003FF50
02FF90000000000BFD00
008FF700000000AFF400
000BFFC621137DFF7000
00008FFFFFFFFFE50000
0000027BDFEDA6100000
ENDCHAR
STARTCHAR Ocircumflex
ENCODING 212
SWIDTH 778 0
DWIDTH 22 0
BBX 20 26 1 0
BITMAP
00000000CFF300000000
0000000AFFFE20000000
0000009FC28FD2000000
000009F80004DE200000
00000000000000000000
00000000000000000000
0000027BDEEDA6100000
00008FFFFFFFFFE50000
000BFFD732237DFF7000
008FF800000001AFF400
02FF90000000000CFD00
09FE100000000003FF50
0DFA000000000000CFA0
1FF60000000000009FD0
3FF40000000000007FF0
4FF30000000000006FF1
4FF30000000000006FF1
3FF40000000000007FF0
1FF60000000000009FD0
0DFA000000000000CFA0
09FE100000000003FF50
02FF90000000000BFD00
008FF700000000AFF400
000BFFC621137DFF7000
00008FFFFFFFFFE50000
0000027BDFEDA6100000
ENDCHAR
STARTCHAR Otilde
ENCODING 213
SWIDTH 778 0
DWIDTH 22 0
BBX 20 26 1 0
BITMAP
000001AEC40009C00000
000008FEFF911E900000
00000E903CFEEF200000
00003F30008EE6000000
00000000000000000000
00000000000000000000
0000027BDEEDA6100000
00008FFFFFFFFFE50000
000BFFD732237DFF7000
008FF800000001AFF400
02FF90000000000CFD00
09FE100000000003FF50
0DFA000000000000CFA0
1FF60000000000009FD0
3FF40000000000007FF0
4FF30000000000006FF1
4FF30000000000006FF1
3FF40000000000007FF0
1FF60000000000009FD0
0DFA000000000000CFA0
09FE100000000003FF50
02FF90000000000BFD00
008FF700000000AFF400
000BFFC621137DFF7000
00008FFFFFFFFFE50000
0000027BDFEDA6100000
ENDCHAR
STARTCHAR Odieresis
ENCODING 214
SWIDTH 778 0
DWIDTH 22 0
BBX 20 26 1 0
BITMAP
0000008E5005E7000000
000000DF9009FC000000
0000008E5005E7000000
00000000000000000000
00000000000000000000
00000000000000000000
0000027BDEEDA6100000
00008FFFFFFFFFE50000
000BFFD732237DFF7000
008FF800000001AFF400
02FF90000000000CFD00
09FE100000000003FF50
0DFA000000000000CFA0
1FF60000000000009FD0
3FF40000000000007FF0
4FF30000000000006FF1
4FF30000000000006FF1
3FF40000000000007FF0
1FF60000000000009FD0
0DFA000000000000CFA0
09FE100000000003FF50
02FF90000000000BFD00
008FF700000000AFF400
000BFFC621137DFF7000
00008FFFFFFFFFE50000
0000027BDFEDA6100000
ENDCHAR
STARTCHAR multiply
ENCODING 215
SWIDTH 571 0
DWIDTH 16 0
BBX 13 13 1 3
BITMAP
02500000000520
1DF60000005FD0
06FF600005FF50
006FF5005FF500
0006FF55FF5000
00006FFFF50000
000009FF900000
00006FFFF50000
0006FF66FF5000
005FF6006FF500
05FF600006FF50
0DF60000006FD0
02500000000520
ENDCHAR
STARTCHAR Oslash
ENCODING 216
SWIDTH 778 0
DWIDTH 22 0
BBX 20 22 1 -1
BITMAP
0000000000000001B200
0000027BDEFDB619FA00
00008FFFFFFFFFEFE200
000BFFD732248EFFA000
008FF80000000AFFF400
02FF900000006FECFD00
09FE10000002EF53FF50
0DFA0000000CF900DF90
1FF60000009FC0009FD0
3FF4000005FE20007FF0
4FF300002EF600006FF1
4FF30000CFA000006FF1
3FF40008FD1000007FF0
1FF6004FF30000009FD0
0DFA01EF70000000CFA0
09FE1BFB00000003FF50
02FFDFD10000000BFD00
008FFF400000009FF400
001FFFC621137DFF7000
008FDFFFFFFFFFE50000
02FF328BEFEDA6100000
00690000000000000000
ENDCHAR
STARTCHAR Ugrave
ENCODING 217
SWIDTH 728 0
DWIDTH 20 0
BBX 16 26 2 0
BITMAP
00007FF600000000
000009FE10000000
0000009FB0000000
00000007F7000000
0000000000000000
0000000000000000
7FD00000000007FD
7FD00000000007FD
7FD00000000007FD
7FD00000000007FD
7FD00000000007FD
7FD00000000007FD
7FD00000000007FD
7FD00000000007FD
7FD00000000007FD
7FD00000000007FD
7FD00000000007FD
7FD00000000007FD
7FD00000000007FD
6FE00000000008FC
4FF1000000000AFA
1FF7000000001FF6
09FE30000001BFE1
01DFE831126DFF40
002CFFFFFFFFE400
00005ADEFEB61000
ENDCHAR
STARTCHAR Uacute
ENCODING 218
SWIDTH 728 0
DWIDTH 20 0
BBX 16 26 2 0
BITMAP
000000007FF50000
00000002FF700000
0000000CF7000000
0000009F50000000
0000000000000000
0000000000000000
7FD00000000007FD
7FD00000000007FD
7FD00000000007FD
7FD00000000007FD
7FD00000000007FD
7FD00000000007FD
7FD00000000007FD
7FD00000000007FD
7FD00000000007FD
7FD00000000007FD
7FD00000000007FD
7FD00000000007FD
7FD00000000007FD
6FE00000000008FC
4FF1000000000AFA
1FF7000000001FF6
09FE30000001BFE1
01DFE831126DFF40
002CFFFFFFFFE400
00005ADEFEB61000
ENDCHAR
STARTCHAR Ucircumflex
ENCODING 219
SWIDTH 728 0
DWIDTH 20 0
BBX 16 26 2 0
BITMAP
0000008FF7000000
000006FFFF500000
00006FE45EF50000
0005FA1002BF5000
0000000000000000
0000000000000000
7FD00000000007FD
7FD00000000007FD
7FD00000000007FD
7FD00000000007FD
7FD00000000007FD
7FD00000000007FD
7FD00000000007FD
7FD00000000007FD
7FD00000000007FD
7FD00000000007FD
7FD00000000007FD
7FD00000000007FD
7FD00000000007FD
6FE00000000008FC
4FF1000000000AFA
1FF7000000001FF6
09FE30000001BFE1
01DFE831126DFF40
002CFFFFFFFFE400
00005ADEFEB61000
ENDCHAR
STARTCHAR Udieresis
ENCODING 220
SWIDTH 728 0
DWIDTH 20 0
BBX 16 26 2 0
BITMAP
00006E7003EA0000
0000AFC007FE0000
00005E7003E90000
0000000000000000
0000000000000000
0000000000000000
7FD00000000007FD
7FD00000000007FD
7FD00000000007FD
7FD00000000007FD
7FD00000000007FD
7FD00000000007FD
7FD00000000007FD
7FD00000000007FD
7FD00000000007FD
7FD00000000007FD
7FD00000000007FD
7FD00000000007FD
7FD00000000007FD
6FE00000000008FC
4FF1000000000AFA
1FF7000000001FF6
09FE30000001BFE1
01DFE831126DFF40
002CFFFFFFFFE400
00005ADEFEB61000
ENDCHAR
STARTCHAR Yacute
ENCODING 221
SWIDTH 560 0
DWIDTH 16 0
BBX 16 26 0 0
BITMAP
00000000AFF30000
00000004FF500000
0000001EF5000000
000000BE40000000
0000000000000000
0000000000000000
BFC0000000002FF6
3FF5000000009FD0
0AFD00000003FF50
02FF6000000AFC00
009FD100003FF400
001EF70000BFA000
0008FE1004FF2000
0001EF800CF90000
00006FE15FE10000
00000DF9DF800000
000005FFFE100000
000000CFF6000000
0000006FF0000000
0000005FF0000000
0000005FF0000000
0000005FF0000000
0000005FF0000000
0000005FF0000000
0000005FF0000000
0000005FF0000000
ENDCHAR
STARTCHAR Thorn
ENCODING 222
SWIDTH 610 0
DWIDTH 17 0
BBX 14 20 2 0
BITMAP
4FF10000000000
4FF10000000000
4FF10000000000
4FFFFFFEC83000
4FFFFFFFFFF900
4FF100126CFF90
4FF1000000AFF3
4FF10000002FF7
4FF10000000DF9
4FF10000000CF9
4FF10000000DF8
4FF10000002FF5
4FF1000000BFD1
4FF100136DFF40
4FFFFFFFFFE400
4FFFFFEDA61000
4FF10000000000
4FF10000000000
4FF10000000000
4FF10000000000
ENDCHAR
STARTCHAR germandbls
ENCODING 223
SWIDTH 622 0
DWIDTH 17 0
BBX 15 21 2 0
BITMAP
0029CEFEC8200000
05FFFFEFFFF50000
1EFC40004CFE1000
6FE1000002FF4000
8FB0000001FF4000
9FA0000008FE0000
9FA000009FE40000
9FA0000BFE300000
9FA0007FD2000000
9FA000BF70000000
9FA0009FC1000000
9FA0002EFD400000
9FA00003DFF90000
9FA0000019FFB100
9FA00000004EF800
9FA000000006FE00
9FA000000002FF20
9FA000000003FF10
9FA00C51002CFC00
9FA00FFFEEFFE300
9FA005ADFFD92000
ENDCHAR
STARTCHAR agrave
ENCODING 224
SWIDTH 556 0
DWIDTH 16 0
BBX 13 21 1 0
BITMAP
001DFD00000000
0003EF70000000
00003EF3000000
000002CE100000
00000000000000
00000000000000
0005ADEFDA3000
00CFFFEEFFF400
008A51003CFD00
0000000003FF20
0000000000FF40
0000000000EF40
00048BDEEFFF40
03DFFECBAAFF40
2EFC400000FF40
8FE1000000FF40
AFB0000004FF40
AFC000000BFF40
6FF80003BFFF40
0BFFFEEFF6BF40
007CFFDA307F40
ENDCHAR
STARTCHAR aacute
ENCODING 225
SWIDTH 556 0
DWIDTH 16 0
BBX 13 21 1 0
BITMAP
0000000BFE2000
0000006FF40000
000002EE400000
00000CD3000000
00000000000000
00000000000000
0005ADEFDA3000
00CFFFEEFFF400
008A51003CFD00
0000000003FF20
0000000000FF40
0000000000EF40
00048BDEEFFF40
03DFFECBAAFF40
2EFC400000FF40
8FE1000000FF40
AFB0000004FF40
AFC000000BFF40
6FF80003BFFF40
0BFFFEEFF6BF40
007CFFDA307F40
ENDCHAR
STARTCHAR acircumflex
ENCODING 226
SWIDTH 556 0
DWIDTH 16 0
BBX 13 21 1 0
BITMAP
00000CFF300000
0000AFFFE20000
0009FC28FD2000
009F80004DE200
00000000000000
00000000000000
0005ADEFDA3000
00CFFFEEFFF400
008A51003CFD00
0000000003FF20
0000000000FF40
0000000000EF40
00048BDEEFFF40
03DFFECBAAFF40
2EFC400000FF40
8FE1000000FF40
AFB0000004FF40
AFC000000BFF40
6FF80003BFFF40
0BFFFEEFF6BF40
007CFFDA307F40
ENDCHAR
STARTCHAR atilde
ENCODING 227
SWIDTH 556 0
DWIDTH 16 0
BBX 13 21 1 0
BITMAP
001AFC40009B00
009FEFF911E800
01F903DFEFF200
03F20008ED5000
00000000000000
00000000000000
0005ADEFDA3000
00CFFFEEFFF400
008A51003CFD00
0000000003FF20
0000000000FF40
0000000000EF40
00048BDEEFFF40
03DFFECBAAFF40
2EFC400000FF40
8FE1000000FF40
AFB0000004FF40
AFC000000BFF40
6FF80003BFFF40
0BFFFEEFF6BF40
007CFFDA307F40
ENDCHAR
STARTCHAR adieresis
ENCODING 228
SWIDTH 556 0
DWIDTH 16 0
BBX 13 21 1 0
BITMAP
000CD1009E3000
002FF400EF7000
000CD1009E3000
00000000000000
00000000000000
00000000000000
0005ADEFDA3000
00CFFFEEFFF400
008A51003CFD00
0000000003FF20
0000000000FF40
0000000000EF40
00048BDEEFFF40
03DFFECBAAFF40
2EFC400000FF40
8FE1000000FF40
AFB0000004FF40
AFC000000BFF40
6FF80003BFFF40
0BFFFEEFF6BF40
007CFFDA307F40
ENDCHAR
STARTCHAR aring
ENCODING 229
SWIDTH 556 0
DWIDTH 16 0
BBX 13 23 1 0
BITMAP
00001AED810000
0000BE67E90000
0001F6009E0000
0001F6009D0000
0000BE67F80000
00001AEE910000
00000000000000
00000000000000
0005ADEFDA3000
00CFFFEEFFF400
008A51003CFD00
0000000003FF20
0000000000FF40
0000000000EF40
00048BDEEFFF40
03DFFECBAAFF40
2EFC400000FF40
8FE1000000FF40
AFB0000004FF40
AFC000000BFF40
6FF80003BFFF40
0BFFFEEFF6BF40
007CFFDA307F40
ENDCHAR
STARTCHAR ae
ENCODING 230
SWIDTH 857 0
DWIDTH 24 0
BBX 22 15 1 0
BITMAP
0028BEFEB60018DFEC6000
04FFFEEFFF92DFFEEFFA00
00C720007FFDFA1005EF80
000000000AFFC000007FE1
0000000006FF5000001FF5
0000000005FF2000000EF8
00059CDEEFFFEEEEEEEFF9
04DFFECBACFFDDDDDDDDD8
2EFB300006FF0000000000
8FE1000007FF2000000000
AFB000000AFF7000000000
AFC000002FFFE100000000
6FF70005EF4DFD510137B0
0BFFFDFFE502DFFFFFFFE0
007CFED8200017CEFEC830
ENDCHAR
STARTCHAR ccedilla
ENCODING 231
SWIDTH 476 0
DWIDTH 13 0
BBX 12 22 1 -7
BITMAP
00017BEFDC82
003DFFFFFFF2
01EFD6212580
09FE20000000
0EF700000000
3FF200000000
5FF000000000
6FE000000000
5FF000000000
4FF200000000
1FF600000000
0AFE10000000
02EFD5102492
003EFFFFFFF3
00017CEFEC71
000001E80000
000006F20000
00000CFC5000
0000003CF300
00000008F600
0000879EE200
0001EFEA3000
ENDCHAR
STARTCHAR egrave
ENCODING 232
SWIDTH 561 0
DWIDTH 16 0
BBX 14 21 1 0
BITMAP
0006FF60000000
00009FE1000000
000008FB000000
0000006F800000
00000000000000
00000000000000
00017CEFD92000
002DFFEEFFE500
01DFC3002AFE30
08FD100000DFA0
0EF50000006FF0
3FF20000004FF3
5FFFFFFFFFFFF4
6FFDDDDDDDDDD3
5FF00000000000
4FF20000000000
0EF70000000000
09FE3000000000
01DFE720025980
002CFFFFFFFF90
00006BEFFDB710
ENDCHAR
STARTCHAR eacute
ENCODING 233
SWIDTH 561 0
DWIDTH 16 0
BBX 14 21 1 0
BITMAP
00000004FF9000
0000001DFA0000
0000009FA00000
000006F8000000
00000000000000
00000000000000
00017CEFD92000
002DFFEEFFE500
01DFC3002AFE30
08FD100000DFA0
0EF50000006FF0
3FF20000004FF3
5FFFFFFFFFFFF4
6FFDDDDDDDDDD3
5FF00000000000
4FF20000000000
0EF70000000000
09FE3000000000
01DFE720025980
002CFFFFFFFF90
00006BEFFDB710
ENDCHAR
STARTCHAR ecircumflex
ENCODING 234
SWIDTH 561 0
DWIDTH 16 0
BBX 14 21 1 0
BITMAP
000006FF900000
00004FFFF70000
0004EE64DF7000
003EB20019F700
00000000000000
00000000000000
00017CEFD92000
002DFFEEFFE500
01DFC3002AFE30
08FD100000DFA0
0EF50000006FF0
3FF20000004FF3
5FFFFFFFFFFFF4
6FFDDDDDDDDDD3
5FF00000000000
4FF20000000000
0EF70000000000
09FE3000000000
01DFE720025980
002CFFFFFFFF90
00006BEFFDB710
ENDCHAR
STARTCHAR edieresis
ENCODING 235
SWIDTH 561 0
DWIDTH 16 0
BBX 14 21 1 0
BITMAP
0005E8002EA000
0009FD006FF000
0005E8002EA000
00000000000000
00000000000000
00000000000000
00017CEFD92000
002DFFEEFFE500
01DFC3002AFE30
08FD100000DFA0
0EF50000006FF0
3FF20000004FF3
5FFFFFFFFFFFF4
6FFDDDDDDDDDD3
5FF00000000000
4FF20000000000
0EF70000000000
09FE3000000000
01DFE720025980
002CFFFFFFFF90
00006BEFFDB710
ENDCHAR
STARTCHAR igrave
ENCODING 236
SWIDTH 252 0
DWIDTH 7 0
BBX 6 21 -1 0
BITMAP
4FF800
07FF30
006FD1
0005EA
000000
000000
0009FA
0009FA
0009FA
0009FA
0009FA
0009FA
0009FA
0009FA
0009FA
0009FA
0009FA
0009FA
0009FA
0009FA
0009FA
ENDCHAR
STARTCHAR iacute
ENCODING 237
SWIDTH 252 0
DWIDTH 7 0
BBX 6 21 2 0
BITMAP
006FF7
01EF90
0BF800
7F7000
000000
000000
9FA000
9FA000
9FA000
9FA000
9FA000
9FA000
9FA000
9FA000
9FA000
9FA000
9FA000
9FA000
9FA000
9FA000
9FA000
ENDCHAR
STARTCHAR icircumflex
ENCODING 238
SWIDTH 252 0
DWIDTH 7 0
BBX 10 21 -1 0
BITMAP
001DFE2000
01CFFFC100
1BFA2AFC10
BE60006EC1
0000000000
0000000000
0009FA0000
0009FA0000
0009FA0000
0009FA0000
0009FA0000
0009FA0000
0009FA0000
0009FA0000
0009FA0000
0009FA0000
0009FA0000
0009FA0000
0009FA0000
0009FA0000
0009FA0000
ENDCHAR
STARTCHAR idieresis
ENCODING 239
SWIDTH 252 0
DWIDTH 7 0
BBX 9 21 -1 0
BITMAP
1DC100BE20
4FF300FF60
1DC100AD20
0000000000
0000000000
0000000000
0009FA0000
0009FA0000
0009FA0000
0009FA0000
0009FA0000
0009FA0000
0009FA0000
0009FA0000
0009FA0000
0009FA0000
0009FA0000
0009FA0000
0009FA0000
0009FA0000
0009FA0000
ENDCHAR
STARTCHAR eth
ENCODING 240
SWIDTH 596 0
DWIDTH 17 0
BBX 15 21 1 0
BITMAP
00004B40002A2000
0000AFFA39FF8000
000006EFFFD50000
000005DFFF500000
0003CFF88FF40000
0002EA2009FE1000
0000100000CF8000
00000000003FF200
00028CEFDA4AF800
006FFFEEFFFCFC00
04FFA30004CFFF10
0DFA0000000BFF30
3FF200000003FF50
6FE000000000FF50
7FD000000000FF40
6FE000000001FF20
2FF300000005FD00
0CFB0000001DF800
03EFB30004CFD100
004EFFFEFFFD2000
00017CEFEB600000
ENDCHAR
STARTCHAR ntilde
ENCODING 241
SWIDTH 613 0
DWIDTH 17 0
BBX 13 21 2 0
BITMAP
0009ED50008D00
007FEFFA11DA00
00DA02CFFEF300
02F40007EE7000
00000000000000
00000000000000
9F504AEFEB6000
9F78FFFEFFFB00
9FEF920029FF60
9FF8000000CFB0
9FF10000007FD0
9FC00000005FE0
9FB00000005FE0
9FA00000005FE0
9FA00000005FE0
9FA00000005FE0
9FA00000005FE0
9FA00000005FE0
9FA00000005FE0
9FA00000005FE0
9FA00000005FE0
ENDCHAR
STARTCHAR ograve
ENCODING 242
SWIDTH 604 0
DWIDTH 17 0
BBX 15 21 1 0
BITMAP
0001EFC000000000
00003EF700000000
000003EF30000000
0000002DD1000000
0000000000000000
0000000000000000
00006BEFEB600000
002DFFFEFFFC1000
01DFD40015EFC000
09FD1000002EF700
0EF600000008FD00
3FF200000003FF20
5FF000000001FF40
6FE000000000FF50
5FF000000001FF40
3FF200000003FF20
0EF600000008FE00
08FE1000002EF700
01DFD40005DFD100
002CFFFEFFFC2000
00006BDFEB600000
ENDCHAR
STARTCHAR oacute
ENCODING 243
SWIDTH 604 0
DWIDTH 17 0
BBX 15 21 1 0
BITMAP
00000002FFA00000
0000000CFB100000
0000008FB1000000
000004FA00000000
0000000000000000
0000000000000000
00006BEFEB600000
002DFFFEFFFC1000
01DFD40015EFC000
09FD1000002EF700
0EF600000008FD00
3FF200000003FF20
5FF000000001FF40
6FE000000000FF50
5FF000000001FF40
3FF200000003FF20
0EF600000008FE00
08FE1000002EF700
01DFD40005DFD100
002CFFFEFFFC2000
00006BDFEB600000
ENDCHAR
STARTCHAR ocircumflex
ENCODING 244
SWIDTH 604 0
DWIDTH 17 0
BBX 15 21 1 0
BITMAP
000002EFD1000000
00001DFFFB100000
0001CF92BFB10000
001CD50007EC0000
0000000000000000
0000000000000000
00006BEFEB600000
002DFFFEFFFC1000
01DFD40015EFC000
09FD1000002EF700
0EF600000008FD00
3FF200000003FF20
5FF000000001FF40
6FE000000000FF50
5FF000000001FF40
3FF200000003FF20
0EF600000008FE00
08FE1000002EF700
01DFD40005DFD100
002CFFFEFFFC2000
00006BDFEB600000
ENDCHAR
STARTCHAR otilde
ENCODING 245
SWIDTH 604 0
DWIDTH 17 0
BBX 15 21 1 0
BITMAP
0003CFA2000E7000
000DFEFE605F4000
004F406EFEFD0000
007D0002AFC30000
0000000000000000
0000000000000000
00006BEFEB600000
002DFFFEFFFC1000
01DFD40015EFC000
09FD1000002EF700
0EF600000008FD00
3FF200000003FF20
5FF000000001FF40
6FE000000000FF50
5FF000000001FF40
3FF200000003FF20
0EF600000008FE00
08FE1000002EF700
01DFD40005DFD100
002CFFFEFFFC2000
00006BDFEB600000
ENDCHAR
STARTCHAR odieresis
ENCODING 246
SWIDTH 604 0
DWIDTH 17 0
BBX 15 21 1 0
BITMAP
0002EB000CD10000
0006FF102FF40000
0002DB000CD10000
0000000000000000
0000000000000000
0000000000000000
00006BEFEB600000
002DFFFEFFFC1000
01DFD40015EFC000
09FD1000002EF700
0EF600000008FD00
3FF200000003FF20
5FF000000001FF40
6FE000000000FF50
5FF000000001FF40
3FF200000003FF20
0EF600000008FE00
08FE1000002EF700
01DFD40005DFD100
002CFFFEFFFC2000
00006BDFEB600000
ENDCHAR
STARTCHAR divide
ENCODING 247
SWIDTH 571 0
DWIDTH 16 0
BBX 14 12 1 4
BITMAP
000003DD200000
000008FF700000
000005FF400000
00000033000000
00000000000000
9FFFFFFFFFFFF8
8DDDDDDDDDDDD8
00000000000000
00000033000000
000005FF400000
000008FF700000
000003DD200000
ENDCHAR
STARTCHAR oslash
ENCODING 248
SWIDTH 604 0
DWIDTH 17 0
BBX 15 17 1 -1
BITMAP
000000000001B300
00006BEFDB58FA00
002DFFFEFFFFE200
01DFD40017FFC000
09FD10000AFFF700
0EF600006FD9FD00
3FF20003FF34FF20
5FF0001DF602FF40
6FE000AFA000FF50
5FF007FD1001FF40
3FF23FE30003FF20
0EF8DF600008FE00
08FFF900002EF700
01DFF50005DFD100
02EFFFFEFFFC2000
0BF86BEFEB600000
03B1000000000000
ENDCHAR
STARTCHAR ugrave
ENCODING 249
SWIDTH 613 0
DWIDTH 17 0
BBX 13 21 2 0
BITMAP
004FF900000000
0006FF40000000
00006FD1000000
000004EB000000
00000000000000
00000000000000
BF800000007FC0
BF800000007FC0
BF800000007FC0
BF800000007FC0
BF800000007FC0
BF800000007FC0
BF800000007FC0
BF800000007FC0
BF800000008FC0
BF80000000AFC0
AFA0000000DFC0
8FE1000005FFC0
3FFB20017FEFC0
08FFFFEFFB5FC0
005BEFEB603FC0
ENDCHAR
STARTCHAR uacute
ENCODING 250
SWIDTH 613 0
DWIDTH 17 0
BBX 13 21 2 0
BITMAP
0000000BFE2000
0000006FE30000
000003EE400000
00000DD3000000
00000000000000
00000000000000
BF800000007FC0
BF800000007FC0
BF800000007FC0
BF800000007FC0
BF800000007FC0
BF800000007FC0
BF800000007FC0
BF800000007FC0
BF800000008FC0
BF80000000AFC0
AFA0000000DFC0
8FE1000005FFC0
3FFB20017FEFC0
08FFFFEFFB5FC0
005BEFEB603FC0
ENDCHAR
STARTCHAR ucircumflex
ENCODING 251
SWIDTH 613 0
DWIDTH 17 0
BBX 13 21 2 0
BITMAP
00002EFE100000
0001CFFFC10000
001CFA2AFC1000
00CE60006EC100
00000000000000
00000000000000
BF800000007FC0
BF800000007FC0
BF800000007FC0
BF800000007FC0
BF800000007FC0
BF800000007FC0
BF800000007FC0
BF800000007FC0
BF800000008FC0
BF80000000AFC0
AFA0000000DFC0
8FE1000005FFC0
3FFB20017FEFC0
08FFFFEFFB5FC0
005BEFEB603FC0
ENDCHAR
STARTCHAR udieresis
ENCODING 252
SWIDTH 613 0
DWIDTH 17 0
BBX 13 21 2 0
BITMAP
001DC000BD2000
004FF201FF5000
001DC000BD2000
00000000000000
00000000000000
00000000000000
BF800000007FC0
BF800000007FC0
BF800000007FC0
BF800000007FC0
BF800000007FC0
BF800000007FC0
BF800000007FC0
BF800000007FC0
BF800000008FC0
BF80000000AFC0
AFA0000000DFC0
8FE1000005FFC0
3FFB20017FEFC0
08FFFFEFFB5FC0
005BEFEB603FC0
ENDCHAR
STARTCHAR yacute
ENCODING 253
SWIDTH 503 0
DWIDTH 14 0
BBX 14 28 0 -7
BITMAP
00000002EFB000
0000000BFC1000
0000006FC10000
000003FB100000
00000000000000
00000000000000
CFA000000008FD
6FF10000000DF8
1EF60000004FF2
09FC0000009FC0
03FF300000EF60
00CF800005FF10
006FE0000AFA00
001EF5001EF400
0009FA006FE000
0003FF10BF8000
0000CF61FF3000
00006FB6FC0000
00001EEBF60000
000009FFF10000
000003FFA00000
000001FF500000
000006FE000000
00000CF8000000
00005FF2000000
0005EF90000000
CEFFFC10000000
AEFD7000000000
ENDCHAR
STARTCHAR thorn
ENCODING 254
SWIDTH 612 0
DWIDTH 17 0
BBX 14 28 2 -7
BITMAP
9FA00000000000
9FA00000000000
9FA00000000000
9FA00000000000
9FA00000000000
9FA00000000000
9FA05BEFDA3000
9FA9FFFEFFF700
9FEF820029FF40
9FF7000000AFD0
9FF10000003FF3
9FC00000000EF6
9FB00000000CF8
9FA00000000BF9
9FB00000000CF8
9FD00000000EF6
9FF10000003FF3
9FF8000000AFC0
9FFF82002AFF40
9F9AFFEEFFF700
9F905BEFDA3000
9FA00000000000
9FA00000000000
9FA00000000000
9FA00000000000
9FA00000000000
9FA00000000000
9FA00000000000
ENDCHAR
STARTCHAR ydieresis
ENCODING 255
SWIDTH 503 0
DWIDTH 14 0
BBX 14 28 0 -7
BITMAP
0007E5004E8000
000CFA008FD000
0007E5004E8000
00000000000000
00000000000000
00000000000000
CFA000000008FD
6FF10000000DF8
1EF60000004FF2
09FC0000009FC0
03FF300000EF60
00CF800005FF10
006FE0000AFA00
001EF5001EF400
0009FA006FE000
0003FF10BF8000
0000CF61FF3000
00006FB6FC0000
00001EEBF60000
000009FFF10000
000003FFA00000
000001FF500000
000006FE000000
00000CF8000000
00005FF2000000
0005EF90000000
CEFFFC10000000
AEFD7000000000
ENDCHAR
STARTCHAR Amacron
ENCODING 256
SWIDTH 632 0
DWIDTH 18 0
BBX 18 24 0 0
BITMAP
00000DDDDDDDD20000
00000FFFFFFFF30000
000000000000000000
000000000000000000
00000004FF10000000
0000000AFF70000000
0000001FEFD0000000
0000007F9EF3000000
000000DF59F9000000
000004FF14FE100000
00000AFA00EF600000
00001FF4008FC00000
00007FE0003FF30000
0000DF80000CF90000
0004FF300007FE1000
000AFC000002FF6000
001FFFFFFFFFFFC000
006FFFFFFFFFFFF200
00CFA11111112EF800
03FF3000000009FE00
09FC0000000002FF50
1EF60000000000BFB0
6FE100000000005FF2
CF9000000000000DF8
ENDCHAR
STARTCHAR amacron
ENCODING 257
SWIDTH 556 0
DWIDTH 16 0
BBX 13 19 1 0
BITMAP
001DDDDDDDD200
001FFFFFFFF200
00000000000000
00000000000000
0005ADEFDA3000
00CFFFEEFFF400
008A51003CFD00
0000000003FF20
0000000000FF40
0000000000EF40
00048BDEEFFF40
03DFFECBAAFF40
2EFC400000FF40
8FE1000000FF40
AFB0000004FF40
AFC000000BFF40
6FF80003BFFF40
0BFFFEEFF6BF40
007CFFDA307F40
ENDCHAR
STARTCHAR Abreve
ENCODING 258
SWIDTH 632 0
DWIDTH 18 0
BBX 18 26 0 0
BITMAP
00005F200007E00000
00001FA1003EB00000
000008FFDEFE200000
0000007DFEA3000000
000000000000000000
000000000000000000
00000004FF10000000
0000000AFF70000000
0000001FEFD0000000
0000007F9EF3000000
000000DF59F9000000
000004FF14FE100000
00000AFA00EF600000
00001FF4008FC00000
00007FE0003FF30000
0000DF80000CF90000
0004FF300007FE1000
000AFC000002FF6000
001FFFFFFFFFFFC000
006FFFFFFFFFFFF200
00CFA11111112EF800
03FF3000000009FE00
09FC0000000002FF50
1EF60000000000BFB0
6FE100000000005FF2
CF9000000000000DF8
ENDCHAR
STARTCHAR abreve
ENCODING 259
SWIDTH 556 0
DWIDTH 16 0
BBX 13 21 1 0
BITMAP
004F200007E000
001FA1003EB000
0008FFDEFE2000
00007DFEB30000
00000000000000
00000000000000
0005ADEFDA3000
00CFFFEEFFF400
008A51003CFD00
0000000003FF20
0000000000FF40
0000000000EF40
00048BDEEFFF40
03DFFECBAAFF40
2EFC400000FF40
8FE1000000FF40
AFB0000004FF40
AFC000000BFF40
6FF80003BFFF40
0BFFFEEFF6BF40
007CFFDA307F40
ENDCHAR
STARTCHAR Aogonek
ENCODING 260
SWIDTH 632 0
DWIDTH 18 0
BBX 18 26 0 -6
BITMAP
00000004FF10000000
0000000AFF70000000
0000001FEFD0000000
0000007F9EF3000000
000000DF59F9000000
000004FF14FE100000
00000AFA00EF600000
00001FF4008FC00000
00007FE0003FF30000
0000DF80000CF90000
0004FF300007FE1000
000AFC000002FF6000
001FFFFFFFFFFFC000
006FFFFFFFFFFFF200
00CFA11111112EF800
03FF3000000009FE00
09FC0000000002FF50
1EF60000000000BFB0
6FE100000000005FF2
CF9000000000000EF8
000000000000005F70
00000000000003FA00
00000000000009F300
0000000000000CF300
00000000000009FD98
00000000000001AEE9
ENDCHAR
STARTCHAR aogonek
ENCODING 261
SWIDTH 556 0
DWIDTH 16 0
BBX 13 21 1 -6
BITMAP
0005ADEFDA3000
00CFFFEEFFF400
008A51003CFD00
0000000003FF20
0000000000FF40
0000000000EF40
00048BDEEFFF40
03DFFECBAAFF40
2EFC400000FF40
8FE1000000FF40
AFB0000004FF40
AFC000000BFF40
6FF80003BFFF40
0BFFFEEFF6BF40
007CFFDA308F50
0000000002DA00
000000000DD100
000000005F7000
000000008F7000
000000005FE9A0
0000000008EEC0
ENDCHAR
STARTCHAR Cacute
ENCODING 262
SWIDTH 630 0
DWIDTH 18 0
BBX 16 26 1 0
BITMAP
0000000000BFE200
0000000005FF4000
000000002EE40000
00000000CE300000
0000000000000000
0000000000000000
0000005ADEFECA61
00005DFFFFFFFFF9
0007FFF9421359E3
005FFC2000000010
01EFD10000000000
07FF300000000000
0CFC000000000000
1FF7000000000000
3FF5000000000000
4FF4000000000000
4FF4000000000000
3FF4000000000000
1FF7000000000000
0DFB000000000000
09FF200000000000
02FFB00000000000
008FFA1000000000
000BFFE8421247A1
00008FFFFFFFFFF1
0000027BDFEDC950
ENDCHAR
STARTCHAR cacute
ENCODING 263
SWIDTH 476 0
DWIDTH 13 0
BBX 12 21 1 0
BITMAP
00000006FF70
0000001EF900
000000BF8000
000007F70000
000000000000
000000000000
00017BEFDC82
003DFFFFFFF2
01EFD6212580
09FE20000000
0EF700000000
3FF200000000
5FF000000000
6FE000000000
5FF000000000
4FF200000000
1FF600000000
0AFE10000000
02EFD5102492
003EFFFFFFF3
00017CEFEC71
ENDCHAR
STARTCHAR Ccircumflex
ENCODING 264
SWIDTH 630 0
DWIDTH 18 0
BBX 16 26 1 0
BITMAP
00000001DFE20000
0000000BFFFD1000
000000AFB29FD200
00000BE70005DD10
0000000000000000
0000000000000000
0000005ADEFECA61
00005DFFFFFFFFF9
0007FFF9421359E3
005FFC2000000010
01EFD10000000000
07FF300000000000
0CFC000000000000
1FF7000000000000
3FF5000000000000
4FF4000000000000
4FF4000000000000
3FF4000000000000
1FF7000000000000
0DFB000000000000
09FF200000000000
02FFB00000000000
008FFA1000000000
000BFFE8421247A1
00008FFFFFFFFFF1
0000027BDFEDC950
ENDCHAR
STARTCHAR ccircumflex
ENCODING 265
SWIDTH 476 0
DWIDTH 13 0
BBX 12 21 1 0
BITMAP
00001CFE3000
0000BFFFD200
000AFB29FD20
00AE70005DD2
000000000000
000000000000
00017BEFDC82
003DFFFFFFF2
01EFD6212580
09FE20000000
0EF700000000
3FF200000000
5FF000000000
6FE000000000
5FF000000000
4FF200000000
1FF600000000
0AFE10000000
02EFD5102492
003EFFFFFFF3
00017CEFEC71
ENDCHAR
STARTCHAR Cdot
ENCODING 266
SWIDTH 630 0
DWIDTH 18 0
BBX 16 26 1 0
BITMAP
000000002DC10000
000000006FF30000
000000002DC10000
0000000000000000
0000000000000000
0000000000000000
0000005ADEFECA61
00005DFFFFFFFFF9
0007FFF9421359E3
005FFC2000000010
01EFD10000000000
07FF300000000000
0CFC000000000000
1FF7000000000000
3FF5000000000000
4FF4000000000000
4FF4000000000000
3FF4000000000000
1FF7000000000000
0DFB000000000000
09FF200000000000
02FFB00000000000
008FFA1000000000
000BFFE8421247A1
00008FFFFFFFFFF1
0000027BDFEDC950
ENDCHAR
STARTCHAR cdot
ENCODING 267
SWIDTH 476 0
DWIDTH 13 0
BBX 12 21 1 0
BITMAP
000000CE3000
000002FF7000
000000CE3000
000000000000
000000000000
000000000000
00017BEFDC82
003DFFFFFFF2
01EFD6212580
09FE20000000
0EF700000000
3FF200000000
5FF000000000
6FE000000000
5FF000000000
4FF200000000
1FF600000000
0AFE10000000
02EFD5102492
003EFFFFFFF3
00017CEFEC71
ENDCHAR
STARTCHAR Ccaron
ENCODING 268
SWIDTH 630 0
DWIDTH 18 0
BBX 16 26 1 0
BITMAP
000007F91002BF40
0000007FD36EE400
00000007FFFF4000
000000009FF60000
0000000000000000
0000000000000000
0000005ADEFECA61
00005DFFFFFFFFF9
0007FFF9421359E3
005FFC2000000010
01EFD10000000000
07FF300000000000
0CFC000000000000
1FF7000000000000
3FF5000000000000
4FF4000000000000
4FF4000000000000
3FF4000000000000
1FF7000000000000
0DFB000000000000
09FF200000000000
02FFB00000000000
008FFA1000000000
000BFFE8421247A1
00008FFFFFFFFFF1
0000027BDFEDC950
ENDCHAR
STARTCHAR ccaron
ENCODING 269
SWIDTH 476 0
DWIDTH 13 0
BBX 12 21 1 0
BITMAP
004FB2001AF7
0005FE54EF60
00005FFFF600
000007FF8000
000000000000
000000000000
00017BEFDC82
003DFFFFFFF2
01EFD6212580
09FE20000000
0EF700000000
3FF200000000
5FF000000000
6FE000000000
5FF000000000
4FF200000000
1FF600000000
0AFE10000000
02EFD5102492
003EFFFFFFF3
00017CEFEC71
ENDCHAR
STARTCHAR Dcaron
ENCODING 270
SWIDTH 729 0
DWIDTH 20 0
BBX 17 26 2 0
BITMAP
001DE50006EC000000
0001CFA2BFB1000000
00001DFFFB10000000
000002EFD100000000
000000000000000000
000000000000000000
4FFFFFFEDB72000000
4FFFFFFFFFFF910000
4FF1000136CFFD2000
4FF100000006FFC000
4FF1000000005FF700
4FF1000000000AFE00
4FF10000000004FF40
4FF10000000000FF70
4FF10000000000DF90
4FF10000000000CFA0
4FF10000000000CFA0
4FF10000000000DF90
4FF10000000001FF70
4FF10000000005FF30
4FF1000000000CFD00
4FF1000000007FF600
4FF100000008FFB000
4FF1001248EFFC1000
4FFFFFFFFFFE800000
4FFFFFFEDA61000000
ENDCHAR
STARTCHAR dcaron
ENCODING 271
SWIDTH 612 0
DWIDTH 17 0
BBX 19 21 1 0
BITMAP
000000000008FB02FF20
000000000008FB05FB00
000000000008FB08F400
000000000008FB0D9000
000000000008FB000000
000000000008FB000000
00029DFEC607FB000000
005FFFEEFFC7FB000000
02FFC30017FFFB000000
0AFD1000006FFB000000
1FF60000000EFB000000
4FF20000000AFB000000
5FF000000009FB000000
6FE000000008FB000000
6FF000000008FB000000
4FF10000000AFB000000
1FF50000000DFB000000
0BFC0000005FFB000000
03FFB30016EEFB000000
005FFFEEFFC5FB000000
00029DFEC602FB000000
ENDCHAR
STARTCHAR Dcroat
ENCODING 272
SWIDTH 722 0
DWIDTH 20 0
BBX 19 20 0 0
BITMAP
004FFFFFFEDA61000000
004FFFFFFFFFFE700000
004FF1001247DFFB1000
004FF100000008FFA000
004FF1000000008FF400
004FF1000000000DFB00
004FF10000000007FF10
004FF10000000004FF40
004FF10000000001FF60
5FFFFFFFFF400000FF70
5FFFFFFFFF400000FF70
014FF21111000001FF50
004FF10000000004FF30
004FF10000000008FE00
004FF1000000001EFA00
004FF100000000AFF300
004FF10000001BFF8000
004FF1001259EFF90000
004FFFFFFFFFFD600000
004FFFFFFEC950000000
ENDCHAR
STARTCHAR dcroat
ENCODING 273
SWIDTH 612 0
DWIDTH 17 0
BBX 16 21 1 0
BITMAP
000000000008FB00
000000000008FB00
000000000008FB00
00000AFFFFFFFFFD
000007CCCCCDFECA
000000000008FB00
00029DFEC607FB00
005FFFEEFFC7FB00
02FFC30017FFFB00
0AFD1000006FFB00
1FF60000000EFB00
4FF20000000AFB00
5FF000000009FB00
6FE000000008FB00
6FF000000008FB00
4FF10000000AFB00
1FF50000000DFB00
0BFC0000005FFB00
03FFB30016EEFB00
005FFFEEFFC5FB00
00029DFEC602FB00
ENDCHAR
STARTCHAR Emacron
ENCODING 274
SWIDTH 556 0
DWIDTH 16 0
BBX 12 24 2 0
BITMAP
008DDDDDDD70
00AFFFFFFF80
000000000000
000000000000
4FFFFFFFFFFD
4FFFFFFFFFFD
4FF211111111
4FF100000000
4FF100000000
4FF100000000
4FF100000000
4FF100000000
4FF100000000
4FFFFFFFFFF5
4FFFFFFFFFF5
4FF211111110
4FF100000000
4FF100000000
4FF100000000
4FF100000000
4FF100000000
4FF211111111
4FFFFFFFFFFD
4FFFFFFFFFFD
ENDCHAR
STARTCHAR emacron
ENCODING 275
SWIDTH 561 0
DWIDTH 16 0
BBX 14 19 1 0
BITMAP
000ADDDDDDD600
000BFFFFFFF700
00000000000000
00000000000000
00017CEFD92000
002DFFEEFFE500
01DFC3002AFE30
08FD100000DFA0
0EF50000006FF0
3FF20000004FF3
5FFFFFFFFFFFF4
6FFDDDDDDDDDD3
5FF00000000000
4FF20000000000
0EF70000000000
09FE3000000000
01DFE720025980
002CFFFFFFFF90
00006BEFFDB710
ENDCHAR
STARTCHAR Ebreve
ENCODING 276
SWIDTH 556 0
DWIDTH 16 0
BBX 12 26 2 0
BITMAP
00AB00000D90
007F50008F50
001DFEDFFB00
0002AEFD8100
000000000000
000000000000
4FFFFFFFFFFD
4FFFFFFFFFFD
4FF211111111
4FF100000000
4FF100000000
4FF100000000
4FF100000000
4FF100000000
4FF100000000
4FFFFFFFFFF5
4FFFFFFFFFF5
4FF211111110
4FF100000000
4FF100000000
4FF100000000
4FF100000000
4FF100000000
4FF211111111
4FFFFFFFFFFD
4FFFFFFFFFFD
ENDCHAR
STARTCHAR ebreve
ENCODING 277
SWIDTH 561 0
DWIDTH 16 0
BBX 14 21 1 0
BITMAP
000E700002F500
000BD2001BF100
0003FFEEFF7000
00004BEFC60000
00000000000000
00000000000000
00017CEFD92000
002DFFEEFFE500
01DFC3002AFE30
08FD100000DFA0
0EF50000006FF0
3FF20000004FF3
5FFFFFFFFFFFF4
6FFDDDDDDDDDD3
5FF00000000000
4FF20000000000
0EF70000000000
09FE3000000000
01DFE720025980
002CFFFFFFFF90
00006BEFFDB710
ENDCHAR
STARTCHAR Edotaccent
ENCODING 278
SWIDTH 556 0
DWIDTH 16 0
BBX 12 25 2 0
BITMAP
000006E80000
00000BFD0000
000006E80000
000000000000
000000000000
4FFFFFFFFFFD
4FFFFFFFFFFD
4FF211111111
4FF100000000
4FF100000000
4FF100000000
4FF100000000
4FF100000000
4FF100000000
4FFFFFFFFFF5
4FFFFFFFFFF5
4FF211111110
4FF100000000
4FF100000000
4FF100000000
4FF100000000
4FF100000000
4FF211111111
4FFFFFFFFFFD
4FFFFFFFFFFD
ENDCHAR
STARTCHAR edotaccent
ENCODING 279
SWIDTH 561 0
DWIDTH 16 0
BBX 14 21 1 0
BITMAP
000000BE300000
000001FF800000
000000BE300000
00000000000000
00000000000000
00000000000000
00017CEFD92000
002DFFEEFFE500
01DFC3002AFE30
08FD100000DFA0
0EF50000006FF0
3FF20000004FF3
5FFFFFFFFFFFF4
6FFDDDDDDDDDD3
5FF00000000000
4FF20000000000
0EF70000000000
09FE3000000000
01DFE720025980
002CFFFFFFFF90
00006BEFFDB710
ENDCHAR
STARTCHAR Eogonek
ENCODING 280
SWIDTH 556 0
DWIDTH 16 0
BBX 12 26 2 -6
BITMAP
4FFFFFFFFFFD
4FFFFFFFFFFD
4FF211111111
4FF100000000
4FF100000000
4FF100000000
4FF100000000
4FF100000000
4FF100000000
4FFFFFFFFFF5
4FFFFFFFFFF5
4FF211111110
4FF100000000
4FF100000000
4FF100000000
4FF100000000
4FF100000000
4FF211111111
4FFFFFFFFFFD
4FFFFFFFFFFD
000000006F50
00000004F800
0000000BF200
0000000DF100
0000000BFC96
00000002BEE7
ENDCHAR
STARTCHAR eogonek
ENCODING 281
SWIDTH 561 0
DWIDTH 16 0
BBX 14 21 1 -6
BITMAP
00017CEFD92000
002DFFEEFFE500
01DFC3002AFE30
08FD100000DFA0
0EF50000006FF0
3FF20000004FF3
5FFFFFFFFFFFF4
6FFDDDDDDDDDD3
5FF00000000000
4FF20000000000
0EF70000000000
09FE3000000000
01DFE720025980
002CFFFFFFFF90
00006BEFFDC810
0000000009E300
000000007F6000
00000000EE0000
00000001FD0000
00000000DFB950
000000003CED50
ENDCHAR
STARTCHAR Ecaron
ENCODING 282
SWIDTH 556 0
DWIDTH 16 0
BBX 12 26 2 0
BITMAP
01CE50006EC0
001CFA2AFB10
0001DFFFB100
00002EFD1000
000000000000
000000000000
4FFFFFFFFFFD
4FFFFFFFFFFD
4FF211111111
4FF100000000
4FF100000000
4FF100000000
4FF100000000
4FF100000000
4FF100000000
4FFFFFFFFFF5
4FFFFFFFFFF5
4FF211111110
4FF100000000
4FF100000000
4FF100000000
4FF100000000
4FF100000000
4FF211111111
4FFFFFFFFFFD
4FFFFFFFFFFD
ENDCHAR
STARTCHAR ecaron
ENCODING 283
SWIDTH 561 0
DWIDTH 16 0
BBX 14 21 1 0
BITMAP
003EC30019F800
0003EF73DF8000
00003EFFF80000
000005FFA00000
00000000000000
00000000000000
00017CEFD92000
002DFFEEFFE500
01DFC3002AFE30
08FD100000DFA0
0EF50000006FF0
3FF20000004FF3
5FFFFFFFFFFFF4
6FFDDDDDDDDDD3
5FF00000000000
4FF20000000000
0EF70000000000
09FE3000000000
01DFE720025980
002CFFFFFFFF90
00006BEFFDB710
ENDCHAR
STARTCHAR Gcircumflex
ENCODING 284
SWIDTH 728 0
DWIDTH 20 0
BBX 18 26 1 0
BITMAP
000000002EFD100000
00000001DFFFB10000
0000001CF92BFB1000
000001CD50007EC000
000000000000000000
000000000000000000
00000038BEFFEC9510
00003BFFFFFFFFFFD0
0005FFFB632236AE70
004FFD300000000110
01DFD1000000000000
06FF40000000000000
0CFC00000000000000
1FF700000000000000
3FF400000000000000
4FF300000000000000
4FF30000007FFFFFF5
3FF40000007FFFFFF5
1FF700000011111FF5
0DFB00000000000FF5
08FF20000000000FF5
01FFC0000000000FF5
007FFB100000000FF5
0009FFE95211236FF5
00006EFFFFFFFFFFF5
0000016ADEFFECA730
ENDCHAR
STARTCHAR gcircumflex
ENCODING 285
SWIDTH 547 0
DWIDTH 15 0
BBX 15 28 0 -7
BITMAP
000001EFE1000000
00001CFFFC100000
0001BFA2AFC10000
000CE60006EC1000
0000000000000000
0000000000000000
00017CEFFFFFFFA0
001DFFCBDFFFA950
00AFD20005FF5000
01FF400000AFA000
04FF1000007FD000
04FF0000006FC000
02FF3000009FA000
00BFC10004FF3000
002DFEB9CFF70000
0002EFEFDA300000
001CE40000000000
006F900000000000
006FC20000000000
001DFFFFFFEB6000
004BFFFFFFFFF900
07FD51000138FF30
2FE200000000DF70
6FC000000000BF60
6FD000000002FF30
2FF81000016EFB00
05FFFDBBDFFFA100
0028CEFFEB830000
ENDCHAR
STARTCHAR Gbreve
ENCODING 286
SWIDTH 728 0
DWIDTH 20 0
BBX 18 26 1 0
BITMAP
0000006F100009D000
0000003F90004E9000
00000009FFDEFE1000
000000008DFEA20000
000000000000000000
000000000000000000
00000038BEFFEC9510
00003BFFFFFFFFFFD0
0005FFFB632236AE70
004FFD300000000110
01DFD1000000000000
06FF40000000000000
0CFC00000000000000
1FF700000000000000
3FF400000000000000
4FF300000000000000
4FF30000007FFFFFF5
3FF40000007FFFFFF5
1FF700000011111FF5
0DFB00000000000FF5
08FF20000000000FF5
01FFC0000000000FF5
007FFB100000000FF5
0009FFE95211236FF5
00006EFFFFFFFFFFF5
0000016ADEFFECA730
ENDCHAR
STARTCHAR gbreve
ENCODING 287
SWIDTH 547 0
DWIDTH 15 0
BBX 15 28 0 -7
BITMAP
0009D00000CA0000
0005F60006F60000
0000CFEDFFC00000
000019EFD9100000
0000000000000000
0000000000000000
00017CEFFFFFFFA0
001DFFCBDFFFA950
00AFD20005FF5000
01FF400000AFA000
04FF1000007FD000
04FF0000006FC000
02FF3000009FA000
00BFC10004FF3000
002DFEB9CFF70000
0002EFEFDA300000
001CE40000000000
006F900000000000
006FC20000000000
001DFFFFFFEB6000
004BFFFFFFFFF900
07FD51000138FF30
2FE200000000DF70
6FC000000000BF60
6FD000000002FF30
2FF81000016EFB00
05FFFDBBDFFFA100
0028CEFFEB830000
ENDCHAR
STARTCHAR Gdot
ENCODING 288
SWIDTH 728 0
DWIDTH 20 0
BBX 18 26 1 0
BITMAP
0000000002DC100000
0000000006FF300000
0000000002DC100000
000000000000000000
000000000000000000
000000000000000000
00000038BEFFEC9510
00003BFFFFFFFFFFD0
0005FFFB632236AE70
004FFD300000000110
01DFD1000000000000
06FF40000000000000
0CFC00000000000000
1FF700000000000000
3FF400000000000000
4FF300000000000000
4FF30000007FFFFFF5
3FF40000007FFFFFF5
1FF700000011111FF5
0DFB00000000000FF5
08FF20000000000FF5
01FFC0000000000FF5
007FFB100000000FF5
0009FFE95211236FF5
00006EFFFFFFFFFFF5
0000016ADEFFECA730
ENDCHAR
STARTCHAR gdot
ENCODING 289
SWIDTH 547 0
DWIDTH 15 0
BBX 15 28 0 -7
BITMAP
0000007E60000000
000000CFC0000000
0000007E60000000
0000000000000000
0000000000000000
0000000000000000
00017CEFFFFFFFA0
001DFFCBDFFFA950
00AFD20005FF5000
01FF400000AFA000
04FF1000007FD000
04FF0000006FC000
02FF3000009FA000
00BFC10004FF3000
002DFEB9CFF70000
0002EFEFDA300000
001CE40000000000
006F900000000000
006FC20000000000
001DFFFFFFEB6000
004BFFFFFFFFF900
07FD51000138FF30
2FE200000000DF70
6FC000000000BF60
6FD000000002FF30
2FF81000016EFB00
05FFFDBBDFFFA100
0028CEFFEB830000
ENDCHAR
STARTCHAR Gcommaaccent
ENCODING 290
SWIDTH 728 0
DWIDTH 20 0
BBX 18 26 1 -6
BITMAP
00000038BEFFEC9510
00003BFFFFFFFFFFD0
0005FFFB632236AE70
004FFD300000000110
01DFD1000000000000
06FF40000000000000
0CFC00000000000000
1FF700000000000000
3FF400000000000000
4FF300000000000000
4FF30000007FFFFFF5
3FF40000007FFFFFF5
1FF700000011111FF5
0DFB00000000000FF5
08FF20000000000FF5
01FFC0000000000FF5
007FFB100000000FF5
0009FFE95211236FF5
00006EFFFFFFFFFFF5
0000016ADEFFECA730
000000000000000000
000000000000000000
000000000DF6000000
000000002FE1000000
000000007F60000000
00000000CB00000000
ENDCHAR
STARTCHAR gcommaaccent
ENCODING 291
SWIDTH 547 0
DWIDTH 15 0
BBX 15 28 0 -7
BITMAP
00000001D8000000
0000000BF2000000
0000004FD0000000
000000AF90000000
0000000000000000
0000000000000000
00017CEFFFFFFFA0
001DFFCBDFFFA950
00AFD20005FF5000
01FF400000AFA000
04FF1000007FD000
04FF0000006FC000
02FF3000009FA000
00BFC10004FF3000
002DFEB9CFF70000
0002EFEFDA300000
001CE40000000000
006F900000000000
006FC20000000000
001DFFFFFFEB6000
004BFFFFFFFFF900
07FD51000138FF30
2FE200000000DF70
6FC000000000BF60
6FD000000002FF30
2FF81000016EFB00
05FFFDBBDFFFA100
0028CEFFEB830000
ENDCHAR
STARTCHAR Hcircumflex
ENCODING 292
SWIDTH 737 0
DWIDTH 21 0
BBX 16 26 2 0
BITMAP
0000003FFC000000
000002EFFFA00000
00002DF82CF90000
0002DD40008FA000
0000000000000000
0000000000000000
4FF10000000006FE
4FF10000000006FE
4FF10000000006FE
4FF10000000006FE
4FF10000000006FE
4FF10000000006FE
4FF10000000006FE
4FF10000000006FE
4FF10000000006FE
4FFFFFFFFFFFFFFE
4FFFFFFFFFFFFFFE
4FF21111111117FE
4FF10000000006FE
4FF10000000006FE
4FF10000000006FE
4FF10000000006FE
4FF10000000006FE
4FF10000000006FE
4FF10000000006FE
4FF10000000006FE
ENDCHAR
STARTCHAR hcircumflex
ENCODING 293
SWIDTH 613 0
DWIDTH 17 0
BBX 13 26 2 0
BITMAP
00000CFF300000
0000AFFFD20000
000AFC29FD2000
00AE70004DD200
00000000000000
9FA00000000000
9FA00000000000
9FA00000000000
9FA00000000000
9FA00000000000
9FA00000000000
9FA04AEFEB6000
9F99FFEEFFFA00
9FEF920029FF60
9FF8000000CFB0
9FF10000007FD0
9FC00000005FE0
9FB00000005FE0
9FA00000005FE0
9FA00000005FE0
9FA00000005FE0
9FA00000005FE0
9FA00000005FE0
9FA00000005FE0
9FA00000005FE0
9FA00000005FE0
ENDCHAR
STARTCHAR Hbar
ENCODING 294
SWIDTH 737 0
DWIDTH 21 0
BBX 21 20 0 0
BITMAP
004FF10000000006FE0000
004FF10000000006FE0000
004FF10000000006FE0000
FFFFFFFFFFFFFFFFFFFFA0
EEEFFEEEEEEEEEEEFFEE90
004FF10000000006FE0000
004FF10000000006FE0000
004FF10000000006FE0000
004FF10000000006FE0000
004FFFFFFFFFFFFFFE0000
004FFFFFFFFFFFFFFE0000
004FF21111111117FE0000
004FF10000000006FE0000
004FF10000000006FE0000
004FF10000000006FE0000
004FF10000000006FE0000
004FF10000000006FE0000
004FF10000000006FE0000
004FF10000000006FE0000
004FF10000000006FE0000
ENDCHAR
STARTCHAR hbar
ENCODING 295
SWIDTH 613 0
DWIDTH 17 0
BBX 15 21 0 0
BITMAP
009FA00000000000
009FA00000000000
009FA00000000000
BFFFFFFFFFC00000
8BDFEBBBBB900000
009FA00000000000
009FA029DFEB6000
009FA4EFFFFFFA00
009FAE92002AFF50
009FF9000000CFA0
009FF20000007FD0
009FD00000006FE0
009FB00000005FE0
009FA00000005FE0
009FA00000005FE0
009FA00000005FE0
009FA00000005FE0
009FA00000005FE0
009FA00000005FE0
009FA00000005FE0
009FA00000005FE0
ENDCHAR
STARTCHAR Itilde
ENCODING 296
SWIDTH 278 0
DWIDTH 8 0
BBX 11 26 -2 0
BITMAP
009ED60007E0
06FEFFA11DB0
0DB02BFFEF40
1F50006EE700
000000000000
000000000000
00004FF10000
00004FF10000
00004FF10000
00004FF10000
00004FF10000
00004FF10000
00004FF10000
00004FF10000
00004FF10000
00004FF10000
00004FF10000
00004FF10000
00004FF10000
00004FF10000
00004FF10000
00004FF10000
00004FF10000
00004FF10000
00004FF10000
00004FF10000
ENDCHAR
STARTCHAR itilde
ENCODING 297
SWIDTH 252 0
DWIDTH 7 0
BBX 11 21 -2 0
BITMAP
02CFB2000D80
0CFEFF604F50
3F505EFEFD00
7E0001AEC300
000000000000
000000000000
00009FA00000
00009FA00000
00009FA00000
00009FA00000
00009FA00000
00009FA00000
00009FA00000
00009FA00000
00009FA00000
00009FA00000
00009FA00000
00009FA00000
00009FA00000
00009FA00000
00009FA00000
ENDCHAR
STARTCHAR Imacron
ENCODING 298
SWIDTH 278 0
DWIDTH 8 0
BBX 9 24 -1 0
BITMAP
2DDDDDDDD0
3FFFFFFFF0
0000000000
0000000000
0004FF1000
0004FF1000
0004FF1000
0004FF1000
0004FF1000
0004FF1000
0004FF1000
0004FF1000
0004FF1000
0004FF1000
0004FF1000
0004FF1000
0004FF1000
0004FF1000
0004FF1000
0004FF1000
0004FF1000
0004FF1000
0004FF1000
0004FF1000
ENDCHAR
STARTCHAR imacron
ENCODING 299
SWIDTH 252 0
DWIDTH 7 0
BBX 9 19 -1 0
BITMAP
7DDDDDDD90
8FFFFFFFA0
0000000000
0000000000
0009FA0000
0009FA0000
0009FA0000
0009FA0000
0009FA0000
0009FA0000
0009FA0000
0009FA0000
0009FA0000
0009FA0000
0009FA0000
0009FA0000
0009FA0000
0009FA0000
0009FA0000
ENDCHAR
STARTCHAR Ibreve
ENCODING 300
SWIDTH 278 0
DWIDTH 8 0
BBX 10 26 -1 0
BITMAP
4F300006F1
1FB1003DB0
07FFDEFF30
006DFEB300
0000000000
0000000000
0004FF1000
0004FF1000
0004FF1000
0004FF1000
0004FF1000
0004FF1000
0004FF1000
0004FF1000
0004FF1000
0004FF1000
0004FF1000
0004FF1000
0004FF1000
0004FF1000
0004FF1000
0004FF1000
0004FF1000
0004FF1000
0004FF1000
0004FF1000
ENDCHAR
STARTCHAR ibreve
ENCODING 301
SWIDTH 252 0
DWIDTH 7 0
BBX 9 21 -1 0
BITMAP
9C00000CA0
6F60007F60
0CFEDFFC00
019EFD9100
0000000000
0000000000
0009FA0000
0009FA0000
0009FA0000
0009FA0000
0009FA0000
0009FA0000
0009FA0000
0009FA0000
0009FA0000
0009FA0000
0009FA0000
0009FA0000
0009FA0000
0009FA0000
0009FA0000
ENDCHAR
STARTCHAR Iogonek
ENCODING 302
SWIDTH 278 0
DWIDTH 8 0
BBX 5 26 1 -6
BITMAP
04FF10
04FF10
04FF10
04FF10
04FF10
04FF10
04FF10
04FF10
04FF10
04FF10
04FF10
04FF10
04FF10
04FF10
04FF10
04FF10
04FF10
04FF10
04FF10
04FF10
05F600
3FA000
AF3000
CF3000
9FC970
1AEE90
ENDCHAR
STARTCHAR iogonek
ENCODING 303
SWIDTH 252 0
DWIDTH 7 0
BBX 6 27 0 -6
BITMAP
007F80
00BFD0
006E70
000000
000000
000000
009FA0
009FA0
009FA0
009FA0
009FA0
009FA0
009FA0
009FA0
009FA0
009FA0
009FA0
009FA0
009FA0
009FA0
009FB0
01BD20
09F300
2FB000
4FB000
1FFA93
05DFD3
ENDCHAR
STARTCHAR Idotaccent
ENCODING 304
SWIDTH 278 0
DWIDTH 8 0
BBX 4 26 2 0
BITMAP
2DC1
6FF3
2DC1
0000
0000
0000
4FF1
4FF1
4FF1
4FF1
4FF1
4FF1
4FF1
4FF1
4FF1
4FF1
4FF1
4FF1
4FF1
4FF1
4FF1
4FF1
4FF1
4FF1
4FF1
4FF1
ENDCHAR
STARTCHAR dotlessi
ENCODING 305
SWIDTH 252 0
DWIDTH 7 0
BBX 3 15 2 0
BITMAP
9FA0
9FA0
9FA0
9FA0
9FA0
9FA0
9FA0
9FA0
9FA0
9FA0
9FA0
9FA0
9FA0
9FA0
9FA0
ENDCHAR
STARTCHAR IJ
ENCODING 306
SWIDTH 545 0
DWIDTH 15 0
BBX 11 25 2 -5
BITMAP
4FF100009FB0
4FF100009FB0
4FF100009FB0
4FF100009FB0
4FF100009FB0
4FF100009FB0
4FF100009FB0
4FF100009FB0
4FF100009FB0
4FF100009FB0
4FF100009FB0
4FF100009FB0
4FF100009FB0
4FF100009FB0
4FF100009FB0
4FF100009FB0
4FF100009FB0
4FF100009FB0
4FF100009FB0
4FF100009FB0
00000000AFA0
00000001EF70
0002323BFF20
0006FFFFF700
0004DFEB4000
ENDCHAR
STARTCHAR ij
ENCODING 307
SWIDTH 505 0
DWIDTH 14 0
BBX 10 28 2 -7
BITMAP
7F800006E9
BFD0000AFE
6E700005E9
0000000000
0000000000
0000000000
9FA00008FB
9FA00008FB
9FA00008FB
9FA00008FB
9FA00008FB
9FA00008FB
9FA00008FB
9FA00008FB
9FA00008FB
9FA00008FB
9FA00008FB
9FA00008FB
9FA00008FB
9FA00008FB
9FA00008FB
00000008FB
00000008FB
00000008FB
00000009FA
0001003EF7
0007FEFFE1
0005DFEA20
ENDCHAR
STARTCHAR Jcircumflex
ENCODING 308
SWIDTH 267 0
DWIDTH 7 0
BBX 12 31 -3 -5
BITMAP
00000BFF4000
00009FFFE300
0009FC38FE30
008F81004CE3
000000000000
000000000000
000006FE0000
000006FE0000
000006FE0000
000006FE0000
000006FE0000
000006FE0000
000006FE0000
000006FE0000
000006FE0000
000006FE0000
000006FE0000
000006FE0000
000006FE0000
000006FE0000
000006FE0000
000006FE0000
000006FE0000
000006FE0000
000006FE0000
000006FE0000
000008FD0000
00000CFA0000
13239FF50000
3FFFFFA00000
2DFEC6000000
ENDCHAR
STARTCHAR jcircumflex
ENCODING 309
SWIDTH 252 0
DWIDTH 7 0
BBX 10 28 -2 -7
BITMAP
0002EFD100
001DFFFB10
01CFA2BFB1
1CE50006EC
0000000000
0000000000
00009FA000
00009FA000
00009FA000
00009FA000
00009FA000
00009FA000
00009FA000
00009FA000
00009FA000
00009FA000
00009FA000
00009FA000
00009FA000
00009FA000
00009FA000
00009FA000
00009FA000
00009FA000
0000BF9000
1004FF6000
8FEFFD1000
6EFEA20000
ENDCHAR
STARTCHAR Kcommaaccent
ENCODING 310
SWIDTH 613 0
DWIDTH 17 0
BBX 15 26 2 -6
BITMAP
4FF100000005FF60
4FF10000004FF700
4FF1000003EF9000
4FF100002EFA0000
4FF10001DFB00000
4FF1001CFB100000
4FF101BFC1000000
4FF10AFD10000000
4FF19FF200000000
4FF9FFF700000000
4FFFCBFF30000000
4FFB11DFD1000000
4FF1003FFA000000
4FF10006FF600000
4FF10000AFE20000
4FF100001DFC1000
4FF1000003FF9000
4FF10000006FF500
4FF10000000AFE20
4FF100000001DFC0
0000000000000000
0000000000000000
000000FF40000000
000004FC00000000
000009F400000000
00000E8000000000
ENDCHAR
STARTCHAR kcommaaccent
ENCODING 311
SWIDTH 524 0
DWIDTH 15 0
BBX 13 27 2 -6
BITMAP
9FA00000000000
9FA00000000000
9FA00000000000
9FA00000000000
9FA00000000000
9FA00000000000
9FA000003EF700
9FA00003EF8000
9FA0002EF90000
9FA002DFA00000
9FA01DFA000000
9FA0CFB0000000
9F9AFF20000000
9FDFFFB0000000
9FFB5FF7000000
9FB008FF400000
9FA000BFE10000
9FA0001EFB0000
9FA00004FF8000
9FA000007FF400
9FA000000BFE10
00000000000000
00000000000000
00004FE1000000
00008F80000000
0000DE10000000
0004F400000000
ENDCHAR
STARTCHAR kgreenlandic
ENCODING 312
SWIDTH 518 0
DWIDTH 15 0
BBX 13 15 2 0
BITMAP
9FD000004FF800
9FD00003EFA000
9FD0001DFC1000
9FD000CFD10000
9FC00AFE300000
9FC07FF4000000
9FB5FF80000000
9FDEFFD1000000
9FFE5EFA000000
9FE205FF600000
9FD0009FE20000
9FD0001DFC0000
9FD00003FF9000
9FD000007FF400
9FD000000BFE10
ENDCHAR
STARTCHAR Lacute
ENCODING 313
SWIDTH 519 0
DWIDTH 15 0
BBX 12 26 2 0
BITMAP
0007FF600000
002EF7000000
00CF70000000
09F600000000
000000000000
000000000000
4FF100000000
4FF100000000
4FF100000000
4FF100000000
4FF100000000
4FF100000000
4FF100000000
4FF100000000
4FF100000000
4FF100000000
4FF100000000
4FF100000000
4FF100000000
4FF100000000
4FF100000000
4FF100000000
4FF100000000
4FF322222221
4FFFFFFFFFFD
4FFFFFFFFFFD
ENDCHAR
STARTCHAR lacute
ENCODING 314
SWIDTH 252 0
DWIDTH 7 0
BBX 6 26 2 0
BITMAP
007FF6
02EF70
0CF700
9F6000
000000
9FA000
9FA000
9FA000
9FA000
9FA000
9FA000
9FA000
9FA000
9FA000
9FA000
9FA000
9FA000
9FA000
9FA000
9FA000
9FA000
9FA000
9FA000
9FA000
9FA000
9FA000
ENDCHAR
STARTCHAR Lcommaaccent
ENCODING 315
SWIDTH 519 0
DWIDTH 15 0
BBX 12 26 2 -6
BITMAP
4FF100000000
4FF100000000
4FF100000000
4FF100000000
4FF100000000
4FF100000000
4FF100000000
4FF100000000
4FF100000000
4FF100000000
4FF100000000
4FF100000000
4FF100000000
4FF100000000
4FF100000000
4FF100000000
4FF100000000
4FF322222221
4FFFFFFFFFFD
4FFFFFFFFFFD
000000000000
000000000000
00003FF10000
00007F900000
0000CE200000
0003F5000000
ENDCHAR
STARTCHAR lcommaaccent
ENCODING 316
SWIDTH 252 0
DWIDTH 7 0
BBX 4 27 1 -6
BITMAP
09FA
09FA
09FA
09FA
09FA
09FA
09FA
09FA
09FA
09FA
09FA
09FA
09FA
09FA
09FA
09FA
09FA
09FA
09FA
09FA
09FA
0000
0000
0BF9
0EF2
5F80
AC10
ENDCHAR
STARTCHAR Lcaron
ENCODING 317
SWIDTH 519 0
DWIDTH 15 0
BBX 12 20 2 0
BITMAP
4FF10000EF60
4FF10002FE10
4FF10005F700
4FF1000AC000
4FF100000000
4FF100000000
4FF100000000
4FF100000000
4FF100000000
4FF100000000
4FF100000000
4FF100000000
4FF100000000
4FF100000000
4FF100000000
4FF100000000
4FF100000000
4FF322222221
4FFFFFFFFFFD
4FFFFFFFFFFD
ENDCHAR
STARTCHAR lcaron
ENCODING 318
SWIDTH 252 0
DWIDTH 7 0
BBX 8 21 2 0
BITMAP
9FA03FF1
9FA06FA0
9FA0AF30
9FA0E800
9FA00000
9FA00000
9FA00000
9FA00000
9FA00000
9FA00000
9FA00000
9FA00000
9FA00000
9FA00000
9FA00000
9FA00000
9FA00000
9FA00000
9FA00000
9FA00000
9FA00000
ENDCHAR
STARTCHAR Ldot
ENCODING 319
SWIDTH 519 0
DWIDTH 15 0
BBX 12 20 2 0
BITMAP
4FF100000000
4FF100000000
4FF100000000
4FF100000000
4FF100000000
4FF100000000
4FF100000000
4FF100000000
4FF10006E800
4FF1000AFE00
4FF10005E800
4FF100000000
4FF100000000
4FF100000000
4FF100000000
4FF100000000
4FF100000000
4FF322222221
4FFFFFFFFFFD
4FFFFFFFFFFD
ENDCHAR
STARTCHAR ldot
ENCODING 320
SWIDTH 313 0
DWIDTH 9 0
BBX 8 21 2 0
BITMAP
9FA00000
9FA00000
9FA00000
9FA00000
9FA00000
9FA00000
9FA00000
9FA00000
9FA00000
9FA00000
9FA02DC1
9FA05FF4
9FA02DC1
9FA00000
9FA00000
9FA00000
9FA00000
9FA00000
9FA00000
9FA00000
9FA00000
ENDCHAR
STARTCHAR Lslash
ENCODING 321
SWIDTH 522 0
DWIDTH 15 0
BBX 14 20 0 0
BITMAP
004FF100000000
004FF100000000
004FF100000000
004FF100000000
004FF100000000
004FF100000000
004FF100000000
004FF101960000
004FF16EFD0000
004FFCFFA20000
004FFFD4000000
05DFF800000000
6FFFF100000000
1C8FF100000000
004FF100000000
004FF100000000
004FF100000000
004FF322222221
004FFFFFFFFFFD
004FFFFFFFFFFD
ENDCHAR
STARTCHAR lslash
ENCODING 322
SWIDTH 261 0
DWIDTH 7 0
BBX 8 21 0 0
BITMAP
009FA000
009FA000
009FA000
009FA000
009FA000
009FA000
009FA000
009FA000
009FA4B0
009FEFF4
009FFD40
19FFC100
CFFFA000
69AFA000
009FA000
009FA000
009FA000
009FA000
009FA000
009FA000
009FA000
ENDCHAR
STARTCHAR Nacute
ENCODING 323
SWIDTH 753 0
DWIDTH 21 0
BBX 17 26 2 0
BITMAP
000000000CFE200000
000000007FE3000000
00000003FE30000000
0000000DD300000000
000000000000000000
000000000000000000
4FFA0000000000CF50
4FFF5000000000CF50
4FFFE100000000CF50
4FCEFA00000000CF50
4FB6FF50000000CF50
4FC0BFD1000000CF50
4FD02EF9000000CF50
4FD007FF400000CF50
4FD000CFD10000CF50
4FD0002FF80000CF50
4FD00007FF3000CF50
4FD00000CFD000CF50
4FD000003FF800CF50
4FD0000008FF30CF50
4FD0000000DFC0BF50
4FD00000004FF7AF50
4FD000000009FFCF50
4FD000000001DFFF50
4FD0000000004FFF50
4FD00000000009FF50
ENDCHAR
STARTCHAR nacute
ENCODING 324
SWIDTH 613 0
DWIDTH 17 0
BBX 13 21 2 0
BITMAP
0000000AFF3000
0000005FF50000
000002EF500000
00000CE4000000
00000000000000
00000000000000
9F504AEFEB6000
9F78FFFEFFFB00
9FEF920029FF60
9FF8000000CFB0
9FF10000007FD0
9FC00000005FE0
9FB00000005FE0
9FA00000005FE0
9FA00000005FE0
9FA00000005FE0
9FA00000005FE0
9FA00000005FE0
9FA00000005FE0
9FA00000005FE0
9FA00000005FE0
ENDCHAR
STARTCHAR Ncommaaccent
ENCODING 325
SWIDTH 753 0
DWIDTH 21 0
BBX 17 26 2 -6
BITMAP
4FFA0000000000CF50
4FFF5000000000CF50
4FFFE100000000CF50
4FCEFA00000000CF50
4FB6FF50000000CF50
4FC0BFD1000000CF50
4FD02EF9000000CF50
4FD007FF400000CF50
4FD000CFD10000CF50
4FD0002FF80000CF50
4FD00007FF3000CF50
4FD00000CFD000CF50
4FD000003FF800CF50
4FD0000008FF30CF50
4FD0000000DFC0BF50
4FD00000004FF7AF50
4FD000000009FFCF50
4FD000000001DFFF50
4FD0000000004FFF50
4FD00000000009FF50
000000000000000000
000000000000000000
0000001FF300000000
0000005FB000000000
000000AF3000000000
000001F70000000000
ENDCHAR
STARTCHAR ncommaaccent
ENCODING 326
SWIDTH 613 0
DWIDTH 17 0
BBX 13 21 2 -6
BITMAP
9F504AEFEB6000
9F78FFFEFFFB00
9FEF920029FF60
9FF8000000CFB0
9FF10000007FD0
9FC00000005FE0
9FB00000005FE0
9FA00000005FE0
9FA00000005FE0
9FA00000005FE0
9FA00000005FE0
9FA00000005FE0
9FA00000005FE0
9FA00000005FE0
9FA00000005FE0
00000000000000
00000000000000
00000BF9000000
00000EF2000000
00005F80000000
0000AC10000000
ENDCHAR
STARTCHAR Ncaron
ENCODING 327
SWIDTH 753 0
DWIDTH 21 0
BBX 17 26 2 0
BITMAP
0000CE60006EC10000
00001CFA2AFC100000
000001CFFFC1000000
0000001EFE10000000
000000000000000000
000000000000000000
4FFA0000000000CF50
4FFF5000000000CF50
4FFFE100000000CF50
4FCEFA00000000CF50
4FB6FF50000000CF50
4FC0BFD1000000CF50
4FD02EF9000000CF50
4FD007FF400000CF50
4FD000CFD10000CF50
4FD0002FF80000CF50
4FD00007FF3000CF50
4FD00000CFD000CF50
4FD000003FF800CF50
4FD0000008FF30CF50
4FD0000000DFC0BF50
4FD00000004FF7AF50
4FD000000009FFCF50
4FD000000001DFFF50
4FD0000000004FFF50
4FD00000000009FF50
ENDCHAR
STARTCHAR ncaron
ENCODING 328
SWIDTH 613 0
DWIDTH 17 0
BBX 13 21 2 0
BITMAP
00AE70004DE200
000AFC28FD2000
0000AFFFD20000
00001CFF300000
00000000000000
00000000000000
9F504AEFEB6000
9F78FFFEFFFB00
9FEF920029FF60
9FF8000000CFB0
9FF10000007FD0
9FC00000005FE0
9FB00000005FE0
9FA00000005FE0
9FA00000005FE0
9FA00000005FE0
9FA00000005FE0
9FA00000005FE0
9FA00000005FE0
9FA00000005FE0
9FA00000005FE0
ENDCHAR
STARTCHAR napostrophe
ENCODING 329
SWIDTH 681 0
DWIDTH 19 0
BBX 17 20 0 0
BITMAP
0AFF00000000000000
0DFB00000000000000
1FF700000000000000
3FF200000000000000
7FA000000000000000
AF40BF305BEFEB5000
DD00BF5AFFFFFFF800
0000BFEF82003BFF30
0000BFF6000001EF80
0000BFE0000000AFB0
0000BFA00000008FC0
0000BF800000008FC0
0000BF800000008FC0
0000BF800000008FC0
0000BF800000008FC0
0000BF800000008FC0
0000BF800000008FC0
0000BF800000008FC0
0000BF800000008FC0
0000BF800000008FC0
ENDCHAR
STARTCHAR Eng
ENCODING 330
SWIDTH 753 0
DWIDTH 21 0
BBX 17 25 2 -5
BITMAP
4FFB0000000000CF50
4FFF6000000000CF50
4FFFE100000000CF50
4FCEFA00000000CF50
4FB5FF50000000CF50
4FC0AFE1000000CF50
4FD01DFA000000CF50
4FD004FF500000CF50
4FD0009FE10000CF50
4FD0001DFA0000CF50
4FD00003FF5000CF50
4FD000008FE100CF50
4FD000000CFA00CF50
4FD0000003FF50CF50
4FD00000007FE1BF50
4FD00000000CFAAF50
4FD000000002EFDF50
4FD0000000006FFF50
4FD0000000000BFF50
4FD00000000002EF50
00000000000000EF40
00000000000004FF20
0000000003225DFB00
000000000CFFFFE200
0000000009EFD92000
ENDCHAR
STARTCHAR eng
ENCODING 331
SWIDTH 613 0
DWIDTH 17 0
BBX 13 22 2 -7
BITMAP
9F505BEFEB6000
9F8AFFFEFFFA00
9FFF92002AFF60
9FF8000000CFB0
9FF10000007FD0
9FC00000005FE0
9FB00000005FE0
9FA00000005FE0
9FA00000005FE0
9FA00000005FE0
9FA00000005FE0
9FA00000005FE0
9FA00000005FE0
9FA00000005FE0
9FA00000005FE0
00000000005FE0
00000000005FE0
00000000005FE0
00000000007FC0
0000000102DF90
0000000EEFFF20
0000000BEEC400
ENDCHAR
STARTCHAR Omacron
ENCODING 332
SWIDTH 778 0
DWIDTH 22 0
BBX 20 24 1 0
BITMAP
000002DDDDDDDD000000
000003FFFFFFFF000000
00000000000000000000
00000000000000000000
0000027BDEEDA6100000
00008FFFFFFFFFE50000
000BFFD732237DFF7000
008FF800000001AFF400
02FF90000000000CFD00
09FE100000000003FF50
0DFA000000000000CFA0
1FF60000000000009FD0
3FF40000000000007FF0
4FF30000000000006FF1
4FF30000000000006FF1
3FF40000000000007FF0
1FF60000000000009FD0
0DFA000000000000CFA0
09FE100000000003FF50
02FF90000000000BFD00
008FF700000000AFF400
000BFFC621137DFF7000
00008FFFFFFFFFE50000
0000027BDFEDA6100000
ENDCHAR
STARTCHAR omacron
ENCODING 333
SWIDTH 604 0
DWIDTH 17 0
BBX 15 19 1 0
BITMAP
0008DDDDDDD70000
000AFFFFFFF80000
0000000000000000
0000000000000000
00006BEFEB600000
002DFFFEFFFC1000
01DFD40015EFC000
09FD1000002EF700
0EF600000008FD00
3FF200000003FF20
5FF000000001FF40
6FE000000000FF50
5FF000000001FF40
3FF200000003FF20
0EF600000008FE00
08FE1000002EF700
01DFD40005DFD100
002CFFFEFFFC2000
00006BDFEB600000
ENDCHAR
STARTCHAR Obreve
ENCODING 334
SWIDTH 778 0
DWIDTH 22 0
BBX 20 26 1 0
BITMAP
000004F200007F000000
000001FA1003EB000000
0000007FFDEFF3000000
00000007DFEB30000000
00000000000000000000
00000000000000000000
0000027BDEEDA6100000
00008FFFFFFFFFE50000
000BFFD732237DFF7000
008FF800000001AFF400
02FF90000000000CFD00
09FE100000000003FF50
0DFA000000000000CFA0
1FF60000000000009FD0
3FF40000000000007FF0
4FF30000000000006FF1
4FF30000000000006FF1
3FF40000000000007FF0
1FF60000000000009FD0
0DFA000000000000CFA0
09FE100000000003FF50
02FF90000000000BFD00
008FF700000000AFF400
000BFFC621137DFF7000
00008FFFFFFFFFE50000
0000027BDFEDA6100000
ENDCHAR
STARTCHAR obreve
ENCODING 335
SWIDTH 604 0
DWIDTH 17 0
BBX 15 21 1 0
BITMAP
000BB00000D80000
0007F50018F40000
0001DFEDFFA00000
00002AEFD8100000
0000000000000000
0000000000000000
00006BEFEB600000
002DFFFEFFFC1000
01DFD40015EFC000
09FD1000002EF700
0EF600000008FD00
3FF200000003FF20
5FF000000001FF40
6FE000000000FF50
5FF000000001FF40
3FF200000003FF20
0EF600000008FE00
08FE1000002EF700
01DFD40005DFD100
002CFFFEFFFC2000
00006BDFEB600000
ENDCHAR
STARTCHAR Ohungarumlaut
ENCODING 336
SWIDTH 778 0
DWIDTH 22 0
BBX 20 26 1 0
BITMAP
00000000DFA01EF80000
00000008FD10AFB00000
0000003FD205FB100000
000000DC101EA1000000
00000000000000000000
00000000000000000000
0000027BDEEDA6100000
00008FFFFFFFFFE50000
000BFFD732237DFF7000
008FF800000001AFF400
02FF90000000000CFD00
09FE100000000003FF50
0DFA000000000000CFA0
1FF60000000000009FD0
3FF40000000000007FF0
4FF30000000000006FF1
4FF30000000000006FF1
3FF40000000000007FF0
1FF60000000000009FD0
0DFA000000000000CFA0
09FE100000000003FF50
02FF90000000000BFD00
008FF700000000AFF400
000BFFC621137DFF7000
00008FFFFFFFFFE50000
0000027BDFEDA6100000
ENDCHAR
STARTCHAR ohungarumlaut
ENCODING 337
SWIDTH 604 0
DWIDTH 17 0
BBX 15 21 1 0
BITMAP
000007FF309FE100
00002EF503FF4000
0000BF601DF40000
0006F5008E400000
0000000000000000
0000000000000000
00006BEFEB600000
002DFFFEFFFC1000
01DFD40015EFC000
09FD1000002EF700
0EF600000008FD00
3FF200000003FF20
5FF000000001FF40
6FE000000000FF50
5FF000000001FF40
3FF200000003FF20
0EF600000008FE00
08FE1000002EF700
01DFD40005DFD100
002CFFFEFFFC2000
00006BDFEB600000
ENDCHAR
STARTCHAR OE
ENCODING 338
SWIDTH 922 0
DWIDTH 26 0
BBX 24 20 1 0
BITMAP
0000027BDFFFFFFFFFFFFFF2
00009FFFFFFFFFFFFFFFFFF2
000BFFD732238FF211111110
009FF90000003FF200000000
03FFA00000003FF200000000
09FF100000003FF200000000
0DFA000000003FF200000000
1FF6000000003FF200000000
3FF4000000003FF200000000
4FF3000000003FFFFFFFFFA0
4FF3000000003FFFFFFFFFA0
3FF4000000003FF211111100
1FF6000000003FF200000000
0DFA000000003FF200000000
09FE100000003FF200000000
02FF900000003FF200000000
008FF80000003FF200000000
000BFFD631128FF311111110
00008FFFFFFFFFFFFFFFFFF2
0000027BDEFFFFFFFFFFFFF2
ENDCHAR
STARTCHAR oe
ENCODING 339
SWIDTH 941 0
DWIDTH 26 0
BBX 24 15 1 0
BITMAP
00017CEFD9300017CEEC7100
003EFFFEFFF702DFFEEFFD20
02EFB30017FF6CFA2003DFC0
0AFC0000005FFFC000003FF6
1FF50000000DFF5000000BFA
4FF200000009FF20000009FD
6FF000000007FFFFFFFFFFFE
7FE000000006FFDDDDDDDDDC
6FF000000007FF0000000000
4FF200000009FF2000000000
1EF60000000DFF7000000000
09FD1000005FFFE200000000
01DFB30016EF6AFD610136B4
002DFFFEFFF701BFFFFFFFF4
00017CEFD9300005BDFEDA50
ENDCHAR
STARTCHAR Racute
ENCODING 340
SWIDTH 618 0
DWIDTH 17 0
BBX 15 26 2 0
BITMAP
0000000AFF300000
0000005FF5000000
000002EF50000000
00000CE400000000
0000000000000000
0000000000000000
4FFFFFFEC9300000
4FFFFFFFFFF90000
4FF200125BFF8000
4FF1000000AFF100
4FF10000003FF400
4FF10000000FF600
4FF10000000FF500
4FF10000003FF300
4FF1000000BFC000
4FF100015CFE3000
4FFFFFFFFFC30000
4FFFFFFFFA000000
4FF10007FF200000
4FF10000CFB00000
4FF100004FF60000
4FF100000AFE1000
4FF1000001EFA000
4FF10000006FF400
4FF10000000CFD00
4FF100000003FF80
ENDCHAR
STARTCHAR racute
ENCODING 341
SWIDTH 408 0
DWIDTH 11 0
BBX 9 21 2 0
BITMAP
00000CFE10
00007FE300
0003FE3000
001DD20000
0000000000
0000000000
9F5029DFD0
9F63EFFFD0
9F9EE62220
9FFD200000
9FF4000000
9FD0000000
9FB0000000
9FA0000000
9FA0000000
9FA0000000
9FA0000000
9FA0000000
9FA0000000
9FA0000000
9FA0000000
ENDCHAR
STARTCHAR Rcommaaccent
ENCODING 342
SWIDTH 618 0
DWIDTH 17 0
BBX 15 26 2 -6
BITMAP
4FFFFFFEC9300000
4FFFFFFFFFF90000
4FF200125BFF8000
4FF1000000AFF100
4FF10000003FF400
4FF10000000FF600
4FF10000000FF500
4FF10000003FF300
4FF1000000BFC000
4FF100015CFE3000
4FFFFFFFFFC30000
4FFFFFFFFA000000
4FF10007FF200000
4FF10000CFB00000
4FF100004FF60000
4FF100000AFE1000
4FF1000001EFA000
4FF10000006FF400
4FF10000000CFD00
4FF100000003FF80
0000000000000000
0000000000000000
000003FF20000000
000007FA00000000
00000CE200000000
00002F6000000000
ENDCHAR
STARTCHAR rcommaaccent
ENCODING 343
SWIDTH 408 0
DWIDTH 11 0
BBX 10 21 1 -6
BITMAP
09F5029DFD
09F63EFFFD
09F9EE6222
09FFD20000
09FF400000
09FD000000
09FB000000
09FA000000
09FA000000
09FA000000
09FA000000
09FA000000
09FA000000
09FA000000
09FA000000
0000000000
0000000000
09FA000000
0DF3000000
3FA0000000
9D10000000
ENDCHAR
STARTCHAR Rcaron
ENCODING 344
SWIDTH 618 0
DWIDTH 17 0
BBX 15 26 2 0
BITMAP
00BE70005DD20000
000BFB29FD200000
0000BFFFD1000000
00001DFE20000000
0000000000000000
0000000000000000
4FFFFFFEC9300000
4FFFFFFFFFF90000
4FF200125BFF8000
4FF1000000AFF100
4FF10000003FF400
4FF10000000FF600
4FF10000000FF500
4FF10000003FF300
4FF1000000BFC000
4FF100015CFE3000
4FFFFFFFFFC30000
4FFFFFFFFA000000
4FF10007FF200000
4FF10000CFB00000
4FF100004FF60000
4FF100000AFE1000
4FF1000001EFA000
4FF10000006FF400
4FF10000000CFD00
4FF100000003FF80
ENDCHAR
STARTCHAR rcaron
ENCODING 345
SWIDTH 408 0
DWIDTH 11 0
BBX 10 21 1 0
BITMAP
1DD40007EB
02DF92CFA0
002DFFFA00
0003FFC000
0000000000
0000000000
09F5029DFD
09F63EFFFD
09F9EE6222
09FFD20000
09FF400000
09FD000000
09FB000000
09FA000000
09FA000000
09FA000000
09FA000000
09FA000000
09FA000000
09FA000000
09FA000000
ENDCHAR
STARTCHAR Sacute
ENCODING 346
SWIDTH 548 0
DWIDTH 15 0
BBX 13 26 1 0
BITMAP
00000003FF9000
0000000DFB0000
0000009FA00000
000005F9000000
00000000000000
00000000000000
0004ADFFEC9400
01AFFFFFFFFF50
09FFA42236AE10
1FF80000000000
4FF20000000000
4FF20000000000
1FF70000000000
0AFF6000000000
01DFFD61000000
0019FFFFA30000
000028EFFFA100
00000004BFFD10
0000000006FF90
00000000009FE0
00000000005FF0
00000000007FE0
1000000001DFA0
8C8421126DFE20
8FFFFFFFFFD300
27BDEFFDB61000
ENDCHAR
STARTCHAR sacute
ENCODING 347
SWIDTH 477 0
DWIDTH 13 0
BBX 11 21 1 0
BITMAP
0000009FF300
000004FF5000
00001DF50000
0000BE400000
000000000000
000000000000
004ADFEDB620
09FFFEFFFF80
4FF610026A20
8FA000000000
7FC000000000
2EFC40000000
04EFFD720000
0017DFFFA200
000004AFFE30
00000002DFC0
000000004FF0
000000004FF0
7A410004DFA0
8FFFEEFFFD20
17BEFFEB6000
ENDCHAR
STARTCHAR Scircumflex
ENCODING 348
SWIDTH 548 0
DWIDTH 15 0
BBX 13 26 1 0
BITMAP
000008FF700000
00006FFFF50000
0006FE45EF5000
005FA1002BF500
00000000000000
00000000000000
0004ADFFEC9400
01AFFFFFFFFF50
09FFA42236AE10
1FF80000000000
4FF20000000000
4FF20000000000
1FF70000000000
0AFF6000000000
01DFFD61000000
0019FFFFA30000
000028EFFFA100
00000004BFFD10
0000000006FF90
00000000009FE0
00000000005FF0
00000000007FE0
1000000001DFA0
8C8421126DFE20
8FFFFFFFFFD300
27BDEFFDB61000
ENDCHAR
STARTCHAR scircumflex
ENCODING 349
SWIDTH 477 0
DWIDTH 13 0
BBX 11 21 1 0
BITMAP
0000AFF50000
0008FFFE3000
008FD37FE300
07F91003CE30
000000000000
000000000000
004ADFEDB620
09FFFEFFFF80
4FF610026A20
8FA000000000
7FC000000000
2EFC40000000
04EFFD720000
0017DFFFA200
000004AFFE30
00000002DFC0
000000004FF0
000000004FF0
7A410004DFA0
8FFFEEFFFD20
17BEFFEB6000
ENDCHAR
STARTCHAR Scedilla
ENCODING 350
SWIDTH 548 0
DWIDTH 15 0
BBX 13 27 1 -7
BITMAP
0004ADFFEC9400
01AFFFFFFFFF50
09FFA42236AE10
1FF80000000000
4FF20000000000
4FF20000000000
1FF70000000000
0AFF6000000000
01DFFD61000000
0019FFFFA30000
000028EFFFA100
00000004BFFD10
0000000006FF90
00000000009FE0
00000000005FF0
00000000007FE0
1000000001DFA0
8C8421126DFE20
8FFFFFFFFFD300
27BDEFFDB61000
000006F2000000
00000DB0000000
00003FFA200000
0000016FC00000
0000000EE00000
000488BFA00000
0006FFD8100000
ENDCHAR
STARTCHAR scedilla
ENCODING 351
SWIDTH 477 0
DWIDTH 13 0
BBX 11 22 1 -7
BITMAP
004ADFEDB620
09FFFEFFFF80
4FF610026A20
8FA000000000
7FC000000000
2EFC40000000
04EFFD720000
0017DFFFA200
000004AFFE30
00000002DFC0
000000004FF0
000000004FF0
7A410004DFA0
8FFFEEFFFD20
17BEFFEB6000
00008E000000
0001E9000000
0005FE910000
000018FA0000
000001FD0000
00578CF80000
008FEC700000
ENDCHAR
STARTCHAR Scaron
ENCODING 352
SWIDTH 548 0
DWIDTH 15 0
BBX 13 26 1 0
BITMAP
007F91003CF400
0007FD36FE4000
00008FFFE40000
00000AFF500000
00000000000000
00000000000000
0004ADFFEC9400
01AFFFFFFFFF50
09FFA42236AE10
1FF80000000000
4FF20000000000
4FF20000000000
1FF70000000000
0AFF6000000000
01DFFD61000000
0019FFFFA30000
000028EFFFA100
00000004BFFD10
0000000006FF90
00000000009FE0
00000000005FF0
00000000007FE0
1000000001DFA0
8C8421126DFE20
8FFFFFFFFFD300
27BDEFFDB61000
ENDCHAR
STARTCHAR scaron
ENCODING 353
SWIDTH 477 0
DWIDTH 13 0
BBX 11 21 1 0
BITMAP
07F91003CE40
008FD36FE400
0008FFFE3000
0000AFF50000
000000000000
000000000000
004ADFEDB620
09FFFEFFFF80
4FF610026A20
8FA000000000
7FC000000000
2EFC40000000
04EFFD720000
0017DFFFA200
000004AFFE30
00000002DFC0
000000004FF0
000000004FF0
7A410004DFA0
8FFFEEFFFD20
17BEFFEB6000
ENDCHAR
STARTCHAR Tcedilla
ENCODING 354
SWIDTH 553 0
DWIDTH 15 0
BBX 16 27 0 -7
BITMAP
BFFFFFFFFFFFFFF4
BFFFFFFFFFFFFFF4
1111117FE1111110
0000006FE0000000
0000006FE0000000
0000006FE0000000
0000006FE0000000
0000006FE0000000
0000006FE0000000
0000006FE0000000
0000006FE0000000
0000006FE0000000
0000006FE0000000
0000006FE0000000
0000006FE0000000
0000006FE0000000
0000006FE0000000
0000006FE0000000
0000006FE0000000
0000006FE0000000
0000002F60000000
0000008F10000000
000000DFC4000000
00000004DF200000
000000009F400000
00001879FE100000
00002EFEA2000000
ENDCHAR
STARTCHAR tcedilla
ENCODING 355
SWIDTH 353 0
DWIDTH 10 0
BBX 10 25 0 -7
BITMAP
000AD00000
000ED00000
004FD00000
3AFFFFFFF3
7CDFECCCC2
006FD00000
006FD00000
006FD00000
006FD00000
006FD00000
006FD00000
006FD00000
006FD00000
006FD00000
005FF10000
002FFA1001
0009FFFEF4
00007DFEC3
00000CB000
00003F6000
00008FD700
000002AF70
0000004F90
000778DF50
000BFEB500
ENDCHAR
STARTCHAR Tcaron
ENCODING 356
SWIDTH 553 0
DWIDTH 15 0
BBX 16 26 0 0
BITMAP
0009F81003CE3000
00009FD27FE30000
000009FFFE200000
000000BFF4000000
0000000000000000
0000000000000000
BFFFFFFFFFFFFFF4
BFFFFFFFFFFFFFF4
1111117FE1111110
0000006FE0000000
0000006FE0000000
0000006FE0000000
0000006FE0000000
0000006FE0000000
0000006FE0000000
0000006FE0000000
0000006FE0000000
0000006FE0000000
0000006FE0000000
0000006FE0000000
0000006FE0000000
0000006FE0000000
0000006FE0000000
0000006FE0000000
0000006FE0000000
0000006FE0000000
ENDCHAR
STARTCHAR tcaron
ENCODING 357
SWIDTH 353 0
DWIDTH 10 0
BBX 10 21 0 0
BITMAP
00000007FC
0000000AF6
0000000DD0
000AD03F40
000ED00000
004FD00000
3AFFFFFFF3
7CDFECCCC2
006FD00000
006FD00000
006FD00000
006FD00000
006FD00000
006FD00000
006FD00000
006FD00000
006FD00000
005FF10000
002FFA1001
0009FFFEF4
00007DFEC3
ENDCHAR
STARTCHAR Tbar
ENCODING 358
SWIDTH 553 0
DWIDTH 15 0
BBX 16 20 0 0
BITMAP
BFFFFFFFFFFFFFF4
BFFFFFFFFFFFFFF4
1111117FE1111110
0000006FE0000000
0000006FE0000000
0000006FE0000000
0000006FE0000000
0000006FE0000000
0000006FE0000000
00BFFFFFFFFFF200
00AEEEEFFEEEE200
0000006FE0000000
0000006FE0000000
0000006FE0000000
0000006FE0000000
0000006FE0000000
0000006FE0000000
0000006FE0000000
0000006FE0000000
0000006FE0000000
ENDCHAR
STARTCHAR tbar
ENCODING 359
SWIDTH 353 0
DWIDTH 10 0
BBX 10 18 0 0
BITMAP
000AD00000
000ED00000
004FD00000
3AFFFFFFF3
7CDFECCCC2
006FD00000
006FD00000
006FD00000
5FFFFFFFE0
4CDFECCCB0
006FD00000
006FD00000
006FD00000
006FD00000
005FF10000
001FFA1001
0008FFFDF4
00007DFEC3
ENDCHAR
STARTCHAR Utilde
ENCODING 360
SWIDTH 728 0
DWIDTH 20 0
BBX 16 26 2 0
BITMAP
00005DE81003F300
0002FFEFD309E000
0009E118FFEF8000
000C90004CFA1000
0000000000000000
0000000000000000
7FD00000000007FD
7FD00000000007FD
7FD00000000007FD
7FD00000000007FD
7FD00000000007FD
7FD00000000007FD
7FD00000000007FD
7FD00000000007FD
7FD00000000007FD
7FD00000000007FD
7FD00000000007FD
7FD00000000007FD
7FD00000000007FD
6FE00000000008FC
4FF1000000000AFA
1FF7000000001FF6
09FE30000001BFE1
01DFE831126DFF40
002CFFFFFFFFE400
00005ADEFEB61000
ENDCHAR
STARTCHAR utilde
ENCODING 361
SWIDTH 613 0
DWIDTH 17 0
BBX 13 21 2 0
BITMAP
002CFB2000C800
00CFEFF703F500
03F605EFEFD000
06E0001AED3000
00000000000000
00000000000000
BF800000007FC0
BF800000007FC0
BF800000007FC0
BF800000007FC0
BF800000007FC0
BF800000007FC0
BF800000007FC0
BF800000007FC0
BF800000008FC0
BF80000000AFC0
AFA0000000DFC0
8FE1000005FFC0
3FFB20017FEFC0
08FFFFEFFB5FC0
005BEFEB603FC0
ENDCHAR
STARTCHAR Umacron
ENCODING 362
SWIDTH 728 0
DWIDTH 20 0
BBX 16 24 2 0
BITMAP
0000CDDDDDDD4000
0000EFFFFFFF4000
0000000000000000
0000000000000000
7FD00000000007FD
7FD00000000007FD
7FD00000000007FD
7FD00000000007FD
7FD00000000007FD
7FD00000000007FD
7FD00000000007FD
7FD00000000007FD
7FD00000000007FD
7FD00000000007FD
7FD00000000007FD
7FD00000000007FD
7FD00000000007FD
6FE00000000008FC
4FF1000000000AFA
1FF7000000001FF6
09FE30000001BFE1
01DFE831126DFF40
002CFFFFFFFFE400
00005ADEFEB61000
ENDCHAR
STARTCHAR umacron
ENCODING 363
SWIDTH 613 0
DWIDTH 17 0
BBX 13 19 2 0
BITMAP
007DDDDDDD9000
008FFFFFFFA000
00000000000000
00000000000000
BF800000007FC0
BF800000007FC0
BF800000007FC0
BF800000007FC0
BF800000007FC0
BF800000007FC0
BF800000007FC0
BF800000007FC0
BF800000008FC0
BF80000000AFC0
AFA0000000DFC0
8FE1000005FFC0
3FFB20017FEFC0
08FFFFEFFB5FC0
005BEFEB603FC0
ENDCHAR
STARTCHAR Ubreve
ENCODING 364
SWIDTH 728 0
DWIDTH 20 0
BBX 16 26 2 0
BITMAP
0000F600003F4000
0000BD2002BE1000
00003FFEEFF60000
000004BEFC500000
0000000000000000
0000000000000000
7FD00000000007FD
7FD00000000007FD
7FD00000000007FD
7FD00000000007FD
7FD00000000007FD
7FD00000000007FD
7FD00000000007FD
7FD00000000007FD
7FD00000000007FD
7FD00000000007FD
7FD00000000007FD
7FD00000000007FD
7FD00000000007FD
6FE00000000008FC
4FF1000000000AFA
1FF7000000001FF6
09FE30000001BFE1
01DFE831126DFF40
002CFFFFFFFFE400
00005ADEFEB61000
ENDCHAR
STARTCHAR ubreve
ENCODING 365
SWIDTH 613 0
DWIDTH 17 0
BBX 13 21 2 0
BITMAP
00AC00000C9000
006F50007F5000
000DFEDFFB0000
0002AEFD810000
00000000000000
00000000000000
BF800000007FC0
BF800000007FC0
BF800000007FC0
BF800000007FC0
BF800000007FC0
BF800000007FC0
BF800000007FC0
BF800000007FC0
BF800000008FC0
BF80000000AFC0
AFA0000000DFC0
8FE1000005FFC0
3FFB20017FEFC0
08FFFFEFFB5FC0
005BEFEB603FC0
ENDCHAR
STARTCHAR Uring
ENCODING 366
SWIDTH 728 0
DWIDTH 20 0
BBX 16 28 2 0
BITMAP
0000008DEA200000
000007F76DC00000
00000BA005F20000
00000BA005F20000
000007F86DC00000
0000008DEB200000
0000000000000000
0000000000000000
7FD00000000007FD
7FD00000000007FD
7FD00000000007FD
7FD00000000007FD
7FD00000000007FD
7FD00000000007FD
7FD00000000007FD
7FD00000000007FD
7FD00000000007FD
7FD00000000007FD
7FD00000000007FD
7FD00000000007FD
7FD00000000007FD
6FE00000000008FC
4FF1000000000AFA
1FF7000000001FF6
09FE30000001BFE1
01DFE831126DFF40
002CFFFFFFFFE400
00005ADEFEB61000
ENDCHAR
STARTCHAR uring
ENCODING 367
SWIDTH 613 0
DWIDTH 17 0
BBX 13 23 2 0
BITMAP
00004CEC500000
0002FB5AF30000
0006F100E80000
0006F100E70000
0002FB6AF30000
00004CEC500000
00000000000000
00000000000000
BF800000007FC0
BF800000007FC0
BF800000007FC0
BF800000007FC0
BF800000007FC0
BF800000007FC0
BF800000007FC0
BF800000007FC0
BF800000008FC0
BF80000000AFC0
AFA0000000DFC0
8FE1000005FFC0
3FFB20017FEFC0
08FFFFEFFB5FC0
005BEFEB603FC0
ENDCHAR
STARTCHAR Uhungarumlaut
ENCODING 368
SWIDTH 728 0
DWIDTH 20 0
BBX 16 26 2 0
BITMAP
0000009FE10BFD00
000003FE405FE200
00001DF402EE3000
00009E400BD20000
0000000000000000
0000000000000000
7FD00000000007FD
7FD00000000007FD
7FD00000000007FD
7FD00000000007FD
7FD00000000007FD
7FD00000000007FD
7FD00000000007FD
7FD00000000007FD
7FD00000000007FD
7FD00000000007FD
7FD00000000007FD
7FD00000000007FD
7FD00000000007FD
6FE00000000008FC
4FF1000000000AFA
1FF7000000001FF6
09FE30000001BFE1
01DFE831126DFF40
002CFFFFFFFFE400
00005ADEFEB61000
ENDCHAR
STARTCHAR uhungarumlaut
ENCODING 369
SWIDTH 613 0
DWIDTH 17 0
BBX 13 21 2 0
BITMAP
00004FF506FF30
0000DF801EF600
0008F900AF7000
004F8005F60000
00000000000000
00000000000000
BF800000007FC0
BF800000007FC0
BF800000007FC0
BF800000007FC0
BF800000007FC0
BF800000007FC0
BF800000007FC0
BF800000007FC0
BF800000008FC0
BF80000000AFC0
AFA0000000DFC0
8FE1000005FFC0
3FFB20017FEFC0
08FFFFEFFB5FC0
005BEFEB603FC0
ENDCHAR
STARTCHAR Uogonek
ENCODING 370
SWIDTH 728 0
DWIDTH 20 0
BBX 16 26 2 -6
BITMAP
7FD00000000007FD
7FD00000000007FD
7FD00000000007FD
7FD00000000007FD
7FD00000000007FD
7FD00000000007FD
7FD00000000007FD
7FD00000000007FD
7FD00000000007FD
7FD00000000007FD
7FD00000000007FD
7FD00000000007FD
7FD00000000007FD
6FE00000000008FC
4FF1000000000AFA
1FF7000000001FF6
09FE30000001BFE1
01DFE831126DFF40
002CFFFFFFFFE400
00005ADEFFB61000
00000008F4000000
0000006F60000000
000000DF00000000
000000FE00000000
000000DFB9500000
0000003CED600000
ENDCHAR
STARTCHAR uogonek
ENCODING 371
SWIDTH 613 0
DWIDTH 17 0
BBX 14 21 2 -6
BITMAP
BF800000007FC0
BF800000007FC0
BF800000007FC0
BF800000007FC0
BF800000007FC0
BF800000007FC0
BF800000007FC0
BF800000007FC0
BF800000008FC0
BF80000000AFC0
AFA0000000DFC0
8FE1000005FFC0
3FFB20017FEFC0
08FFFFEFFB5FC0
005BEFEB603FD0
0000000000AE30
0000000007F500
000000000ED000
000000002FD000
000000000EFA94
0000000004CED5
ENDCHAR
STARTCHAR Wcircumflex
ENCODING 372
SWIDTH 925 0
DWIDTH 26 0
BBX 26 26 0 0
BITMAP
000000000009FF600000000000
00000000007FFFF40000000000
0000000006FD46EF4000000000
000000006F91002BF400000000
00000000000000000000000000
00000000000000000000000000
7FE000000008FF400000001FF6
3FF30000000CFF800000005FF2
0EF70000002FFFD00000008FD0
0AFB0000006FBFF2000000CF90
06FE000000BF7BF7000001FF50
02FF400000EF37FC000005FF10
00DF800004FE02FF100009FC00
00AFB00009FA00DF60000DF800
006FF1000DF6008FA0001FF400
002FF4003FF1004FE0005FF100
000DF8007FC0000EF4009FB000
0009FC00BF70000AF900DF7000
0005FF11FF300005FD02FF3000
0001FF45FD000001FF35FE0000
0000CF78F9000000BF69FA0000
00008FABF50000007FACF60000
00004FDEF10000002FDEF20000
00000EFFB00000000DFFD00000
00000BFF6000000008FF900000
000007FF2000000004FF500000
ENDCHAR
STARTCHAR wcircumflex
ENCODING 373
SWIDTH 777 0
DWIDTH 22 0
BBX 22 21 0 0
BITMAP
0000000009FF6000000000
000000007FFFF400000000
00000007FD46FE40000000
0000006F91003BF4000000
0000000000000000000000
0000000000000000000000
8FC0000007FF5000001FF5
4FF100000CFF9000004FF1
1FF500002FDFE000008FC0
0BF900006F9DF40000CF80
07FD0000BF59F80001FF40
03FF1001FF15FD0005FE00
00EF5006FC01FF3008FA00
00AF900AF700BF700CF600
006FD01FF2006FC01FF200
001FF25FC0001FF25FD000
000CF59F70000CF69F9000
0008F9DF200007FACF5000
0004FDFD000002FDFF1000
0001FFF8000000DFFB0000
0000BFF30000008FF70000
ENDCHAR
STARTCHAR Ycircumflex
ENCODING 374
SWIDTH 560 0
DWIDTH 16 0
BBX 16 26 0 0
BITMAP
000000AFF5000000
000008FFFE300000
00008FD37FE30000
0007F91003CE3000
0000000000000000
0000000000000000
BFC0000000002FF6
3FF5000000009FD0
0AFD00000003FF50
02FF6000000AFC00
009FD100003FF400
001EF70000BFA000
0008FE1004FF2000
0001EF800CF90000
00006FE15FE10000
00000DF9DF800000
000005FFFE100000
000000CFF6000000
0000006FF0000000
0000005FF0000000
0000005FF0000000
0000005FF0000000
0000005FF0000000
0000005FF0000000
0000005FF0000000
0000005FF0000000
ENDCHAR
STARTCHAR ycircumflex
ENCODING 375
SWIDTH 503 0
DWIDTH 14 0
BBX 14 28 0 -7
BITMAP
000006FF900000
00004FFFF70000
0004EE64EF7000
004EB2001AF700
00000000000000
00000000000000
CFA000000008FD
6FF10000000DF8
1EF60000004FF2
09FC0000009FC0
03FF300000EF60
00CF800005FF10
006FE0000AFA00
001EF5001EF400
0009FA006FE000
0003FF10BF8000
0000CF61FF3000
00006FB6FC0000
00001EEBF60000
000009FFF10000
000003FFA00000
000001FF500000
000006FE000000
00000CF8000000
00005FF2000000
0005EF90000000
CEFFFC10000000
AEFD7000000000
ENDCHAR
STARTCHAR Ydieresis
ENCODING 376
SWIDTH 560 0
DWIDTH 16 0
BBX 16 26 0 0
BITMAP
00009E3006E60000
0000EF700BFA0000
00009E3006E60000
0000000000000000
0000000000000000
0000000000000000
BFC0000000002FF6
3FF5000000009FD0
0AFD00000003FF50
02FF6000000AFC00
009FD100003FF400
001EF70000BFA000
0008FE1004FF2000
0001EF800CF90000
00006FE15FE10000
00000DF9DF800000
000005FFFE100000
000000CFF6000000
0000006FF0000000
0000005FF0000000
0000005FF0000000
0000005FF0000000
0000005FF0000000
0000005FF0000000
0000005FF0000000
0000005FF0000000
ENDCHAR
STARTCHAR Zacute
ENCODING 377
SWIDTH 570 0
DWIDTH 16 0
BBX 14 26 1 0
BITMAP
00000006FF6000
0000002EF80000
000000BF800000
000008F6000000
00000000000000
00000000000000
8FFFFFFFFFFFF8
8FFFFFFFFFFFF8
11111111119FE2
0000000003FF70
000000000CFC00
000000008FF200
00000003FF7000
0000000CFC0000
0000007FF30000
000003FF700000
00000CFC000000
00007FF3000000
0002FF80000000
000CFC00000000
007FF300000000
02EF8000000000
0BFD0000000000
6FF52222222221
DFFFFFFFFFFFFD
DFFFFFFFFFFFFD
ENDCHAR
STARTCHAR zacute
ENCODING 378
SWIDTH 467 0
DWIDTH 13 0
BBX 11 21 1 0
BITMAP
000000AFF300
000004FF5000
00001EF50000
0000BE400000
000000000000
000000000000
6FFFFFFFFFC0
4CCCCCCCEFB0
00000003FF40
0000001DF800
0000009FC000
000005FF3000
00001EF70000
0000BFB00000
0006FE200000
002EF5000000
00CFA0000000
08FD10000000
3FF400000000
CFECCCCCCCB0
DFFFFFFFFFF0
ENDCHAR
STARTCHAR Zdotaccent
ENCODING 379
SWIDTH 570 0
DWIDTH 16 0
BBX 14 26 1 0
BITMAP
000001DD100000
000005FF400000
000001DD100000
00000000000000
00000000000000
00000000000000
8FFFFFFFFFFFF8
8FFFFFFFFFFFF8
11111111119FE2
0000000003FF70
000000000CFC00
000000008FF200
00000003FF7000
0000000CFC0000
0000007FF30000
000003FF700000
00000CFC000000
00007FF3000000
0002FF80000000
000CFC00000000
007FF300000000
02EF8000000000
0BFD0000000000
6FF52222222221
DFFFFFFFFFFFFD
DFFFFFFFFFFFFD
ENDCHAR
STARTCHAR zdotaccent
ENCODING 380
SWIDTH 467 0
DWIDTH 13 0
BBX 11 21 1 0
BITMAP
00006E800000
0000BFE00000
00006E800000
000000000000
000000000000
000000000000
6FFFFFFFFFC0
4CCCCCCCEFB0
00000003FF40
0000001DF800
0000009FC000
000005FF3000
00001EF70000
0000BFB00000
0006FE200000
002EF5000000
00CFA0000000
08FD10000000
3FF400000000
CFECCCCCCCB0
DFFFFFFFFFF0
ENDCHAR
STARTCHAR Zcaron
ENCODING 381
SWIDTH 570 0
DWIDTH 16 0
BBX 14 26 1 0
BITMAP
005FA2002BF500
0006FE45EF5000
00006FFFF50000
000008FF700000
00000000000000
00000000000000
8FFFFFFFFFFFF8
8FFFFFFFFFFFF8
11111111119FE2
0000000003FF70
000000000CFC00
000000008FF200
00000003FF7000
0000000CFC0000
0000007FF30000
000003FF700000
00000CFC000000
00007FF3000000
0002FF80000000
000CFC00000000
007FF300000000
02EF8000000000
0BFD0000000000
6FF52222222221
DFFFFFFFFFFFFD
DFFFFFFFFFFFFD
ENDCHAR
STARTCHAR zcaron
ENCODING 382
SWIDTH 467 0
DWIDTH 13 0
BBX 11 21 1 0
BITMAP
0BE60005DD10
01BFB29FC100
001BFFFD1000
0001DFE20000
000000000000
000000000000
6FFFFFFFFFC0
4CCCCCCCEFB0
00000003FF40
0000001DF800
0000009FC000
000005FF3000
00001EF70000
0000BFB00000
0006FE200000
002EF5000000
00CFA0000000
08FD10000000
3FF400000000
CFECCCCCCCB0
DFFFFFFFFFF0
ENDCHAR
STARTCHAR longs
ENCODING 383
SWIDTH 319 0
DWIDTH 9 0
BBX 8 21 2 0
BITMAP
005BEFD9
07FFFEFA
2FF91012
6FE00000
8FB00000
9FA00000
9FA00000
9FA00000
9FA00000
9FA00000
9FA00000
9FA00000
9FA00000
9FA00000
9FA00000
9FA00000
9FA00000
9FA00000
9FA00000
9FA00000
9FA00000
ENDCHAR
STARTCHAR florin
ENCODING 402
SWIDTH 577 0
DWIDTH 16 0
BBX 13 27 2 -7
BITMAP
0000004BEFDA20
000004FFFEFE10
00000CFC201300
00001FF4000000
00002FF2000000
00003FF1000000
00003FF1000000
016AEFFEEED000
03DDDFFDDDC000
00003FF2000000
00003FF2000000
00003FF2000000
00003FF2000000
00003FF2000000
00003FF2000000
00003FF2000000
00003FF2000000
00003FF2000000
00003FF2000000
00003FF2000000
00003FF2000000
00003FF2000000
00003FF2000000
00006FF0000000
1102CFC0000000
5FEFFF40000000
4EFEB400000000
ENDCHAR
STARTCHAR Ohorn
ENCODING 416
SWIDTH 779 0
DWIDTH 22 0
BBX 22 21 1 0
BITMAP
0000000000000000005FF4
0000027BDEEDA610006FF1
00008FFFFFFFFFE500BFA0
000BFFD732237DFF77FE20
008FF800000001AFFFC300
02FF90000000000CFE0000
09FE100000000003FF5000
0DFA000000000000DFA000
1FF60000000000009FD000
3FF40000000000007FF000
4FF30000000000006FF100
4FF30000000000006FF100
3FF40000000000007FF000
1FF60000000000009FD000
0DF9000000000000DF9000
09FE100000000003FF5000
02FF90000000000CFD0000
008FF700000000AFF40000
000BFFC621137DFF700000
00008FFFFFFFFFE5000000
0000027BDFEDA610000000
ENDCHAR
STARTCHAR ohorn
ENCODING 417
SWIDTH 608 0
DWIDTH 17 0
BBX 17 17 1 0
BITMAP
00000000000000DFB0
00000000000000EF80
00017BEFEB5003FF20
002DFFFEFFFC4CF900
01DFC40015DFFF9000
09FD1000001EF80000
0EF600000007FD0000
3FF200000003FF2000
5FF000000001FF4000
6FE000000000FF5000
5FF000000001FF4000
3FF200000003FF2000
0EF600000007FE0000
08FD1000001EF70000
01DFC40004DFD10000
002CFFFEFFFC200000
00006BDFEB60000000
ENDCHAR
STARTCHAR Uhorn
ENCODING 431
SWIDTH 768 0
DWIDTH 22 0
BBX 21 21 2 0
BITMAP
000000000000000000FF90
7FD00000000007FD01FF50
7FD00000000007FD06FE10
7FD00000000007FD8EF500
7FD00000000007FFFC3000
7FD00000000007FD200000
7FD00000000007FD000000
7FD00000000007FD000000
7FD00000000007FD000000
7FD00000000007FD000000
7FD00000000007FD000000
7FD00000000007FD000000
7FD00000000007FD000000
7FD00000000007FD000000
6FE00000000008FC000000
4FF1000000000AFA000000
1FF7000000001EF7000000
08FE30000000AFE1000000
01CFF941125CFF60000000
001BFFFFFFFFF600000000
000049DEFEC82000000000
ENDCHAR
STARTCHAR uhorn
ENCODING 432
SWIDTH 665 0
DWIDTH 19 0
BBX 18 17 2 0
BITMAP
000000000000002FF7
000000000000003FF4
BF800000007FC08FD0
BF800000007FD9FF40
BF800000007FFFD400
BF800000007FD30000
BF800000007FC00000
BF800000007FC00000
BF800000007FC00000
BF800000007FC00000
BF800000008FC00000
BF80000000AFC00000
AFA0000000DFC00000
8FE1000006FFC00000
3FFB20017FFFC00000
08FFFFEFFD7FC00000
005BEFEC713FC00000
ENDCHAR
STARTCHAR uni01F0
ENCODING 496
SWIDTH 252 0
DWIDTH 7 0
BBX 11 28 -2 -7
BITMAP
0CE60005ED10
01BFB29FC100
001CFFFC1000
0001DFE20000
000000000000
000000000000
00009FA00000
00009FA00000
00009FA00000
00009FA00000
00009FA00000
00009FA00000
00009FA00000
00009FA00000
00009FA00000
00009FA00000
00009FA00000
00009FA00000
00009FA00000
00009FA00000
00009FA00000
00009FA00000
00009FA00000
00009FA00000
0000BF900000
1004FF600000
8FEFFD100000
6EFEA2000000
ENDCHAR
STARTCHAR Aringacute
ENCODING 506
SWIDTH 634 0
DWIDTH 18 0
BBX 18 27 0 0
BITMAP
0000000005FF700000
000000001DFA000000
000000009FB0000000
00000004FA00000000
0000002AED80000000
000000CD68F8000000
000001F500AD000000
000002F500AD000000
000000CE79F8000000
0000001DFFB0000000
0000002FDFD0000000
0000008F7BF5000000
000000EF25FB000000
000005FB00EF200000
00000CF5008F900000
00003FD0002FE10000
00009F80000BF60000
0001EF200005FC0000
0007FA000000DF4000
000DFFFFFFFFFFA000
004FFFFFFFFFFFF100
00BF822222222DF700
02FF2000000007FD00
08FB0000000001FF50
0EF50000000000AFB0
6FE000000000003FF2
CF9000000000000CF9
ENDCHAR
STARTCHAR aringacute
ENCODING 507
SWIDTH 556 0
DWIDTH 16 0
BBX 13 27 1 0
BITMAP
00000009FFD200
0000006FF91000
000004FB300000
00000000000000
00001AED810000
0000BD67F90000
0001F6009E0000
0001F6009D0000
0000BD67F80000
00001AEE910000
00000000000000
00000000000000
0038BEFED92000
07FFFEDEFFE400
02D720003DFD00
0000000004FF20
0000000000FF40
0000000000EF40
00048BDEEFFF40
03DFFECBAAFF40
2EFC400000FF40
8FE1000000FF40
AFB0000004FF40
AFC000000BFF40
6FF80003BEEF40
0BFFFEEFE4AF40
007CFED9207F40
ENDCHAR
STARTCHAR AEacute
ENCODING 508
SWIDTH 873 0
DWIDTH 24 0
BBX 23 26 0 0
BITMAP
0000000000000004FF800000
000000000000001DFA000000
00000000000000AFA0000000
00000000000006F800000000
000000000000000000000000
000000000000000000000000
000000000BFFFFFFFFFFFFC0
000000003FFFFFFFFFFFFFC0
00000000AFB18FD111111110
00000002FF407FC000000000
0000000AFC007FC000000000
0000002FF5007FC000000000
0000009FD0007FC000000000
000001FF70007FC000000000
000008FE10007FC000000000
00001EF800007FFFFFFFFF40
00007FF200007FFFFFFFFF40
0001EF9000007FD111111100
0007FFFFFFFFFFC000000000
000EFFFFFFFFFFC000000000
006FF51111118FC000000000
00DFB00000007FC000000000
05FF300000007FC000000000
0DFA000000007FD111111110
5FF3000000007FFFFFFFFFC0
CFA0000000007FFFFFFFFFC0
ENDCHAR
STARTCHAR aeacute
ENCODING 509
SWIDTH 857 0
DWIDTH 24 0
BBX 22 21 1 0
BITMAP
000000000001EFC0000000
00000000000AFD10000000
00000000006FD200000000
0000000002EB1000000000
0000000000000000000000
0000000000000000000000
0028BEFEB60018DFEC6000
04FFFEEFFF92DFFEEFFA00
00C720007FFDFA1005EF80
000000000AFFC000007FE1
0000000006FF5000001FF5
0000000005FF2000000EF8
00059CDEEFFFEEEEEEEFF9
04DFFECBACFFDDDDDDDDD8
2EFB300006FF0000000000
8FE1000007FF2000000000
AFB000000AFF7000000000
AFC000002FFFE100000000
6FF70005EF4DFD510137B0
0BFFFDFFE502DFFFFFFFE0
007CFED8200017CEFEC830
ENDCHAR
STARTCHAR Oslashacute
ENCODING 510
SWIDTH 778 0
DWIDTH 22 0
BBX 20 27 1 -1
BITMAP
00000000007FF5000000
0000000002FF70000000
000000000CF700000000
000000009F6000000000
00000000000000000000
0000000000000001B200
0000027BDEFDB619FA00
00008FFFFFFFFFEFE200
000BFFD732248EFFA000
008FF80000000AFFF400
02FF900000006FECFD00
09FE10000002EF53FF50
0DFA0000000CF900DF90
1FF60000009FC0009FD0
3FF4000005FE20007FF0
4FF300002EF600006FF1
4FF30000CFA000006FF1
3FF40008FD1000007FF0
1FF6004FF30000009FD0
0DFA01EF70000000CFA0
09FE1BFB00000003FF50
02FFDFD10000000BFD00
008FFF400000009FF400
001FFFC621137DFF7000
008FDFFFFFFFFFE50000
02FF328BEFEDA6100000
00690000000000000000
ENDCHAR
STARTCHAR oslashacute
ENCODING 511
SWIDTH 604 0
DWIDTH 17 0
BBX 15 22 1 -1
BITMAP
00000002FFA00000
0000000CFB100000
0000008FB1000000
000004FA00000000
0000000000000000
000000000001B300
00006BEFDB58FA00
002DFFFEFFFFE200
01DFD40017FFC000
09FD10000AFFF700
0EF600006FD9FD00
3FF20003FF34FF20
5FF0001DF602FF40
6FE000AFA000FF50
5FF007FD1001FF40
3FF23FE30003FF20
0EF8DF600008FE00
08FFF900002EF700
01DFF50005DFD100
02EFFFFEFFFC2000
0BF86BEFEB600000
03B1000000000000
ENDCHAR
STARTCHAR Scommaaccent
ENCODING 536
SWIDTH 548 0
DWIDTH 15 0
BBX 13 26 1 -6
BITMAP
0004ADFFEC9400
01AFFFFFFFFF50
09FFA42236AE10
1FF80000000000
4FF20000000000
4FF20000000000
1FF70000000000
0AFF6000000000
01DFFD61000000
0019FFFFA30000
000028EFFFA100
00000004BFFD10
0000000006FF90
00000000009FE0
00000000005FF0
00000000007FE0
1000000001DFA0
8C8421126DFE20
8FFFFFFFFFD300
27BDEFFDB61000
00000000000000
00000000000000
00000CF7000000
00001FE1000000
00006F70000000
0000CB00000000
ENDCHAR
STARTCHAR scommaaccent
ENCODING 537
SWIDTH 477 0
DWIDTH 13 0
BBX 11 21 1 -6
BITMAP
004ADFEDB620
09FFFEFFFF80
4FF610026A20
8FA000000000
7FC000000000
2EFC40000000
04EFFD720000
0017DFFFA200
000004AFFE30
00000002DFC0
000000004FF0
000000004FF0
7A410004DFA0
8FFFEEFFFD20
17BEFFEB6000
000000000000
000000000000
0000DF600000
0002FE100000
0007F6000000
000CB0000000
ENDCHAR
STARTCHAR Tcommaaccent
ENCODING 538
SWIDTH 553 0
DWIDTH 15 0
BBX 16 26 0 -6
BITMAP
BFFFFFFFFFFFFFF4
BFFFFFFFFFFFFFF4
1111117FE1111110
0000006FE0000000
0000006FE0000000
0000006FE0000000
0000006FE0000000
0000006FE0000000
0000006FE0000000
0000006FE0000000
0000006FE0000000
0000006FE0000000
0000006FE0000000
0000006FE0000000
0000006FE0000000
0000006FE0000000
0000006FE0000000
0000006FE0000000
0000006FE0000000
0000006FE0000000
0000000000000000
0000000000000000
0000008FB0000000
000000CF50000000
000002FB00000000
000008E200000000
ENDCHAR
STARTCHAR tcommaaccent
ENCODING 539
SWIDTH 353 0
DWIDTH 10 0
BBX 10 24 0 -6
BITMAP
000AD00000
000ED00000
004FD00000
3AFFFFFFF3
7CDFECCCC2
006FD00000
006FD00000
006FD00000
006FD00000
006FD00000
006FD00000
006FD00000
006FD00000
006FD00000
005FF10000
002FFA1001
0009FFFEF4
00007DFEC3
0000000000
0000000000
00009FA000
0000DF4000
0003FA0000
0009D10000
ENDCHAR
STARTCHAR dotlessj
ENCODING 567
SWIDTH 252 0
DWIDTH 7 0
BBX 7 22 -2 -7
BITMAP
00009FA0
00009FA0
00009FA0
00009FA0
00009FA0
00009FA0
00009FA0
00009FA0
00009FA0
00009FA0
00009FA0
00009FA0
00009FA0
00009FA0
00009FA0
00009FA0
00009FA0
00009FA0
0000BF90
1004FF60
8FEFFD10
6EFEA200
ENDCHAR
STARTCHAR uni02BC
ENCODING 700
SWIDTH 169 0
DWIDTH 5 0
BBX 5 7 0 13
BITMAP
05FF50
08FF10
0BFC00
0DF600
2FE100
5F9000
8F3000
ENDCHAR
STARTCHAR circumflex
ENCODING 710
SWIDTH 591 0
DWIDTH 17 0
BBX 10 4 3 17
BITMAP
0004FFB000
003EFFF900
02EF73DF90
2EC30018F9
ENDCHAR
STARTCHAR caron
ENCODING 711
SWIDTH 591 0
DWIDTH 17 0
BBX 10 4 3 17
BITMAP
2EC40018F9
03EF72CF90
003EFFF900
0004FFB000
ENDCHAR
STARTCHAR macron
ENCODING 713
SWIDTH 586 0
DWIDTH 16 0
BBX 9 2 4 17
BITMAP
CDDDDDDD40
DFFFFFFF50
ENDCHAR
STARTCHAR breve
ENCODING 728
SWIDTH 591 0
DWIDTH 17 0
BBX 9 4 4 17
BITMAP
D800001F60
AE3001AF20
2FFEEFF800
03BEFC6000
ENDCHAR
STARTCHAR dotaccent
ENCODING 729
SWIDTH 252 0
DWIDTH 7 0
BBX 3 3 2 18
BITMAP
6E80
BFD0
6E80
ENDCHAR
STARTCHAR ring
ENCODING 730
SWIDTH 577 0
DWIDTH 16 0
BBX 7 6 5 17
BITMAP
19EE9100
9E76EA00
E8007F10
E8007F00
9E77EA00
19EEA100
ENDCHAR
STARTCHAR ogonek
ENCODING 731
SWIDTH 196 0
DWIDTH 6 0
BBX 6 7 0 -6
BITMAP
001100
02DB00
0CE100
5F8000
7F8000
4FE9A0
07DEC1
ENDCHAR
STARTCHAR tilde
ENCODING 732
SWIDTH 591 0
DWIDTH 17 0
BBX 11 4 3 17
BITMAP
01BFC3000BA0
0AFEFF802F70
1F704DFEFE10
4F10019ED400
ENDCHAR
STARTCHAR hungarumlaut
ENCODING 733
SWIDTH 577 0
DWIDTH 16 0
BBX 10 4 3 17
BITMAP
00AFD10CFC
04FE306FD2
1DE302ED20
AD300CC200
ENDCHAR
STARTCHAR uni02F3
ENCODING 755
SWIDTH 333 0
DWIDTH 9 0
BBX 7 6 1 -8
BITMAP
03CED600
1EC6AF50
5F200DA0
5F200D90
1EB69F40
03CED600
ENDCHAR
STARTCHAR uni0300
ENCODING 768
SWIDTH 0 0
DWIDTH 0 0
BBX 6 4 -13 17
BITMAP
9FF300
1BFC00
01BF80
0009F5
ENDCHAR
STARTCHAR uni0301
ENCODING 769
SWIDTH 0 0
DWIDTH 0 0
BBX 6 4 -11 17
BITMAP
001EFC
00AFD1
06FC10
2FB100
ENDCHAR
STARTCHAR uni0303
ENCODING 771
SWIDTH 0 0
DWIDTH 0 0
BBX 11 4 -14 17
BITMAP
03CEA2000E60
0DFEFE506F30
5F306EFEFC00
8C0002BFC200
ENDCHAR
STARTCHAR hook
ENCODING 777
SWIDTH 0 0
DWIDTH 0 0
BBX 6 6 -11 17
BITMAP
5FED70
377CF5
0004F8
026DF3
06F920
05F300
ENDCHAR
STARTCHAR uni030F
ENCODING 783
SWIDTH 0 0
DWIDTH 0 0
BBX 11 4 -15 17
BITMAP
3FF704FF5000
06FE107FD100
006FB008F900
0005F6007F40
ENDCHAR
STARTCHAR dotbelow
ENCODING 803
SWIDTH 0 0
DWIDTH 0 0
BBX 3 3 -10 -5
BITMAP
5E90
AFF0
5E90
ENDCHAR
STARTCHAR tonos
ENCODING 900
SWIDTH 577 0
DWIDTH 16 0
BBX 4 6 7 17
BITMAP
0DFA
1FF5
4FE1
7F80
BF20
F900
ENDCHAR
STARTCHAR dieresistonos
ENCODING 901
SWIDTH 577 0
DWIDTH 16 0
BBX 10 6 3 18
BITMAP
00000CFC00
00001FF400
00005FB000
0CD1AF2CD1
1FF4E72FF4
0BD1000CD1
ENDCHAR
STARTCHAR Alphatonos
ENCODING 902
SWIDTH 632 0
DWIDTH 18 0
BBX 18 21 0 0
BITMAP
07FF10000000000000
09FC0004FF10000000
0CF6000AFF70000000
1FE1001FEFD0000000
4F80007F9EF3000000
8E1000DF59F9000000
000004FF14FE100000
00000AFA00EF600000
00001FF4008FC00000
00007FE0003FF30000
0000DF80000CF90000
0004FF300007FE1000
000AFC000002FF6000
001FFFFFFFFFFFC000
006FFFFFFFFFFFF200
00CFA11111112EF800
03FF3000000009FE00
09FC0000000002FF50
1EF60000000000BFB0
6FE100000000005FF2
CF9000000000000DF8
ENDCHAR
STARTCHAR anoteleia
ENCODING 903
SWIDTH 266 0
DWIDTH 7 0
BBX 4 4 2 8
BITMAP
6EC1
DFF5
CFF4
3A70
ENDCHAR
STARTCHAR Epsilontonos
ENCODING 904
SWIDTH 618 0
DWIDTH 17 0
BBX 17 21 -1 0
BITMAP
06FF20000000000000
09FC08FFFFFFFFFF90
0CF608FFFFFFFFFF90
1FE108FC1111111110
4F8008FC0000000000
8E1008FC0000000000
000008FC0000000000
000008FC0000000000
000008FC0000000000
000008FC0000000000
000008FFFFFFFFFF10
000008FFFFFFFFFF10
000008FC1111111100
000008FC0000000000
000008FC0000000000
000008FC0000000000
000008FC0000000000
000008FC0000000000
000008FC1111111110
000008FFFFFFFFFF90
000008FFFFFFFFFF90
ENDCHAR
STARTCHAR Etatonos
ENCODING 905
SWIDTH 811 0
DWIDTH 23 0
BBX 21 21 -1 0
BITMAP
06FF200000000000000000
09FC03FF20000000005FF0
0CF603FF20000000005FF0
1FE103FF20000000005FF0
4F8003FF20000000005FF0
8E1003FF20000000005FF0
000003FF20000000005FF0
000003FF20000000005FF0
000003FF20000000005FF0
000003FF20000000005FF0
000003FFFFFFFFFFFFFFF0
000003FFFFFFFFFFFFFFF0
000003FF31111111116FF0
000003FF20000000005FF0
000003FF20000000005FF0
000003FF20000000005FF0
000003FF20000000005FF0
000003FF20000000005FF0
000003FF20000000005FF0
000003FF20000000005FF0
000003FF20000000005FF0
ENDCHAR
STARTCHAR Iotatonos
ENCODING 906
SWIDTH 361 0
DWIDTH 10 0
BBX 9 21 -1 0
BITMAP
03FF500000
06FF10EF60
09FA00EF60
0CF300EF60
1FC000EF60
5F4000EF60
000000EF60
000000EF60
000000EF60
000000EF60
000000EF60
000000EF60
000000EF60
000000EF60
000000EF60
000000EF60
000000EF60
000000EF60
000000EF60
000000EF60
000000EF60
ENDCHAR
STARTCHAR Omicrontonos
ENCODING 908
SWIDTH 812 0
DWIDTH 23 0
BBX 22 21 -1 0
BITMAP
03FF500000000000000000
06FF100027BDFEDA600000
09FA0009FFFFFFFFFD5000
0CF301BFFC732248EFF600
1FC009FF800000001BFF30
5F403FF90000000000CFD0
0000AFE100000000004FF4
0000EF9000000000000DF9
0002FF5000000000000AFC
0004FF30000000000008FE
0005FF20000000000007FF
0005FF20000000000007FF
0004FF30000000000008FE
0002FF5000000000000AFC
0000EF9000000000000DF9
0000AFE000000000004FF4
00003FF80000000000CFC0
000009FF700000001AFF30
000001BFFC621137DFF600
00000009FFFFFFFFFD4000
0000000027BDFEDA600000
ENDCHAR
STARTCHAR Upsilontonos
ENCODING 910
SWIDTH 689 0
DWIDTH 19 0
BBX 21 21 -1 0
BITMAP
06FF200000000000000000
09FC2FF70000000007FE10
0CF608FE100000001EF800
1FE101EF800000008FE100
4F80007FE1000001EF6000
8E10001DF9000009FD0000
00000006FF20002FF50000
00000000DF9000AFC00000
000000005FF303FF400000
000000000CFA0BFA000000
0000000004FF7FF2000000
0000000000BFFF90000000
00000000003FFE20000000
00000000000BFA00000000
00000000000BFA00000000
00000000000BFA00000000
00000000000BFA00000000
00000000000BFA00000000
00000000000BFA00000000
00000000000BFA00000000
00000000000BFA00000000
ENDCHAR
STARTCHAR Omegatonos
ENCODING 911
SWIDTH 812 0
DWIDTH 23 0
BBX 23 21 -1 0
BITMAP
03FF50000000000000000000
06FF100038CEFEDA61000000
09FA001AFFFFFFFFFE700000
0CF302DFFB632237DFF90000
1FC00CFE4000000009FF7000
5F406FF50000000000AFE100
0000CFC000000000002FF700
0001FF7000000000000CFA00
0003FF40000000000009FD00
0004FF20000000000008FE00
0005FF20000000000008FE00
0003FF40000000000009FD00
0001FF6000000000000BFA00
0000CFA000000000001FF600
00006FE100000000006FF100
00001DF80000000000DF8000
000004FF3000000008FD1000
0000008FD20000006FE30000
00011119FD300007FF411110
001FFFFFFFE0004FFFFFFFB0
001FFFFFFFF0005FFFFFFFB0
ENDCHAR
STARTCHAR iotadieresistonos
ENCODING 912
SWIDTH 338 0
DWIDTH 9 0
BBX 10 24 -1 0
BITMAP
00000FF900
00004FF200
00008F8000
1DB0CD2DB0
4FF3F45FF1
1DB0002DB0
0000000000
0000000000
0000000000
000BF80000
000BF80000
000BF80000
000BF80000
000BF80000
000BF80000
000BF80000
000BF80000
000BF80000
000BF80000
000AF90000
0009FB0000
0006FF4001
0001DFFEEF
00002AEFEB
ENDCHAR
STARTCHAR Alpha
ENCODING 913
SWIDTH 632 0
DWIDTH 18 0
BBX 18 20 0 0
BITMAP
00000004FF10000000
0000000AFF70000000
0000001FEFD0000000
0000007F9EF3000000
000000DF59F9000000
000004FF14FE100000
00000AFA00EF600000
00001FF4008FC00000
00007FE0003FF30000
0000DF80000CF90000
0004FF300007FE1000
000AFC000002FF6000
001FFFFFFFFFFFC000
006FFFFFFFFFFFF200
00CFA11111112EF800
03FF3000000009FE00
09FC0000000002FF50
1EF60000000000BFB0
6FE100000000005FF2
CF9000000000000DF8
ENDCHAR
STARTCHAR Beta
ENCODING 914
SWIDTH 647 0
DWIDTH 18 0
BBX 15 20 2 0
BITMAP
4FFFFFFEDB720000
4FFFFFFFFFFF6000
4FF1000137DFF400
4FF10000002EFA00
4FF100000009FD00
4FF100000008FD00
4FF100000009FB00
4FF10000001EF500
4FF1000025DF9000
4FFFFFFFFFA40000
4FFFFFFFFFEA3000
4FF10000149FF600
4FF100000007FF20
4FF100000001FF70
4FF100000000EF90
4FF100000001FF70
4FF100000008FF40
4FF1000014AFFB00
4FFFFFFFFFFFB100
4FFFFFFFEDA40000
ENDCHAR
STARTCHAR Gamma
ENCODING 915
SWIDTH 520 0
DWIDTH 15 0
BBX 12 20 2 0
BITMAP
4FFFFFFFFFFD
4FFFFFFFFFFD
4FF211111111
4FF100000000
4FF100000000
4FF100000000
4FF100000000
4FF100000000
4FF100000000
4FF100000000
4FF100000000
4FF100000000
4FF100000000
4FF100000000
4FF100000000
4FF100000000
4FF100000000
4FF100000000
4FF100000000
4FF100000000
ENDCHAR
STARTCHAR uni0394
ENCODING 916
SWIDTH 571 0
DWIDTH 16 0
BBX 16 20 0 0
BITMAP
0000005FF4000000
000000AFFA000000
000001EFFE000000
000005FBCF500000
00000AF78FA00000
00001EF34FE10000
00005FD00EF50000
0000AF9009FA0000
0001FF3004FF1000
0006FD0000EF6000
000BF800009FB000
001FF300004FF100
006FD000000EF600
00BF80000009FB00
01FF30000004FF10
06FD00000000EF60
0BF8000000009FB0
2FF4111111115FF2
6FFFFFFFFFFFFFF6
7FFFFFFFFFFFFFF7
ENDCHAR
STARTCHAR Epsilon
ENCODING 917
SWIDTH 556 0
DWIDTH 16 0
BBX 12 20 2 0
BITMAP
4FFFFFFFFFFD
4FFFFFFFFFFD
4FF211111111
4FF100000000
4FF100000000
4FF100000000
4FF100000000
4FF100000000
4FF100000000
4FFFFFFFFFF5
4FFFFFFFFFF5
4FF211111110
4FF100000000
4FF100000000
4FF100000000
4FF100000000
4FF100000000
4FF211111111
4FFFFFFFFFFD
4FFFFFFFFFFD
ENDCHAR
STARTCHAR Zeta
ENCODING 918
SWIDTH 570 0
DWIDTH 16 0
BBX 14 20 1 0
BITMAP
8FFFFFFFFFFFF8
8FFFFFFFFFFFF8
11111111119FE2
0000000003FF70
000000000CFC00
000000008FF200
00000003FF7000
0000000CFC0000
0000007FF30000
000003FF700000
00000CFC000000
00007FF3000000
0002FF80000000
000CFC00000000
007FF300000000
02EF8000000000
0BFD0000000000
6FF52222222221
DFFFFFFFFFFFFD
DFFFFFFFFFFFFD
ENDCHAR
STARTCHAR Eta
ENCODING 919
SWIDTH 737 0
DWIDTH 21 0
BBX 16 20 2 0
BITMAP
4FF10000000006FE
4FF10000000006FE
4FF10000000006FE
4FF10000000006FE
4FF10000000006FE
4FF10000000006FE
4FF10000000006FE
4FF10000000006FE
4FF10000000006FE
4FFFFFFFFFFFFFFE
4FFFFFFFFFFFFFFE
4FF21111111117FE
4FF10000000006FE
4FF10000000006FE
4FF10000000006FE
4FF10000000006FE
4FF10000000006FE
4FF10000000006FE
4FF10000000006FE
4FF10000000006FE
ENDCHAR
STARTCHAR Theta
ENCODING 920
SWIDTH 778 0
DWIDTH 22 0
BBX 20 20 1 0
BITMAP
0000027BDEEDA6100000
00008FFFFFFFFFE50000
000BFFD732237DFF7000
008FF800000001AFF400
02FF90000000000BFD00
09FE100000000003FF50
0DFA000000000000CFA0
1FF60000000000009FD0
3FF40000000000007FF0
4FF306FFFFFFFF306FF1
4FF306FFFFFFFF306FF1
3FF40000000000007FF0
1FF60000000000009FD0
0DFA000000000000CFA0
09FE100000000003FF50
02FF90000000000BFD00
008FF7000000009FF400
000BFFC621137DFF7000
00008FFFFFFFFFE50000
0000027BDFEDA6100000
ENDCHAR
STARTCHAR Iota
ENCODING 921
SWIDTH 278 0
DWIDTH 8 0
BBX 4 20 2 0
BITMAP
4FF1
4FF1
4FF1
4FF1
4FF1
4FF1
4FF1
4FF1
4FF1
4FF1
4FF1
4FF1
4FF1
4FF1
4FF1
4FF1
4FF1
4FF1
4FF1
4FF1
ENDCHAR
STARTCHAR Kappa
ENCODING 922
SWIDTH 613 0
DWIDTH 17 0
BBX 15 20 2 0
BITMAP
4FF100000005FF60
4FF10000004FF700
4FF1000003EF9000
4FF100002EFA0000
4FF10001DFB00000
4FF1001CFB100000
4FF101BFC1000000
4FF10AFD10000000
4FF19FF200000000
4FF9FFF700000000
4FFFCBFF30000000
4FFB11DFD1000000
4FF1003FFA000000
4FF10006FF600000
4FF10000AFE20000
4FF100001DFC1000
4FF1000003FF9000
4FF10000006FF500
4FF10000000AFE20
4FF100000001DFC0
ENDCHAR
STARTCHAR Lambda
ENCODING 923
SWIDTH 603 0
DWIDTH 17 0
BBX 17 20 0 0
BITMAP
0000000EFC00000000
0000005FFF30000000
000000AFEF80000000
000001FF8FD0000000
000006FD1FF4000000
00000CF80BFA000000
00002FF306FE100000
00007FD001FF500000
0000DF8000AFB00000
0003FF30005FF10000
0009FD00000EF70000
000EF7000009FC0000
004FF2000004FF3000
00AFC0000000DF8000
01EF600000008FD000
06FF100000003FF400
0BFB000000000DF900
2FF50000000007FE10
7FE10000000002FF50
CFA00000000000CFB0
ENDCHAR
STARTCHAR Mu
ENCODING 924
SWIDTH 902 0
DWIDTH 25 0
BBX 21 20 2 0
BITMAP
4FFF7000000000002FFF80
4FFFC000000000008FFF80
4FDFF30000000000DFDF80
4FCBF90000000004FCAF80
4FD5FE000000000AF7BF80
4FD0EF500000001FF1BF80
4FD09FB00000007FA0CF80
4FD03FF2000000CF40CF80
4FD00CF8000003FD00CF80
4FD006FD000009F800CF80
4FD001FF40001EF200CF80
4FD000AFA0006FB000CF80
4FD0004FF100BF5000CF80
4FD0000DF602FE1000CF80
4FD00008FC08F90000CF80
4FD00002FF3EF30000CF80
4FD00000BFDFC00000CF80
4FD000005FFF600000CF80
4FD000001EFF100000CF80
4FD0000009FA000000CF80
ENDCHAR
STARTCHAR Nu
ENCODING 925
SWIDTH 753 0
DWIDTH 21 0
BBX 17 20 2 0
BITMAP
4FFA0000000000CF50
4FFF5000000000CF50
4FFFE100000000CF50
4FCEFA00000000CF50
4FB6FF50000000CF50
4FC0BFD1000000CF50
4FD02EF9000000CF50
4FD007FF400000CF50
4FD000CFD10000CF50
4FD0002FF80000CF50
4FD00007FF3000CF50
4FD00000CFD000CF50
4FD000003FF800CF50
4FD0000008FF30CF50
4FD0000000DFC0BF50
4FD00000004FF7AF50
4FD000000009FFCF50
4FD000000001DFFF50
4FD0000000004FFF50
4FD00000000009FF50
ENDCHAR
STARTCHAR Xi
ENCODING 926
SWIDTH 553 0
DWIDTH 15 0
BBX 14 20 1 0
BITMAP
7FFFFFFFFFFFE0
7FFFFFFFFFFFE0
01111111111110
00000000000000
00000000000000
00000000000000
00000000000000
00000000000000
00000000000000
05FFFFFFFFFC00
05FFFFFFFFFC00
00111111111100
00000000000000
00000000000000
00000000000000
00000000000000
00000000000000
11111111111111
FFFFFFFFFFFFF8
FFFFFFFFFFFFF8
ENDCHAR
STARTCHAR Omicron
ENCODING 927
SWIDTH 778 0
DWIDTH 22 0
BBX 20 20 1 0
BITMAP
0000027BDEEDA6100000
00008FFFFFFFFFE50000
000BFFD732237DFF7000
008FF800000001AFF400
02FF90000000000CFD00
09FE100000000003FF50
0DFA000000000000CFA0
1FF60000000000009FD0
3FF40000000000007FF0
4FF30000000000006FF1
4FF30000000000006FF1
3FF40000000000007FF0
1FF60000000000009FD0
0DFA000000000000CFA0
09FE100000000003FF50
02FF90000000000BFD00
008FF700000000AFF400
000BFFC621137DFF7000
00008FFFFFFFFFE50000
0000027BDFEDA6100000
ENDCHAR
STARTCHAR Pi
ENCODING 928
SWIDTH 729 0
DWIDTH 20 0
BBX 16 20 2 0
BITMAP
4FFFFFFFFFFFFFFA
4FFFFFFFFFFFFFFA
4FF2111111111AFA
4FF1000000000AFA
4FF1000000000AFA
4FF1000000000AFA
4FF1000000000AFA
4FF1000000000AFA
4FF1000000000AFA
4FF1000000000AFA
4FF1000000000AFA
4FF1000000000AFA
4FF1000000000AFA
4FF1000000000AFA
4FF1000000000AFA
4FF1000000000AFA
4FF1000000000AFA
4FF1000000000AFA
4FF1000000000AFA
4FF1000000000AFA
ENDCHAR
STARTCHAR Rho
ENCODING 929
SWIDTH 602 0
DWIDTH 17 0
BBX 14 20 2 0
BITMAP
4FFFFFFEB82000
4FFFFFFFFFF800
4FF100126DFF70
4FF1000000BFF1
4FF10000003FF4
4FF10000000FF6
4FF10000001FF5
4FF10000004FF3
4FF1000001CFC0
4FF100137DFF30
4FFFFFFFFFD400
4FFFFFEDA50000
4FF10000000000
4FF10000000000
4FF10000000000
4FF10000000000
4FF10000000000
4FF10000000000
4FF10000000000
4FF10000000000
ENDCHAR
STARTCHAR Sigma
ENCODING 931
SWIDTH 566 0
DWIDTH 16 0
BBX 15 20 1 0
BITMAP
CFFFFFFFFFFFF700
CFFFFFFFFFFFF700
6FF5111111111100
08FE200000000000
00AFD10000000000
001CFB0000000000
0001DFA000000000
00003EF700000000
000005FF50000000
0000009FE1000000
000003EF60000000
00001DFA00000000
0000AFC100000000
0007FE2000000000
004FF40000000000
01EF800000000000
0BFB000000000000
8FE2111111111100
FFFFFFFFFFFFFF40
FFFFFFFFFFFFFF40
ENDCHAR
STARTCHAR Tau
ENCODING 932
SWIDTH 553 0
DWIDTH 15 0
BBX 16 20 0 0
BITMAP
BFFFFFFFFFFFFFF4
BFFFFFFFFFFFFFF4
1111117FE1111110
0000006FE0000000
0000006FE0000000
0000006FE0000000
0000006FE0000000
0000006FE0000000
0000006FE0000000
0000006FE0000000
0000006FE0000000
0000006FE0000000
0000006FE0000000
0000006FE0000000
0000006FE0000000
0000006FE0000000
0000006FE0000000
0000006FE0000000
0000006FE0000000
0000006FE0000000
ENDCHAR
STARTCHAR Upsilon
ENCODING 933
SWIDTH 560 0
DWIDTH 16 0
BBX 16 20 0 0
BITMAP
BFC0000000002FF6
3FF5000000009FD0
0AFD00000003FF50
02FF6000000AFC00
009FD100003FF400
001EF70000BFA000
0008FE1004FF2000
0001EF800CF90000
00006FE15FE10000
00000DF9DF800000
000005FFFE100000
000000CFF6000000
0000006FF0000000
0000005FF0000000
0000005FF0000000
0000005FF0000000
0000005FF0000000
0000005FF0000000
0000005FF0000000
0000005FF0000000
ENDCHAR
STARTCHAR Phi
ENCODING 934
SWIDTH 797 0
DWIDTH 22 0
BBX 20 20 1 0
BITMAP
000000000FF500000000
000000000FF500000000
000039CEFFFFFDB61000
001AFFFFFFFFFFFFD400
00CFF9410FF5026DFF30
08FF50000FF50001CFD0
0EF800000FF500003FF5
5FF200000FF500000CFA
7FE000000FF5000009FC
8FD000000FF5000008FD
6FE000000FF5000009FC
4FF300000FF500000DF9
0EF900000FF500004FF5
07FF60000FF50002DFC0
00BFFA410FF5027EFE20
0019FFFFFFFFFFFFC200
000038CEFFFFEDA50000
000000000FF500000000
000000000FF500000000
000000000FF500000000
ENDCHAR
STARTCHAR Chi
ENCODING 935
SWIDTH 577 0
DWIDTH 16 0
BBX 16 20 0 0
BITMAP
2FF7000000003FF4
07FE20000000CF90
00CFB0000007FD10
003FF500002FF400
0008FD1000BF9000
0000DF9006FE1000
00004FF31EF50000
000009FCAFA00000
000001DFFE100000
0000006FF8000000
000000DFFE100000
000007FCCFA00000
00002FF33FF40000
0000BF9009FD1000
0006FE1001EF8000
001EF500005FF300
00AFB000000BFC00
05FF20000002FF70
1DF7000000008FE2
9FD0000000001DFB
ENDCHAR
STARTCHAR Psi
ENCODING 936
SWIDTH 795 0
DWIDTH 22 0
BBX 20 20 1 0
BITMAP
8FD000000FF4000009FC
8FD000000FF4000009FC
8FD000000FF4000009FC
8FD000000FF4000009FC
8FD000000FF4000009FC
8FD000000FF4000009FC
8FD000000FF4000009FC
6FE000000FF400000AFB
4FF200000FF400000DF9
1EF800000FF400003FF4
08FF40000FF40001DFD0
01CFF9411FF4137EFE30
001BFFFFFFFFFFFFD300
000049DEFFFFFDB61000
000000001FF500000000
000000000FF400000000
000000000FF400000000
000000000FF400000000
000000000FF400000000
000000000FF400000000
ENDCHAR
STARTCHAR uni03A9
ENCODING 937
SWIDTH 782 0
DWIDTH 22 0
BBX 20 20 1 0
BITMAP
0000027BDFEDB7200000
00009FFFFFFFFFF80000
001CFFC632237CFFB000
00AFF6000000007FF900
04FF700000000008FF30
0AFD000000000001EF90
0EF9000000000000AFD0
1FF60000000000007FF0
2FF50000000000006FF1
2FF50000000000006FF1
1FF60000000000007FF0
0EF80000000000009FC0
0AFC000000000000DF80
04FF200000000004FF30
00CFA0000000000BFA00
003FF5000000006FE200
0006FE30000004FF5000
11117FE400005FF61111
EFFFFFFF1002FFFFFFFD
EFFFFFFF2003FFFFFFFD
ENDCHAR
STARTCHAR Iotadieresis
ENCODING 938
SWIDTH 278 0
DWIDTH 8 0
BBX 8 26 0 0
BITMAP
9E4006E6
EF800AFB
9E4006E6
00000000
00000000
00000000
004FF100
004FF100
004FF100
004FF100
004FF100
004FF100
004FF100
004FF100
004FF100
004FF100
004FF100
004FF100
004FF100
004FF100
004FF100
004FF100
004FF100
004FF100
004FF100
004FF100
ENDCHAR
STARTCHAR Upsilondieresis
ENCODING 939
SWIDTH 560 0
DWIDTH 16 0
BBX 16 26 0 0
BITMAP
0000AE3007E50000
0000FF700BFA0000
0000AE3007E50000
0000000000000000
0000000000000000
0000000000000000
BFC0000000002FF6
3FF5000000009FD0
0AFD00000003FF50
02FF6000000AFC00
009FD100003FF400
001EF70000BFA000
0008FE1004FF2000
0001EF800CF90000
00006FE15FE10000
00000DF9DF800000
000005FFFE100000
000000CFF6000000
0000006FF0000000
0000005FF0000000
0000005FF0000000
0000005FF0000000
0000005FF0000000
0000005FF0000000
0000005FF0000000
0000005FF0000000
ENDCHAR
STARTCHAR alphatonos
ENCODING 940
SWIDTH 610 0
DWIDTH 17 0
BBX 16 23 1 0
BITMAP
00000007FF100000
0000000AFB000000
0000000DF6000000
0000001FE0000000
0000005F70000000
0000009E10000000
0000000000000000
0000000000000000
00029DEEC810AF40
004EFFFEFFD2FF10
02FFC30027FEFE00
0AFD1000007FFD00
1FF60000000EFC00
4FF20000000BFB00
5FF000000009FB00
6FE000000008FB00
5FF000000009FB00
4FF10000000AFB00
1FF50000000EFB00
0AFC0000006FFB00
03FFB30017FEFD10
005FFFEEFFC3FFEA
00029DFEC7006DE8
ENDCHAR
STARTCHAR epsilontonos
ENCODING 941
SWIDTH 475 0
DWIDTH 13 0
BBX 12 23 1 0
BITMAP
000000AFD000
000000CF9000
000000FF3000
000004FC0000
000007F50000
00000BC00000
000000000000
000000000000
0029CEFDC940
05FFFFEFFFF2
1EFA30003780
4FF100000000
2FF100000000
0AFC52000000
007DFFFFC000
019EFFEEB000
1EFA30000000
8FB000000000
BF8000000000
AFB000000000
5FF9200015B4
08FFFFDEFFF4
0039DEFEDA50
ENDCHAR
STARTCHAR etatonos
ENCODING 942
SWIDTH 613 0
DWIDTH 17 0
BBX 13 30 2 -7
BITMAP
0000001FF70000
0000003FF30000
0000006FC00000
000000AF600000
000000ED000000
000003F6000000
00000000000000
00000000000000
9F505BEFEB6000
9F8AFFFEFFFA00
9FFF92002AFF50
9FF8000000CFB0
9FF10000007FD0
9FC00000005FE0
9FB00000005FE0
9FA00000005FE0
9FA00000005FE0
9FA00000005FE0
9FA00000005FE0
9FA00000005FE0
9FA00000005FE0
9FA00000005FE0
9FA00000005FE0
00000000005FE0
00000000005FE0
00000000005FE0
00000000005FE0
00000000005FE0
00000000005FE0
00000000005FE0
ENDCHAR
STARTCHAR iotatonos
ENCODING 943
SWIDTH 338 0
DWIDTH 9 0
BBX 7 23 2 0
BITMAP
03FF5000
06FF1000
09FA0000
0CF30000
1FC00000
5F400000
00000000
00000000
BF800000
BF800000
BF800000
BF800000
BF800000
BF800000
BF800000
BF800000
BF800000
BF800000
AF900000
9FB00000
6FF40010
1DFFEEF0
02AEFEB0
ENDCHAR
STARTCHAR upsilondieresistonos
ENCODING 944
SWIDTH 608 0
DWIDTH 17 0
BBX 14 24 2 0
BITMAP
0000000FF90000
0000004FF20000
0000008F800000
001DB0CD2DB000
004FF3F45FF100
001DB0002DB000
00000000000000
00000000000000
00000000000000
BF800000007FC0
BF800000004FF1
BF800000001FF3
BF800000000EF5
BF800000000DF7
BF800000000CF8
BF800000000BF8
BF800000000CF7
BF800000000DF7
AFA00000001FF4
7FD00000005FF1
3FF6000001DFA0
0BFF71003CFE20
02CFFFEEFFE400
0016BEFEC81000
ENDCHAR
STARTCHAR alpha
ENCODING 945
SWIDTH 610 0
DWIDTH 17 0
BBX 16 15 1 0
BITMAP
00029DEEC810AF40
004EFFFEFFD2FF10
02FFC30027FEFE00
0AFD1000007FFD00
1FF60000000EFC00
4FF20000000BFB00
5FF000000009FB00
6FE000000008FB00
5FF000000009FB00
4FF10000000AFB00
1FF50000000EFB00
0AFC0000006FFB00
03FFB30017FEFD10
005FFFEEFFC3FFEA
00029DFEC7006DE8
ENDCHAR
STARTCHAR beta
ENCODING 946
SWIDTH 627 0
DWIDTH 18 0
BBX 15 28 2 -7
BITMAP
0004ADEFDA500000
009FFFEFFFFB1000
08FF820028FFA000
1FF70000006FF200
6FE00000001FF500
8FB00000000EF600
9FA00000001FF400
9FA00000009FD000
9FA000014BFD3000
9FA008FFFB610000
9FA007EFFFD81000
9FA0000015DFD200
9FA00000001CFA00
9FA000000004FF10
9FA000000000FF40
9FA000000000FF40
9FA000000002FF20
9FA000000009FD00
9FF9410003AFF500
9FFFFFEDEFFF7000
9FA5ADEFEC820000
9FA0000000000000
9FA0000000000000
9FA0000000000000
9FA0000000000000
9FA0000000000000
9FA0000000000000
9FA0000000000000
ENDCHAR
STARTCHAR gamma
ENCODING 947
SWIDTH 512 0
DWIDTH 14 0
BBX 15 22 0 -7
BITMAP
AFA000000005FE10
4FF10000000BF900
0DF70000001FF400
06FD0000007FD000
01EF400000CF8000
009FA00002FF2000
003FF10008FB0000
000CF7000DF60000
0006FD004FE10000
0001EF409FA00000
00009F90EF400000
00002FE3FD000000
00000BFAF8000000
000005FFF2000000
000000EFC0000000
000000DF60000000
000003FF20000000
000007FD00000000
00000BFA00000000
00000EF700000000
00001FF500000000
00002FF400000000
ENDCHAR
STARTCHAR delta
ENCODING 948
SWIDTH 580 0
DWIDTH 16 0
BBX 15 21 1 0
BITMAP
000029DFEDA61000
0003EFFEEFFFE400
000CFC20016CE100
000FF50000002000
000EF70000000000
0009FE3000000000
0001DFF700000000
00001AFFD5000000
000016EFFFB10000
0006EFD75DFE3000
009FE50001AFE200
06FE3000000DFA00
1EF700000005FF10
4FF200000002FF40
6FE000000001FF40
6FF000000002FF30
4FF300000006FF10
0DFB0000001DFA00
05FFB40005DFE200
006EFFFEFFFD3000
00028CEFEB710000
ENDCHAR
STARTCHAR epsilon
ENCODING 949
SWIDTH 475 0
DWIDTH 13 0
BBX 12 15 1 0
BITMAP
0029CEFDC940
05FFFFEFFFF2
1EFA30003780
4FF100000000
2FF100000000
0AFC52000000
007DFFFFC000
019EFFEEB000
1EFA30000000
8FB000000000
BF8000000000
AFB000000000
5FF9200015B4
08FFFFDEFFF4
0039DEFEDA50
ENDCHAR
STARTCHAR zeta
ENCODING 950
SWIDTH 482 0
DWIDTH 14 0
BBX 12 26 1 -5
BITMAP
09FFFFFFFFFA
08EEEEEDDFFA
00000001BFB1
0000001CFA00
000002DF8000
00002DF80000
0001DF900000
000BFB000000
007FE1000000
02FF50000000
09FC00000000
0EF700000000
3FF200000000
5FF000000000
6FE000000000
5FF000000000
3FF500000000
0DFE40000000
04FFFC841000
003CFFFFFB40
000037ADFFF4
000000004EF9
000000000AF9
000000000DF6
000000004FD0
00000001DF50
ENDCHAR
STARTCHAR eta
ENCODING 951
SWIDTH 613 0
DWIDTH 17 0
BBX 13 22 2 -7
BITMAP
9F505BEFEB6000
9F8AFFFEFFFA00
9FFF92002AFF50
9FF8000000CFB0
9FF10000007FD0
9FC00000005FE0
9FB00000005FE0
9FA00000005FE0
9FA00000005FE0
9FA00000005FE0
9FA00000005FE0
9FA00000005FE0
9FA00000005FE0
9FA00000005FE0
9FA00000005FE0
00000000005FE0
00000000005FE0
00000000005FE0
00000000005FE0
00000000005FE0
00000000005FE0
00000000005FE0
ENDCHAR
STARTCHAR theta
ENCODING 952
SWIDTH 591 0
DWIDTH 17 0
BBX 14 21 1 0
BITMAP
00006BEFD92000
001BFFFEFFE500
00AFE50029FE30
03FF300000AFB0
09FA0000002FF2
0EF50000000CF7
2FF200000009FA
4FF000000007FC
5FE000000005FE
6FFFFFFFFFFFFF
6FFEEEEEEEEEFF
6FD000000005FF
5FE000000005FE
4FF100000007FD
1FF300000009FA
0DF60000000DF7
09FB0000003FF3
02FF400000BFC0
009FE5002AFF40
000AFFFEFFF600
00005BEFD93000
ENDCHAR
STARTCHAR iota
ENCODING 953
SWIDTH 338 0
DWIDTH 9 0
BBX 7 15 2 0
BITMAP
BF800000
BF800000
BF800000
BF800000
BF800000
BF800000
BF800000
BF800000
BF800000
BF800000
AF900000
9FB00000
6FF40010
1DFFEEF0
02AEFEB0
ENDCHAR
STARTCHAR kappa
ENCODING 954
SWIDTH 518 0
DWIDTH 15 0
BBX 13 15 2 0
BITMAP
9FD000004FF800
9FD00003EFA000
9FD0001DFC1000
9FD000CFD10000
9FC00AFE300000
9FC07FF4000000
9FB5FF80000000
9FDEFFD1000000
9FFE5EFA000000
9FE205FF600000
9FD0009FE20000
9FD0001DFC0000
9FD00003FF9000
9FD000007FF400
9FD000000BFE10
ENDCHAR
STARTCHAR lambda
ENCODING 955
SWIDTH 534 0
DWIDTH 15 0
BBX 16 21 -1 0
BITMAP
009EEC5000000000
00BEFFF500000000
000019FE10000000
000000DF70000000
0000007FD0000000
0000002FF3000000
0000000CF9000000
0000002FFE000000
0000009FFF500000
000001EF8FB00000
000007FA2FF20000
00000EF50CF70000
00006FD007FD0000
0000CF7002FF3000
0004FE1000BF9000
000BF900005FE000
003FF200001EF500
009FB0000009FB00
01FF40000004FF30
08FC00000000CFFD
1EF6000000003CFC
ENDCHAR
STARTCHAR uni03BC
ENCODING 956
SWIDTH 619 0
DWIDTH 17 0
BBX 13 22 2 -7
BITMAP
9FA00000005FE0
9FA00000005FE0
9FA00000005FE0
9FA00000005FE0
9FA00000005FE0
9FA00000005FE0
9FA00000005FE0
9FA00000005FE0
9FA00000006FE0
9FA00000007FE0
9FC0000000BFE0
9FF2000004FFE0
9FFC30016EFFE0
9FEFFFEFFE5FE0
9F95CFEC810FE0
9FA00000000000
9FA00000000000
9FA00000000000
9FA00000000000
9FA00000000000
9FA00000000000
9FA00000000000
ENDCHAR
STARTCHAR nu
ENCODING 957
SWIDTH 541 0
DWIDTH 15 0
BBX 14 15 0 0
BITMAP
CF8000000004FF
7FE000000004FF
1FF400000005FE
0BFA00000007FC
05FE10000008FA
00EF6000000BF7
009FB000000EF4
003FF200004FE0
000DF80000AF90
0007FD0003FF20
0002FF300BF900
0000BF807FE100
00005FD5FF4000
00001EFFF70000
000009FF900000
ENDCHAR
STARTCHAR xi
ENCODING 958
SWIDTH 475 0
DWIDTH 13 0
BBX 12 26 1 -5
BITMAP
09FFFFFFFFE0
08EDCEFFEDB0
0005CE830000
008FC2000000
02FF20000000
06FC00000000
07FB00000000
04FE20000000
00AFD6200000
0007DFFFFFA0
0018EFECCC80
01CFC4000000
0BFC10000000
3FF300000000
6FF000000000
6FF000000000
5FF300000000
1EFD20000000
05FFFB741000
004DFFFFFA30
000037ADFFF3
000000003DF9
0000000008F9
000000000BF6
000000002FE0
00000000BF50
ENDCHAR
STARTCHAR omicron
ENCODING 959
SWIDTH 604 0
DWIDTH 17 0
BBX 15 15 1 0
BITMAP
00006BEFEB600000
002DFFFEFFFC1000
01DFD40015EFC000
09FD1000002EF700
0EF600000008FD00
3FF200000003FF20
5FF000000001FF40
6FE000000000FF50
5FF000000001FF40
3FF200000003FF20
0EF600000008FE00
08FE1000002EF700
01DFD40005DFD100
002CFFFEFFFC2000
00006BDFEB600000
ENDCHAR
STARTCHAR pi
ENCODING 960
SWIDTH 649 0
DWIDTH 18 0
BBX 18 15 0 0
BITMAP
29FFFFFFFFFFFFFFF5
9EEFFFEEEEEEFFEEE5
000AFA000000DF6000
000AFA000000DF6000
000AFA000000DF6000
000AFA000000DF6000
000AFA000000DF6000
000AFA000000DF6000
000AFA000000DF6000
000AFA000000DF6000
000AFA000000DF6000
000AFA000000DF7000
000AFA000000BFA010
000AFA0000007FFED0
000AFA00000008DFB0
ENDCHAR
STARTCHAR rho
ENCODING 961
SWIDTH 604 0
DWIDTH 17 0
BBX 14 22 2 -7
BITMAP
00039DEEC71000
007FFFEFFFD300
06FF81003CFD10
0EF7000001DF80
5FE00000007FE0
8FB00000003FF2
AF900000001FF4
BF800000000FF5
BF800000001FF4
BF800000003FF2
BF800000007FE0
BF90000001DF80
BFFA40003CFD10
BFEFFFEFFFD300
BF85AEFEC71000
BF800000000000
BF800000000000
BF800000000000
BF800000000000
BF800000000000
BF800000000000
BF800000000000
ENDCHAR
STARTCHAR sigma1
ENCODING 962
SWIDTH 481 0
DWIDTH 14 0
BBX 12 20 1 -5
BITMAP
00005ADFEC94
002CFFFFFFF7
01DFE6212491
08FE20000000
0EF700000000
3FF300000000
5FF000000000
6FE000000000
6FE000000000
4FF100000000
1FF600000000
0AFE50000000
02DFFC841000
002BFFFFFB40
000027ADFFF4
000000003DF9
0000000007F9
000000000AF6
000000002FE1
00000000BF60
ENDCHAR
STARTCHAR sigma
ENCODING 963
SWIDTH 612 0
DWIDTH 17 0
BBX 16 15 1 0
BITMAP
000049CEFFFFFFF7
001BFFFFEEFFEEE7
01CFF83001DF6000
08FF3000004FF200
0EF80000000BFA00
3FF300000006FE00
5FF000000003FF30
6FE000000001FF40
6FF000000001FF40
4FF200000003FF20
1FF600000007FD00
0AFD1000001EF700
02EFD40005DFC000
003EFFFEFFFC2000
00017CEFDB500000
ENDCHAR
STARTCHAR tau
ENCODING 964
SWIDTH 473 0
DWIDTH 13 0
BBX 13 15 0 0
BITMAP
3AFFFFFFFFFF80
BEEEFFFEEEEE70
0000AF90000000
0000AF90000000
0000AF90000000
0000AF90000000
0000AF90000000
0000AF90000000
0000AF90000000
0000AF90000000
0000AFA0000000
00009FD0000000
00005FF8100100
00000CFFFEEC00
0000018DFFD800
ENDCHAR
STARTCHAR upsilon
ENCODING 965
SWIDTH 608 0
DWIDTH 17 0
BBX 14 15 2 0
BITMAP
BF800000007FC0
BF800000004FF1
BF800000001FF3
BF800000000EF5
BF800000000DF7
BF800000000CF8
BF800000000BF8
BF800000000CF7
BF800000000DF7
AFA00000001FF4
7FD00000005FF1
3FF6000001DFA0
0BFF71003CFE20
02CFFFEEFFE400
0016BEFEC81000
ENDCHAR
STARTCHAR phi
ENCODING 966
SWIDTH 717 0
DWIDTH 20 0
BBX 18 22 1 -7
BITMAP
001B400004BEEC6000
00AFE1004FFFFFF900
03FF5000CFC107FF60
0AFC0001FF4000AFD0
0EF50003FF10004FF3
4FF10003FF00000FF6
5FE00003FF00000DF8
6FD00003FF00000DF8
5FE00003FF00000EF6
3FF20003FF00002FF4
0EF80003FF00009FD0
08FF3003FF0005FF60
01DFE823FF039FFA00
002CFFFEFFEFFF8000
00005ADFFFEC820000
00000003FF00000000
00000003FF00000000
00000003FF00000000
00000003FF00000000
00000003FF00000000
00000003FF00000000
00000003FF00000000
ENDCHAR
STARTCHAR chi
ENCODING 967
SWIDTH 545 0
DWIDTH 15 0
BBX 17 22 -1 -7
BITMAP
03EFB20000004FF300
03DFFC000000BFA000
0004FF500004FF2000
0000AFB0000CF80000
00003FF2005FE10000
00000CF800CF700000
000007FD05FD000000
000001FF5DF6000000
000000AFEFC0000000
0000004FFF40000000
0000001FFC00000000
0000008FFE00000000
000002EFFF50000000
000009FB9FB0000000
00003FF34FF2000000
0000BFA00DF7000000
0004FF2007FD000000
000CF90002FF400000
005FE10000BFA00000
00DF8000004FF60000
07FE1000000AFFEE10
1EF6000000008DFD10
ENDCHAR
STARTCHAR psi
ENCODING 968
SWIDTH 752 0
DWIDTH 21 0
BBX 18 28 2 -7
BITMAP
00000008FB00000000
00000008FB00000000
00000008FB00000000
00000008FB00000000
00000008FB00000000
00000008FB00000000
BF800008FB0000AF90
BF800008FB00007FB0
BF800008FB00005FE0
BF800008FB00002FF2
BF800008FB00001FF3
BF800008FB00000FF4
BF800008FB00000EF5
BF800008FB00000EF5
AF900008FB00001FF3
8FC00008FB00005FF1
4FF20008FB0000BFB0
0DFC1008FB0008FF40
04FFD518FB15BFF800
005EFFFFFFFFFE7000
00017BEFFFEB720000
00000008FB00000000
00000008FB00000000
00000008FB00000000
00000008FB00000000
00000008FB00000000
00000008FB00000000
00000008FB00000000
ENDCHAR
STARTCHAR omega
ENCODING 969
SWIDTH 772 0
DWIDTH 22 0
BBX 20 15 1 0
BITMAP
00EF60000000000BF900
05FE100000000005FE10
0AFA000000000001FF50
0EF6000000000000BF90
2FF30000000000008FC0
5FF000004FE000006FE0
6FE000004FE000005FF0
6FE000004FE000004FF1
6FE000004FE000004FF0
4FF100005FE000006FE0
1FF400006FF100009FB0
0CFA0000BFF50001EF70
05FF7017FCFD301BFE10
009FFFFFE38FFEFFF400
0006CEEB3006CEEA3000
ENDCHAR
STARTCHAR iotadieresis
ENCODING 970
SWIDTH 338 0
DWIDTH 9 0
BBX 9 21 0 0
BITMAP
8E4005E700
DF900AFC00
8E4005E700
0000000000
0000000000
0000000000
00BF800000
00BF800000
00BF800000
00BF800000
00BF800000
00BF800000
00BF800000
00BF800000
00BF800000
00BF800000
00AF900000
009FB00000
006FF40010
001DFFEEF0
0002AEFEB0
ENDCHAR
STARTCHAR upsilondieresis
ENCODING 971
SWIDTH 608 0
DWIDTH 17 0
BBX 14 21 2 0
BITMAP
000AE3007E5000
000FF700BFA000
000AE3006E5000
00000000000000
00000000000000
00000000000000
BF800000007FC0
BF800000004FF1
BF800000001FF3
BF800000000EF5
BF800000000DF7
BF800000000CF8
BF800000000BF8
BF800000000CF7
BF800000000DF7
AFA00000001FF4
7FD00000005FF1
3FF6000001DFA0
0BFF71003CFE20
02CFFFEEFFE400
0016BEFEC81000
ENDCHAR
STARTCHAR omicrontonos
ENCODING 972
SWIDTH 604 0
DWIDTH 17 0
BBX 15 23 1 0
BITMAP
00000006FF200000
00000009FC000000
0000000CF6000000
0000001FE1000000
0000004F80000000
0000008E10000000
0000000000000000
0000000000000000
00006BEFEB600000
002DFFFEFFFC1000
01DFD40015EFC000
09FD1000002EF700
0EF600000008FD00
3FF200000003FF20
5FF000000001FF40
6FE000000000FF50
5FF000000001FF40
3FF200000003FF20
0EF600000008FE00
08FE1000002EF700
01DFD40005DFD100
002CFFFEFFFC2000
00006BDFEB600000
ENDCHAR
STARTCHAR upsilontonos
ENCODING 973
SWIDTH 608 0
DWIDTH 17 0
BBX 14 23 2 0
BITMAP
0000005FF30000
0000008FD00000
000000BF800000
000000EF200000
000003FA000000
000007F2000000
00000000000000
00000000000000
BF800000007FC0
BF800000004FF1
BF800000001FF3
BF800000000EF5
BF800000000DF7
BF800000000CF8
BF800000000BF8
BF800000000CF7
BF800000000DF7
AFA00000001FF4
7FD00000005FF1
3FF6000001DFA0
0BFF71003CFE20
02CFFFEEFFE400
0016BEFEC81000
ENDCHAR
STARTCHAR omegatonos
ENCODING 974
SWIDTH 772 0
DWIDTH 22 0
BBX 20 23 1 0
BITMAP
0000000002FF60000000
0000000004FF20000000
0000000007FB00000000
000000000BF500000000
000000000ED000000000
000000004F5000000000
00000000000000000000
00000000000000000000
00EF60000000000BF900
05FE100000000005FE10
0AFA000000000001FF50
0EF6000000000000BF90
2FF30000000000008FC0
5FF000004FE000006FE0
6FE000004FE000005FF0
6FE000004FE000004FF1
6FE000004FE000004FF0
4FF100005FE000006FE0
1FF400006FF100009FB0
0CFA0000BFF50001EF70
05FF7017FCFD301BFE10
009FFFFFE38FFEFFF400
0006CEEB3006CEEA3000
ENDCHAR
STARTCHAR uni03D1
ENCODING 977
SWIDTH 622 0
DWIDTH 17 0
BBX 18 21 0 0
BITMAP
000007CEFD81000000
0000BFFFEFFE400000
0005FF6003CFE20000
0008FB00001DFB0000
0009FA000004FF3000
0006FE100000DF8000
0001DFB100008FC000
00003DFE95215FF000
0000018EFFFFFFFFF1
7DFC4000379ACFFCC1
9DFFD00000001FF300
004FF00000001FF300
004FF00000002FF200
005FD00000003FF100
007FB00000006FD000
009FA0000000AFA000
009FA0000001EF4000
008FD000000AFC0000
003FF91002AFE30000
0009FFFDEFFE400000
00005BEFEC71000000
ENDCHAR
STARTCHAR uni03D2
ENCODING 978
SWIDTH 564 0
DWIDTH 16 0
BBX 16 20 0 0
BITMAP
BFC0000000004CE9
3FF500000003FFFA
0AFC0000000BFC10
03FF5000004FF200
009FD00000BF9000
002FF60003FF2000
0009FD0009F90000
0001EF601FF20000
00008FD07FA00000
00001EF7EF300000
000007FFFB000000
000001EFF5000000
0000008FE0000000
0000007FD0000000
0000007FD0000000
0000007FD0000000
0000007FD0000000
0000007FD0000000
0000007FD0000000
0000007FD0000000
ENDCHAR
STARTCHAR uni03D6
ENCODING 982
SWIDTH 839 0
DWIDTH 24 0
BBX 23 15 0 0
BITMAP
3AFFFFFFFFFFFFFFFFFFFF90
BEEEFFEEEEEEEEEEEFFEEE90
0002FF20000000000CF70000
0009FB000000000006FD0000
000EF6000000000001FF2000
004FF1000000000000DF7000
007FD0000000000000AF9000
009FB000008FA000009FB000
00AFA000008FA000008FC000
00AFA000008FA000009FB000
008FC00000AFC00000BFA000
005FF20001EFF20001EF7000
001EFC201AFDFB202BFE1000
0004FFFEFFD1CFFEFFF50000
00003AEFD91019DFEA300000
ENDCHAR
STARTCHAR uni0400
ENCODING 1024
SWIDTH 556 0
DWIDTH 16 0
BBX 12 26 2 0
BITMAP
001DFD000000
0003EF800000
00003EF40000
000002CE1000
000000000000
000000000000
4FFFFFFFFFFD
4FFFFFFFFFFD
4FF211111111
4FF100000000
4FF100000000
4FF100000000
4FF100000000
4FF100000000
4FF100000000
4FFFFFFFFFF5
4FFFFFFFFFF5
4FF211111110
4FF100000000
4FF100000000
4FF100000000
4FF100000000
4FF100000000
4FF211111111
4FFFFFFFFFFD
4FFFFFFFFFFD
ENDCHAR
STARTCHAR afii10023
ENCODING 1025
SWIDTH 556 0
DWIDTH 16 0
BBX 12 26 2 0
BITMAP
001DD100AE30
003FF300FF60
001CC100AE20
000000000000
000000000000
000000000000
4FFFFFFFFFFD
4FFFFFFFFFFD
4FF211111111
4FF100000000
4FF100000000
4FF100000000
4FF100000000
4FF100000000
4FF100000000
4FFFFFFFFFF5
4FFFFFFFFFF5
4FF211111110
4FF100000000
4FF100000000
4FF100000000
4FF100000000
4FF100000000
4FF211111111
4FFFFFFFFFFD
4FFFFFFFFFFD
ENDCHAR
STARTCHAR afii10051
ENCODING 1026
SWIDTH 733 0
DWIDTH 21 0
BBX 19 20 0 0
BITMAP
BFFFFFFFFFFFF4000000
BFFFFFFFFFFFF4000000
11113FF3111110000000
00002FF3000000000000
00002FF3000000000000
00002FF3000000000000
00002FF3000000000000
00002FF3000000000000
00002FFFFFFFFEC81000
00002FFFFFFFFFFFE300
00002FF41111137EFD00
00002FF300000005FF30
00002FF300000001FF60
00002FF300000000EF60
00002FF300000000EF60
00002FF300000000FF50
00002FF300000005FF30
00002FF30003225EFC00
00002FF3000BFFFFE300
00002FF30009EFD92000
ENDCHAR
STARTCHAR afii10052
ENCODING 1027
SWIDTH 520 0
DWIDTH 15 0
BBX 12 26 2 0
BITMAP
0000002EFB00
000000BFC100
000007FC1000
00003FA10000
000000000000
000000000000
4FFFFFFFFFFD
4FFFFFFFFFFD
4FF211111111
4FF100000000
4FF100000000
4FF100000000
4FF100000000
4FF100000000
4FF100000000
4FF100000000
4FF100000000
4FF100000000
4FF100000000
4FF100000000
4FF100000000
4FF100000000
4FF100000000
4FF100000000
4FF100000000
4FF100000000
ENDCHAR
STARTCHAR afii10053
ENCODING 1028
SWIDTH 639 0
DWIDTH 18 0
BBX 16 20 1 0
BITMAP
00000059DEFEDA61
00005DFFFFFFFFFD
0007FFF9532359E7
005FFC2000000011
01EFD10000000000
07FF400000000000
0CFC000000000000
1FF8000000000000
3FF5000000000000
4FFFFFFFFFFFF200
4FFFFFFFFFFFF200
3FF4111111111000
1FF5000000000000
0DF9000000000000
09FE100000000000
03FF900000000000
009FF80000000000
000BFFD742124694
00008FFFFFFFFFF5
0000027BDEFECA61
ENDCHAR
STARTCHAR afii10054
ENCODING 1029
SWIDTH 548 0
DWIDTH 15 0
BBX 13 20 1 0
BITMAP
0004ADFFEC9400
01AFFFFFFFFF50
09FFA42236AE10
1FF80000000000
4FF20000000000
4FF20000000000
1FF70000000000
0AFF6000000000
01DFFD61000000
0019FFFFA30000
000028EFFFA100
00000004BFFD10
0000000006FF90
00000000009FE0
00000000005FF0
00000000007FE0
1000000001DFA0
8C8421126DFE20
8FFFFFFFFFD300
27BDEFFDB61000
ENDCHAR
STARTCHAR afii10055
ENCODING 1030
SWIDTH 278 0
DWIDTH 8 0
BBX 4 20 2 0
BITMAP
4FF1
4FF1
4FF1
4FF1
4FF1
4FF1
4FF1
4FF1
4FF1
4FF1
4FF1
4FF1
4FF1
4FF1
4FF1
4FF1
4FF1
4FF1
4FF1
4FF1
ENDCHAR
STARTCHAR afii10056
ENCODING 1031
SWIDTH 278 0
DWIDTH 8 0
BBX 8 26 0 0
BITMAP
9E4006E6
EF800AFB
9E4006E6
00000000
00000000
00000000
004FF100
004FF100
004FF100
004FF100
004FF100
004FF100
004FF100
004FF100
004FF100
004FF100
004FF100
004FF100
004FF100
004FF100
004FF100
004FF100
004FF100
004FF100
004FF100
004FF100
ENDCHAR
STARTCHAR afii10057
ENCODING 1032
SWIDTH 267 0
DWIDTH 7 0
BBX 8 25 -3 -5
BITMAP
000006FE
000006FE
000006FE
000006FE
000006FE
000006FE
000006FE
000006FE
000006FE
000006FE
000006FE
000006FE
000006FE
000006FE
000006FE
000006FE
000006FE
000006FE
000006FE
000006FE
000008FD
00000CFA
13239FF5
3FFFFFA0
2DFEC600
ENDCHAR
STARTCHAR afii10058
ENCODING 1033
SWIDTH 929 0
DWIDTH 26 0
BBX 25 20 0 0
BITMAP
000000CFFFFFFFF80000000000
000000EFFFFFFFF80000000000
000002FF31111CF80000000000
000004FF00000CF80000000000
000006FD00000CF80000000000
000008FB00000CF80000000000
00000AF900000CF80000000000
00000CF700000CF80000000000
00000EF500000CFFFFEC950000
00002FF200000CFFFFFFFFC200
00004FF000000CF811249FFE10
00007FD000000CF8000004FF80
00009FA000000CF8000000AFC0
0000CF7000000CF80000007FE0
0001FF4000000CF80000008FE0
0004FF1000000CF8000000BFC0
0009FB0000000CF8000004FF70
204FF50000000CF800149FFD10
FFFFB00000000CFFFFFFFFC200
CFD9100000000CFFFFEDA50000
ENDCHAR
STARTCHAR afii10059
ENCODING 1034
SWIDTH 953 0
DWIDTH 27 0
BBX 24 20 2 0
BITMAP
4FF100000002FF3000000000
4FF100000002FF3000000000
4FF100000002FF3000000000
4FF100000002FF3000000000
4FF100000002FF3000000000
4FF100000002FF3000000000
4FF100000002FF3000000000
4FF100000002FF3000000000
4FF100000002FF3000000000
4FFFFFFFFFFFFFFFEDB83000
4FFFFFFFFFFFFFFFFFFFFB10
4FF211111113FF41235AFFC0
4FF100000002FF3000006FF5
4FF100000002FF3000000DF8
4FF100000002FF3000000CF9
4FF100000002FF3000000EF8
4FF100000002FF3000007FF4
4FF100000002FF30024AFFB0
4FF100000002FFFFFFFFFB10
4FF100000002FFFFFEC94000
ENDCHAR
STARTCHAR afii10060
ENCODING 1035
SWIDTH 733 0
DWIDTH 21 0
BBX 19 20 0 0
BITMAP
BFFFFFFFFFFFFF200000
BFFFFFFFFFFFFF200000
11113FF3111111000000
00002FF3000000000000
00002FF3000000000000
00002FF3000000000000
00002FF3000000000000
00002FF3000000000000
00002FFFFFFFFEC81000
00002FFFFFFFFFFFE300
00002FF41111127EFD00
00002FF300000005FF30
00002FF300000001FF50
00002FF300000000EF60
00002FF300000000EF60
00002FF300000000EF60
00002FF300000000EF60
00002FF300000000EF60
00002FF300000000EF60
00002FF300000000EF60
ENDCHAR
STARTCHAR afii10061
ENCODING 1036
SWIDTH 611 0
DWIDTH 17 0
BBX 15 26 2 0
BITMAP
00000002FFB00000
0000000BFC100000
0000007FC1000000
000003FA10000000
0000000000000000
0000000000000000
4FF100000006FF50
4FF10000005FF600
4FF1000004FF7000
4FF100003EF80000
4FF10003EFA00000
4FF1002EFB000000
4FF101DFC1000000
4FF11CFD10000000
4FF2CFD200000000
4FFCFF3000000000
4FF6FF9000000000
4FF16FF800000000
4FF108FF60000000
4FF1009FF5000000
4FF1000AFE300000
4FF10000BFE20000
4FF100001CFD2000
4FF1000001DFC100
4FF10000002EFB00
4FF100000003EFA0
ENDCHAR
STARTCHAR uni040D
ENCODING 1037
SWIDTH 762 0
DWIDTH 21 0
BBX 17 26 2 0
BITMAP
00001EFD0000000000
000003EF7000000000
0000003EF300000000
00000002CD10000000
000000000000000000
000000000000000000
3FE00000000004FF90
3FE0000000001DFF90
3FE0000000009FFF90
3FE000000004FFBF90
3FE00000001DFA6F90
3FE00000009FE17F90
3FE0000004FF508F90
3FE000001DFA008F90
3FE000009FE1008F90
3FE00005FF50008F90
3FE0001EFA00008F90
3FE000AFE100008F90
3FE005FF5000008F90
3FE01EFA0000008F90
3FD0AFE10000008F90
3FC5FF500000008F90
3FDEFA000000008F90
3FFFE1000000008F90
3FFF50000000008F90
3FFA00000000008F90
ENDCHAR
STARTCHAR afii10062
ENCODING 1038
SWIDTH 621 0
DWIDTH 17 0
BBX 18 26 0 0
BITMAP
0000FF300004FE0000
0000CF90000BFA0000
00004FFDBBEFE30000
000004AEFFD9200000
000000000000000000
000000000000000000
5FF300000000004FF3
0CFB0000000000BFB0
05FF4000000003FF40
00CFC000000009FC00
004FF50000001FF500
000BFC0000008FD000
0003FF500000EF7000
0000AFD00006FE1000
00002FF6000CF80000
000009FD104FF20000
000002EF70BFA00000
0000008FE3FF300000
0000001EFDFB000000
00000007FFF4000000
00000001EFC0000000
00000004FF50000000
0000001DFC00000000
064226DFE300000000
0AFFFFFE4000000000
07DFED920000000000
ENDCHAR
STARTCHAR afii10145
ENCODING 1039
SWIDTH 729 0
DWIDTH 20 0
BBX 16 25 2 -5
BITMAP
4FF1000000000AFA
4FF1000000000AFA
4FF1000000000AFA
4FF1000000000AFA
4FF1000000000AFA
4FF1000000000AFA
4FF1000000000AFA
4FF1000000000AFA
4FF1000000000AFA
4FF1000000000AFA
4FF1000000000AFA
4FF1000000000AFA
4FF1000000000AFA
4FF1000000000AFA
4FF1000000000AFA
4FF1000000000AFA
4FF1000000000AFA
4FF3222222222AFA
4FFFFFFFFFFFFFFA
4FFFFFFFFFFFFFFA
0000001FF5000000
0000001FF5000000
0000001FF5000000
0000001FF5000000
0000001FF5000000
ENDCHAR
STARTCHAR afii10017
ENCODING 1040
SWIDTH 632 0
DWIDTH 18 0
BBX 18 20 0 0
BITMAP
00000004FF10000000
0000000AFF70000000
0000001FEFD0000000
0000007F9EF3000000
000000DF59F9000000
000004FF14FE100000
00000AFA00EF600000
00001FF4008FC00000
00007FE0003FF30000
0000DF80000CF90000
0004FF300007FE1000
000AFC000002FF6000
001FFFFFFFFFFFC000
006FFFFFFFFFFFF200
00CFA11111112EF800
03FF3000000009FE00
09FC0000000002FF50
1EF60000000000BFB0
6FE100000000005FF2
CF9000000000000DF8
ENDCHAR
STARTCHAR afii10018
ENCODING 1041
SWIDTH 612 0
DWIDTH 17 0
BBX 14 20 2 0
BITMAP
4FFFFFFFFFFF80
4FFFFFFFFFFF80
4FF21111111100
4FF10000000000
4FF10000000000
4FF10000000000
4FF10000000000
4FF10000000000
4FF10000000000
4FFFFFFEDA5000
4FFFFFFFFFFD30
4FF2111248EFE1
4FF10000004FF6
4FF10000000CF9
4FF10000000BFA
4FF10000000DF9
4FF10000004FF6
4FF1000138FFD0
4FFFFFFFFFFD20
4FFFFFFEDA6000
ENDCHAR
STARTCHAR afii10019
ENCODING 1042
SWIDTH 647 0
DWIDTH 18 0
BBX 15 20 2 0
BITMAP
4FFFFFFEDB720000
4FFFFFFFFFFF6000
4FF1000137DFF400
4FF10000002EFA00
4FF100000009FD00
4FF100000008FD00
4FF100000009FB00
4FF10000001EF500
4FF1000025DF9000
4FFFFFFFFFA40000
4FFFFFFFFFEA3000
4FF10000149FF600
4FF100000007FF20
4FF100000001FF70
4FF100000000EF90
4FF100000001FF70
4FF100000008FF40
4FF1000014AFFB00
4FFFFFFFFFFFB100
4FFFFFFFEDA40000
ENDCHAR
STARTCHAR afii10020
ENCODING 1043
SWIDTH 520 0
DWIDTH 15 0
BBX 12 20 2 0
BITMAP
4FFFFFFFFFFD
4FFFFFFFFFFD
4FF211111111
4FF100000000
4FF100000000
4FF100000000
4FF100000000
4FF100000000
4FF100000000
4FF100000000
4FF100000000
4FF100000000
4FF100000000
4FF100000000
4FF100000000
4FF100000000
4FF100000000
4FF100000000
4FF100000000
4FF100000000
ENDCHAR
STARTCHAR afii10021
ENCODING 1044
SWIDTH 683 0
DWIDTH 19 0
BBX 19 25 0 -5
BITMAP
0000001FFFFFFFFF0000
0000002FFFFFFFFF0000
0000003FF21116FF0000
0000006FE00005FF0000
0000008FC00005FF0000
000000BF900005FF0000
000000EF600005FF0000
000003FF200005FF0000
000007FD000005FF0000
00000BF9000005FF0000
00001FF5000005FF0000
00006FE0000005FF0000
0000BF90000005FF0000
0002FF40000005FF0000
0008FD00000005FF0000
001EF600000005FF0000
008FD000000005FF0000
13EF7222222226FF2210
CFFFFFFFFFFFFFFFFF80
CFFFFFFFFFFFFFFFFF80
CF60000000000000BF80
CF60000000000000BF80
CF60000000000000BF80
CF60000000000000BF80
CF60000000000000BF80
ENDCHAR
STARTCHAR afii10022
ENCODING 1045
SWIDTH 556 0
DWIDTH 16 0
BBX 12 20 2 0
BITMAP
4FFFFFFFFFFD
4FFFFFFFFFFD
4FF211111111
4FF100000000
4FF100000000
4FF100000000
4FF100000000
4FF100000000
4FF100000000
4FFFFFFFFFF5
4FFFFFFFFFF5
4FF211111110
4FF100000000
4FF100000000
4FF100000000
4FF100000000
4FF100000000
4FF211111111
4FFFFFFFFFFD
4FFFFFFFFFFD
ENDCHAR
STARTCHAR afii10024
ENCODING 1046
SWIDTH 844 0
DWIDTH 24 0
BBX 24 20 0 0
BITMAP
4FF50000005FE0000000AFD1
07FE2000005FE0000007FE20
00AFD100005FE000004FF500
001CFB00005FE00002EF7000
0002EF80005FE0001DFA0000
00004FF5005FE000AFC10000
000006FE305FE008FE200000
0000009FD15FE05FF4000000
0000000CFB5FE2EF60000000
00000002EFCFEDFA00000000
00000007FF8FE9FE20000000
0000004FF65FE0CFC1000000
000002EF905FE01EFA000000
00000CFC105FE004FF700000
00009FE2005FE0006FF40000
0006FF40005FE0000AFE2000
003FF700005FE00001CFC000
01DFB000005FE000002EF900
0BFD1000005FE0000004FF60
9FE30000005FE00000008FF3
ENDCHAR
STARTCHAR afii10025
ENCODING 1047
SWIDTH 581 0
DWIDTH 16 0
BBX 14 20 1 0
BITMAP
0038BEFEDA4000
3BFFFFEFFFFA00
8FD830003AFF90
06100000009FF2
00000000003FF4
00000000002FF4
00000000006FF2
0000000003EF90
000000149FF900
00DFFFFFE83000
00CEEFFFFFB400
000000025BFF80
00000000007FF4
00000000000DF9
00000000000BFA
00000000000EF9
10000000007FF4
EA5200014AFFA0
FFFFFEEFFFF800
27BDEFEDB72000
ENDCHAR
STARTCHAR afii10026
ENCODING 1048
SWIDTH 762 0
DWIDTH 21 0
BBX 17 20 2 0
BITMAP
3FE00000000004FF90
3FE0000000001DFF90
3FE0000000009FFF90
3FE000000004FFBF90
3FE00000001DFA6F90
3FE00000009FE17F90
3FE0000004FF508F90
3FE000001DFA008F90
3FE000009FE1008F90
3FE00005FF50008F90
3FE0001EFA00008F90
3FE000AFE100008F90
3FE005FF5000008F90
3FE01EFA0000008F90
3FD0AFE10000008F90
3FC5FF500000008F90
3FDEFA000000008F90
3FFFE1000000008F90
3FFF50000000008F90
3FFA00000000008F90
ENDCHAR
STARTCHAR afii10027
ENCODING 1049
SWIDTH 762 0
DWIDTH 21 0
BBX 17 26 2 0
BITMAP
0000DF500002FF1000
00009FB00009FD0000
00002EFEBBDFF40000
000003ADFFDA300000
000000000000000000
000000000000000000
3FE00000000004FF90
3FE0000000001DFF90
3FE0000000009FFF90
3FE000000004FFBF90
3FE00000001DFA6F90
3FE00000009FE17F90
3FE0000004FF508F90
3FE000001DFA008F90
3FE000009FE1008F90
3FE00005FF50008F90
3FE0001EFA00008F90
3FE000AFE100008F90
3FE005FF5000008F90
3FE01EFA0000008F90
3FD0AFE10000008F90
3FC5FF500000008F90
3FDEFA000000008F90
3FFFE1000000008F90
3FFF50000000008F90
3FFA00000000008F90
ENDCHAR
STARTCHAR afii10028
ENCODING 1050
SWIDTH 611 0
DWIDTH 17 0
BBX 15 20 2 0
BITMAP
4FF100000006FF50
4FF10000005FF600
4FF1000004FF7000
4FF100003EF80000
4FF10003EFA00000
4FF1002EFB000000
4FF101DFC1000000
4FF11CFD10000000
4FF2CFD200000000
4FFCFF3000000000
4FF6FF9000000000
4FF16FF800000000
4FF108FF60000000
4FF1009FF5000000
4FF1000AFE300000
4FF10000BFE20000
4FF100001CFD2000
4FF1000001DFC100
4FF10000002EFB00
4FF100000003EFA0
ENDCHAR
STARTCHAR afii10029
ENCODING 1051
SWIDTH 704 0
DWIDTH 20 0
BBX 17 20 0 0
BITMAP
000000DFFFFFFFFFF0
000000FFFFFFFFFFF0
000002FF2111116FF0
000004FE0000005FF0
000006FD0000005FF0
000008FB0000005FF0
00000AF90000005FF0
00000CF60000005FF0
00000EF40000005FF0
00002FF20000005FF0
00004FF00000005FF0
00007FD00000005FF0
00009FA00000005FF0
0000CF700000005FF0
0000FF400000005FF0
0004FF100000005FF0
000AFC000000005FF0
205FF6000000005FF0
FFFFC0000000005FF0
CFEA10000000005FF0
ENDCHAR
STARTCHAR afii10030
ENCODING 1052
SWIDTH 902 0
DWIDTH 25 0
BBX 21 20 2 0
BITMAP
4FFF7000000000002FFF80
4FFFC000000000008FFF80
4FDFF30000000000DFDF80
4FCBF90000000004FCAF80
4FD5FE000000000AF7BF80
4FD0EF500000001FF1BF80
4FD09FB00000007FA0CF80
4FD03FF2000000CF40CF80
4FD00CF8000003FD00CF80
4FD006FD000009F800CF80
4FD001FF40001EF200CF80
4FD000AFA0006FB000CF80
4FD0004FF100BF5000CF80
4FD0000DF602FE1000CF80
4FD00008FC08F90000CF80
4FD00002FF3EF30000CF80
4FD00000BFDFC00000CF80
4FD000005FFF600000CF80
4FD000001EFF100000CF80
4FD0000009FA000000CF80
ENDCHAR
STARTCHAR afii10031
ENCODING 1053
SWIDTH 737 0
DWIDTH 21 0
BBX 16 20 2 0
BITMAP
4FF10000000006FE
4FF10000000006FE
4FF10000000006FE
4FF10000000006FE
4FF10000000006FE
4FF10000000006FE
4FF10000000006FE
4FF10000000006FE
4FF10000000006FE
4FFFFFFFFFFFFFFE
4FFFFFFFFFFFFFFE
4FF21111111117FE
4FF10000000006FE
4FF10000000006FE
4FF10000000006FE
4FF10000000006FE
4FF10000000006FE
4FF10000000006FE
4FF10000000006FE
4FF10000000006FE
ENDCHAR
STARTCHAR afii10032
ENCODING 1054
SWIDTH 778 0
DWIDTH 22 0
BBX 20 20 1 0
BITMAP
0000027BDEEDA6100000
00008FFFFFFFFFE50000
000BFFD732237DFF7000
008FF800000001AFF400
02FF90000000000CFD00
09FE100000000003FF50
0DFA000000000000CFA0
1FF60000000000009FD0
3FF40000000000007FF0
4FF30000000000006FF1
4FF30000000000006FF1
3FF40000000000007FF0
1FF60000000000009FD0
0DFA000000000000CFA0
09FE100000000003FF50
02FF90000000000BFD00
008FF700000000AFF400
000BFFC621137DFF7000
00008FFFFFFFFFE50000
0000027BDFEDA6100000
ENDCHAR
STARTCHAR afii10033
ENCODING 1055
SWIDTH 729 0
DWIDTH 20 0
BBX 16 20 2 0
BITMAP
4FFFFFFFFFFFFFFA
4FFFFFFFFFFFFFFA
4FF2111111111AFA
4FF1000000000AFA
4FF1000000000AFA
4FF1000000000AFA
4FF1000000000AFA
4FF1000000000AFA
4FF1000000000AFA
4FF1000000000AFA
4FF1000000000AFA
4FF1000000000AFA
4FF1000000000AFA
4FF1000000000AFA
4FF1000000000AFA
4FF1000000000AFA
4FF1000000000AFA
4FF1000000000AFA
4FF1000000000AFA
4FF1000000000AFA
ENDCHAR
STARTCHAR afii10034
ENCODING 1056
SWIDTH 602 0
DWIDTH 17 0
BBX 14 20 2 0
BITMAP
4FFFFFFEB82000
4FFFFFFFFFF800
4FF100126DFF70
4FF1000000BFF1
4FF10000003FF4
4FF10000000FF6
4FF10000001FF5
4FF10000004FF3
4FF1000001CFC0
4FF100137DFF30
4FFFFFFFFFD400
4FFFFFEDA50000
4FF10000000000
4FF10000000000
4FF10000000000
4FF10000000000
4FF10000000000
4FF10000000000
4FF10000000000
4FF10000000000
ENDCHAR
STARTCHAR afii10035
ENCODING 1057
SWIDTH 630 0
DWIDTH 18 0
BBX 16 20 1 0
BITMAP
0000005ADEFECA61
00005DFFFFFFFFF9
0007FFF9421359E3
005FFC2000000010
01EFD10000000000
07FF300000000000
0CFC000000000000
1FF7000000000000
3FF5000000000000
4FF4000000000000
4FF4000000000000
3FF4000000000000
1FF7000000000000
0DFB000000000000
09FF200000000000
02FFB00000000000
008FFA1000000000
000BFFE8421247A1
00008FFFFFFFFFF1
0000027BDFEDC950
ENDCHAR
STARTCHAR afii10036
ENCODING 1058
SWIDTH 553 0
DWIDTH 15 0
BBX 16 20 0 0
BITMAP
BFFFFFFFFFFFFFF4
BFFFFFFFFFFFFFF4
1111117FE1111110
0000006FE0000000
0000006FE0000000
0000006FE0000000
0000006FE0000000
0000006FE0000000
0000006FE0000000
0000006FE0000000
0000006FE0000000
0000006FE0000000
0000006FE0000000
0000006FE0000000
0000006FE0000000
0000006FE0000000
0000006FE0000000
0000006FE0000000
0000006FE0000000
0000006FE0000000
ENDCHAR
STARTCHAR afii10037
ENCODING 1059
SWIDTH 621 0
DWIDTH 17 0
BBX 18 20 0 0
BITMAP
5FF300000000004FF3
0CFB0000000000BFB0
05FF4000000003FF40
00CFC000000009FC00
004FF50000001FF500
000BFC0000008FD000
0003FF500000EF7000
0000AFD00006FE1000
00002FF6000CF80000
000009FD104FF20000
000002EF70BFA00000
0000008FE3FF300000
0000001EFDFB000000
00000007FFF4000000
00000001EFC0000000
00000004FF50000000
0000001DFC00000000
064226DFE300000000
0AFFFFFE4000000000
07DFED920000000000
ENDCHAR
STARTCHAR afii10038
ENCODING 1060
SWIDTH 797 0
DWIDTH 22 0
BBX 20 20 1 0
BITMAP
000000000FF500000000
000000000FF500000000
000039CEFFFFFDB61000
001AFFFFFFFFFFFFD400
00CFF9410FF5026DFF30
08FF50000FF50001CFD0
0EF800000FF500003FF5
5FF200000FF500000CFA
7FE000000FF5000009FC
8FD000000FF5000008FD
6FE000000FF5000009FC
4FF300000FF500000DF9
0EF900000FF500004FF5
07FF60000FF50002DFC0
00BFFA410FF5027EFE20
0019FFFFFFFFFFFFC200
000038CEFFFFEDA50000
000000000FF500000000
000000000FF500000000
000000000FF500000000
ENDCHAR
STARTCHAR afii10039
ENCODING 1061
SWIDTH 577 0
DWIDTH 16 0
BBX 16 20 0 0
BITMAP
2FF7000000003FF4
07FE20000000CF90
00CFB0000007FD10
003FF500002FF400
0008FD1000BF9000
0000DF9006FE1000
00004FF31EF50000
000009FCAFA00000
000001DFFE100000
0000006FF8000000
000000DFFE100000
000007FCCFA00000
00002FF33FF40000
0000BF9009FD1000
0006FE1001EF8000
001EF500005FF300
00AFB000000BFC00
05FF20000002FF70
1DF7000000008FE2
9FD0000000001DFB
ENDCHAR
STARTCHAR afii10040
ENCODING 1062
SWIDTH 736 0
DWIDTH 21 0
BBX 18 25 2 -5
BITMAP
4FF1000000000AFA00
4FF1000000000AFA00
4FF1000000000AFA00
4FF1000000000AFA00
4FF1000000000AFA00
4FF1000000000AFA00
4FF1000000000AFA00
4FF1000000000AFA00
4FF1000000000AFA00
4FF1000000000AFA00
4FF1000000000AFA00
4FF1000000000AFA00
4FF1000000000AFA00
4FF1000000000AFA00
4FF1000000000AFA00
4FF1000000000AFA00
4FF1000000000AFA00
4FF3222222222AFB22
4FFFFFFFFFFFFFFFFF
4FFFFFFFFFFFFFFFFF
0000000000000003FF
0000000000000003FF
0000000000000003FF
0000000000000003FF
0000000000000003FF
ENDCHAR
STARTCHAR afii10041
ENCODING 1063
SWIDTH 694 0
DWIDTH 19 0
BBX 15 20 2 0
BITMAP
AFA0000000009FB0
AFA0000000009FB0
AFA0000000009FB0
AFA0000000009FB0
AFA0000000009FB0
AFA0000000009FB0
AFA0000000009FB0
AFA0000000009FB0
9FC0000000009FB0
7FF200000000AFB0
2FFD521246AEFFB0
05FFFFFFFFFFEFB0
0029DEFEC9519FB0
0000000000009FB0
0000000000009FB0
0000000000009FB0
0000000000009FB0
0000000000009FB0
0000000000009FB0
0000000000009FB0
ENDCHAR
STARTCHAR afii10042
ENCODING 1064
SWIDTH 1032 0
DWIDTH 29 0
BBX 25 20 2 0
BITMAP
4FF10000000BF900000003FF20
4FF10000000BF900000003FF20
4FF10000000BF900000003FF20
4FF10000000BF900000003FF20
4FF10000000BF900000003FF20
4FF10000000BF900000003FF20
4FF10000000BF900000003FF20
4FF10000000BF900000003FF20
4FF10000000BF900000003FF20
4FF10000000BF900000003FF20
4FF10000000BF900000003FF20
4FF10000000BF900000003FF20
4FF10000000BF900000003FF20
4FF10000000BF900000003FF20
4FF10000000BF900000003FF20
4FF10000000BF900000003FF20
4FF10000000BF900000003FF20
4FF32222222BFA22222224FF20
4FFFFFFFFFFFFFFFFFFFFFFF20
4FFFFFFFFFFFFFFFFFFFFFFF20
ENDCHAR
STARTCHAR afii10043
ENCODING 1065
SWIDTH 1033 0
DWIDTH 29 0
BBX 27 25 2 -5
BITMAP
4FF10000000EF600000009FB0000
4FF10000000EF600000009FB0000
4FF10000000EF600000009FB0000
4FF10000000EF600000009FB0000
4FF10000000EF600000009FB0000
4FF10000000EF600000009FB0000
4FF10000000EF600000009FB0000
4FF10000000EF600000009FB0000
4FF10000000EF600000009FB0000
4FF10000000EF600000009FB0000
4FF10000000EF600000009FB0000
4FF10000000EF600000009FB0000
4FF10000000EF600000009FB0000
4FF10000000EF600000009FB0000
4FF10000000EF600000009FB0000
4FF10000000EF600000009FB0000
4FF10000000EF600000009FB0000
4FF32222222EF72222222AFB2200
4FFFFFFFFFFFFFFFFFFFFFFFFF10
4FFFFFFFFFFFFFFFFFFFFFFFFF10
000000000000000000000002FF10
000000000000000000000002FF10
000000000000000000000002FF10
000000000000000000000002FF10
000000000000000000000002FF10
ENDCHAR
STARTCHAR afii10044
ENCODING 1066
SWIDTH 687 0
DWIDTH 19 0
BBX 18 20 0 0
BITMAP
BFFFFFF30000000000
BFFFFFF30000000000
11113FF30000000000
00002FF30000000000
00002FF30000000000
00002FF30000000000
00002FF30000000000
00002FF30000000000
00002FF30000000000
00002FFFFFFEDA6000
00002FFFFFFFFFFD30
00002FF3111248EFE1
00002FF30000003FF7
00002FF30000000BFB
00002FF30000000AFC
00002FF30000000BFB
00002FF30000004FF7
00002FF3000138EFD1
00002FFFFFFFFFFD30
00002FFFFFFFDB6100
ENDCHAR
STARTCHAR afii10045
ENCODING 1067
SWIDTH 853 0
DWIDTH 24 0
BBX 20 20 2 0
BITMAP
4FF10000000000003FF2
4FF10000000000003FF2
4FF10000000000003FF2
4FF10000000000003FF2
4FF10000000000003FF2
4FF10000000000003FF2
4FF10000000000003FF2
4FF10000000000003FF2
4FF10000000000003FF2
4FFFFFFECA5000003FF2
4FFFFFFFFFFC20003FF2
4FF2111259FFC0003FF2
4FF10000005FF5003FF2
4FF10000000DF9003FF2
4FF10000000CF9003FF2
4FF10000000EF8003FF2
4FF10000006FF4003FF2
4FF1000138FFC0003FF2
4FFFFFFFFFFC10003FF2
4FFFFFFEDA5000003FF2
ENDCHAR
STARTCHAR afii10046
ENCODING 1068
SWIDTH 643 0
DWIDTH 18 0
BBX 15 20 2 0
BITMAP
4FF1000000000000
4FF1000000000000
4FF1000000000000
4FF1000000000000
4FF1000000000000
4FF1000000000000
4FF1000000000000
4FF1000000000000
4FF1000000000000
4FFFFFFFEC930000
4FFFFFFFFFFFA100
4FF2111125AFFA00
4FF100000007FF30
4FF100000000EF70
4FF100000000DF80
4FF100000001FF60
4FF100000008FF20
4FF1000024AFF900
4FFFFFFFFFFFA000
4FFFFFFFEC930000
ENDCHAR
STARTCHAR afii10047
ENCODING 1069
SWIDTH 629 0
DWIDTH 18 0
BBX 16 20 0 0
BITMAP
027BDEFEC9400000
1EFFFFFFFFFC3000
07D842125AFFF400
00000000003DFE20
000000000001DFB0
0000000000005FF3
0000000000000EF7
0000000000000BFA
0006FFFFFFFFFFFC
0006FFFFFFFFFFFD
0000111111111AFC
0000000000000BFB
0000000000000EF9
0000000000003FF6
000000000000AFF1
000000000004FF90
00000000005EFD10
0A7431236CFFE300
0FFFFFFFFFFB2000
059CDEFEC8400000
ENDCHAR
STARTCHAR afii10048
ENCODING 1070
SWIDTH 1049 0
DWIDTH 29 0
BBX 26 20 2 0
BITMAP
4FF10000000017BDFED9500000
4FF100000007EFFFFFFFFC2000
4FF10000009FFD732249FFE300
4FF1000005FF900000002DFD10
4FF100000DFB0000000002FF70
4FF100005FF200000000009FE0
4FF10000AFC000000000004FF3
4FF10000DF9000000000001FF7
4FF10000FF6000000000000DF8
4FFFFFFFFF6000000000000CF9
4FFFFFFFFF6000000000000CF9
4FF21112FF6000000000000DF8
4FF10000EF9000000000001FF7
4FF10000CFC000000000004FF3
4FF100007FF200000000009FE0
4FF100002FFA0000000002FF80
4FF1000008FF800000002DFD10
4FF1000000BFFC621138EFE300
4FF100000008FFFFFFFFFC3000
4FF10000000028BEFEDA500000
ENDCHAR
STARTCHAR afii10049
ENCODING 1071
SWIDTH 636 0
DWIDTH 18 0
BBX 16 20 0 0
BITMAP
000005ADEFFFFFF1
0002DFFFFFFFFFF1
001DFF9410004FF1
007FF40000004FF1
00BFB00000004FF1
00DF900000004FF1
00CF900000004FF1
00AFD00000004FF1
005FF60000004FF1
000CFFA410004FF1
0001BFFFFFFFFFF1
000004EFFFFFFFF1
000005FF50004FF1
00001EFB00004FF1
0000AFE200004FF1
0005FF6000004FF1
001EFB0000004FF1
00AFE20000004FF1
04FF700000004FF1
1DFC000000004FF1
ENDCHAR
STARTCHAR afii10065
ENCODING 1072
SWIDTH 556 0
DWIDTH 16 0
BBX 13 15 1 0
BITMAP
0005ADEFDA3000
00CFFFEEFFF400
008A51003CFD00
0000000003FF20
0000000000FF40
0000000000EF40
00048BDEEFFF40
03DFFECBAAFF40
2EFC400000FF40
8FE1000000FF40
AFB0000004FF40
AFC000000BFF40
6FF80003BFFF40
0BFFFEEFF6BF40
007CFFDA307F40
ENDCHAR
STARTCHAR afii10066
ENCODING 1073
SWIDTH 596 0
DWIDTH 17 0
BBX 15 21 1 0
BITMAP
000000001479CA00
0000059DFFFFFD00
0003CFFFCA742000
002EFC5100000000
00CFA00000000000
04FE100000000000
0AF9000000000000
0EF505BEFD920000
2FF4BFFFFFFF5000
4FFDF93003CFE200
5FFE4000001EF900
5FF400000009FE00
5FF000000005FF10
4FF000000004FF20
3FF200000004FF10
0FF600000006FF00
0AFB0000000AFB00
04FF4000002FF500
00AFE61005DFB000
001BFFFEFFFC1000
00005BEFEB500000
ENDCHAR
STARTCHAR afii10067
ENCODING 1074
SWIDTH 568 0
DWIDTH 16 0
BBX 13 15 2 0
BITMAP
9FFFFFFFEB6000
9FFFFFFFFFFB00
9FA0000027FF50
9FA0000000BF80
9FA0000000CF60
9FA0000129FD10
9FFFFFFFFC7100
9FFEEEEFFFC600
9FA0000016EF60
9FA00000007FD0
9FA00000004FF0
9FA00000008FE0
9FA0000017FF90
9FFEEEEFFFFC10
9FFFFFFFEB6000
ENDCHAR
STARTCHAR afii10068
ENCODING 1075
SWIDTH 428 0
DWIDTH 12 0
BBX 10 15 2 0
BITMAP
9FFFFFFFF7
9FFEEEEEE6
9FA0000000
9FA0000000
9FA0000000
9FA0000000
9FA0000000
9FA0000000
9FA0000000
9FA0000000
9FA0000000
9FA0000000
9FA0000000
9FA0000000
9FA0000000
ENDCHAR
STARTCHAR afii10069
ENCODING 1076
SWIDTH 571 0
DWIDTH 16 0
BBX 16 20 0 -5
BITMAP
000005FFFFFFF400
000007FECCCFF400
000008F9000EF400
000009F8000EF400
00000CF6000EF400
00001FF3000EF400
00004FE0000EF400
00008FA0000EF400
0000EF50000EF400
0005FE10000EF400
000BF800000EF400
005FE100000EF400
01DF7000000EF400
6FFFEEEEEEEFFFE6
7FFFFFFFFFFFFFF6
7FB0000000000CF6
7FB0000000000CF6
7FB0000000000CF6
7FB0000000000CF6
7FB0000000000CF6
ENDCHAR
STARTCHAR afii10070
ENCODING 1077
SWIDTH 561 0
DWIDTH 16 0
BBX 14 15 1 0
BITMAP
00017CEFD92000
002DFFEEFFE500
01DFC3002AFE30
08FD100000DFA0
0EF50000006FF0
3FF20000004FF3
5FFFFFFFFFFFF4
6FFDDDDDDDDDD3
5FF00000000000
4FF20000000000
0EF70000000000
09FE3000000000
01DFE720025980
002CFFFFFFFF90
00006BEFFDB710
ENDCHAR
STARTCHAR afii10072
ENCODING 1078
SWIDTH 735 0
DWIDTH 21 0
BBX 21 15 0 0
BITMAP
1DF800000BF500001DF900
03EF50000BF50000BFB000
004FF3000BF50009FC1000
0006FE200BF5007FD20000
00008FC10BF505FE300000
00000AFB0BF53EF4000000
000001CF9BF7DF60000000
0000006FEDFCFE10000000
000004FF5BF5BFC1000000
00003EF60BF51CFA000000
0002DF800BF501DF900000
001CFA000BF5003EF70000
00BFC1000BF50004FF5000
09FD10000BF500006FF400
8FE200000BF5000008FE30
ENDCHAR
STARTCHAR afii10073
ENCODING 1079
SWIDTH 482 0
DWIDTH 14 0
BBX 13 15 0 0
BITMAP
027BDFFEB60000
0AFFFFEFFFC100
04A410016FF700
0000000009FA00
0000000009F900
000000139FE200
0005FFFFF82000
0005EEEFFD6000
000000016EF800
0000000004FF10
0000000001FF30
0000000004FF20
1C7300015EFB00
1FFFFEEFFFD200
049CEFFDB60000
ENDCHAR
STARTCHAR afii10074
ENCODING 1080
SWIDTH 633 0
DWIDTH 18 0
BBX 14 15 2 0
BITMAP
9F80000000CFF5
9F80000007FFF5
9F8000002EFDF5
9F800000BF8BF5
9F800005FD1BF5
9F80001EF40CF5
9F80009F900CF5
9F8004FE100CF5
9F800DF5000CF5
9F808FB0000CF5
9F83FE20000CF5
9F7CF700000CF5
9FCFC000000CF5
9FFF3000000CF5
9FF80000000CF5
ENDCHAR
STARTCHAR afii10075
ENCODING 1081
SWIDTH 633 0
DWIDTH 18 0
BBX 14 21 2 0
BITMAP
02FF100005FD00
00DF70001CF900
006FFDABEFE200
0004BEFFD92000
00000000000000
00000000000000
9F80000000CFF5
9F80000007FFF5
9F8000002EFDF5
9F800000BF8BF5
9F800005FD1BF5
9F80001EF40CF5
9F80009F900CF5
9F8004FE100CF5
9F800DF5000CF5
9F808FB0000CF5
9F83FE20000CF5
9F7CF700000CF5
9FCFC000000CF5
9FFF3000000CF5
9FF80000000CF5
ENDCHAR
STARTCHAR afii10076
ENCODING 1082
SWIDTH 519 0
DWIDTH 15 0
BBX 12 15 2 0
BITMAP
9FA000005FE3
9FA00003EF50
9FA0002EF600
9FA001DF8000
9FA01CF90000
9FA0BFB00000
9FA9FC100000
9FCFF7000000
9FA5FF500000
9FA07FF40000
9FA008FE3000
9FA000AFD200
9FA0000BFD10
9FA00001CFC1
9FA000001DFB
ENDCHAR
STARTCHAR afii10077
ENCODING 1083
SWIDTH 570 0
DWIDTH 16 0
BBX 14 15 0 0
BITMAP
00003FFFFFFFF9
00005FFEEEEFF9
00006FB0000BF9
00008FA0000BF9
00009F80000BF9
0000BF60000BF9
0000EF40000BF9
0001FF20000BF9
0004FE00000BF9
0008FB00000BF9
000CF700000BF9
003FF300000BF9
01CFB000000BF9
9EFF3000000BF9
BFC40000000BF9
ENDCHAR
STARTCHAR afii10078
ENCODING 1084
SWIDTH 734 0
DWIDTH 21 0
BBX 17 15 2 0
BITMAP
9FF6000000000EFF20
9FFC000000005FFF20
9FFF30000000BFFF20
9FBF90000003FCDF20
9F7EF1000009F7DF20
9F78F700001EF1DF20
9F72FD00006FA0DF20
9F70BF4000CF40DF20
9F705FA003FD00DF20
9F700EF109F700DF20
9F7008F61EE100DF20
9F7002FB6F9000DF20
9F7000BFCF3000DF20
9F70004FFC0000DF20
9F70000DF60000DF20
ENDCHAR
STARTCHAR afii10079
ENCODING 1085
SWIDTH 633 0
DWIDTH 18 0
BBX 14 15 2 0
BITMAP
9FA00000000EF5
9FA00000000EF5
9FA00000000EF5
9FA00000000EF5
9FA00000000EF5
9FA00000000EF5
9FFFFFFFFFFFF5
9FFEEEEEEEEFF5
9FA00000000EF5
9FA00000000EF5
9FA00000000EF5
9FA00000000EF5
9FA00000000EF5
9FA00000000EF5
9FA00000000EF5
ENDCHAR
STARTCHAR afii10080
ENCODING 1086
SWIDTH 604 0
DWIDTH 17 0
BBX 15 15 1 0
BITMAP
00006BEFEB600000
002DFFFEFFFC1000
01DFD40015EFC000
09FD1000002EF700
0EF600000008FD00
3FF200000003FF20
5FF000000001FF40
6FE000000000FF50
5FF000000001FF40
3FF200000003FF20
0EF600000008FE00
08FE1000002EF700
01DFD40005DFD100
002CFFFEFFFC2000
00006BDFEB600000
ENDCHAR
STARTCHAR afii10081
ENCODING 1087
SWIDTH 621 0
DWIDTH 17 0
BBX 13 15 2 0
BITMAP
9FFFFFFFFFFFF0
9FFFFFFFFFFFF0
9FA00000005FF0
9FA00000005FF0
9FA00000005FF0
9FA00000005FF0
9FA00000005FF0
9FA00000005FF0
9FA00000005FF0
9FA00000005FF0
9FA00000005FF0
9FA00000005FF0
9FA00000005FF0
9FA00000005FF0
9FA00000005FF0
ENDCHAR
STARTCHAR afii10082
ENCODING 1088
SWIDTH 612 0
DWIDTH 17 0
BBX 14 22 2 -7
BITMAP
9F505BEFDA3000
9F79FFEEFFF700
9FEF82003BFF50
9FF7000000CFD0
9FF10000004FF3
9FC00000000EF6
9FB00000000CF8
9FA00000000BF9
9FB00000000CF8
9FD00000000EF6
9FF10000004FF3
9FF8000000CFD0
9FFF82003BFF40
9F9AFFEEFFF700
9F905BEFDA3000
9FA00000000000
9FA00000000000
9FA00000000000
9FA00000000000
9FA00000000000
9FA00000000000
9FA00000000000
ENDCHAR
STARTCHAR afii10083
ENCODING 1089
SWIDTH 476 0
DWIDTH 13 0
BBX 12 15 1 0
BITMAP
00017BEFDC82
003DFFFFFFF2
01EFD6212580
09FE20000000
0EF700000000
3FF200000000
5FF000000000
6FE000000000
5FF000000000
4FF200000000
1FF600000000
0AFE10000000
02EFD5102492
003EFFFFFFF3
00017CEFEC71
ENDCHAR
STARTCHAR afii10084
ENCODING 1090
SWIDTH 466 0
DWIDTH 13 0
BBX 13 15 0 0
BITMAP
7FFFFFFFFFFF80
6EEEEFFFEEEE70
000009FA000000
000009FA000000
000009FA000000
000009FA000000
000009FA000000
000009FA000000
000009FA000000
000009FA000000
000009FA000000
000009FA000000
000009FA000000
000009FA000000
000009FA000000
ENDCHAR
STARTCHAR afii10085
ENCODING 1091
SWIDTH 503 0
DWIDTH 14 0
BBX 14 22 0 -7
BITMAP
CFA000000008FD
6FF10000000DF8
1EF60000004FF2
09FC0000009FC0
03FF300000EF60
00CF800005FF10
006FE0000AFA00
001EF5001EF400
0009FA006FE000
0003FF10BF8000
0000CF61FF3000
00006FB6FC0000
00001EEBF60000
000009FFF10000
000003FFA00000
000001FF500000
000006FE000000
00000CF8000000
00005FF2000000
0005EF90000000
CEFFFC10000000
AEFD7000000000
ENDCHAR
STARTCHAR afii10086
ENCODING 1092
SWIDTH 714 0
DWIDTH 20 0
BBX 18 28 1 -7
BITMAP
00000001FF20000000
00000001FF20000000
00000001FF20000000
00000001FF20000000
00000001FF20000000
00000001FF20000000
000028CEFFEC720000
0008FFFFFFFFFF7000
00BFF831FF239FF900
07FF4001FF2004FF60
0EF80001FF20008FD0
3FF20001FF20002FF3
6FF00001FF20000EF6
7FE00001FF20000EF6
6FF00001FF20000EF6
3FF30001FF20002FF3
0DF80001FF20008FE0
06FF4001FF2003FF70
00AFF821FF228EFB00
0008FFFEFFEFFF9000
000028CEFFEC820000
00000002FF20000000
00000002FF20000000
00000002FF20000000
00000002FF20000000
00000002FF20000000
00000002FF20000000
00000002FF20000000
ENDCHAR
ENDFONT
